<!-- Generated by IcoMoon.io -->
<svg version="1.1" xmlns="http://www.w3.org/2000/svg" width="32" height="32" viewBox="0 0 32 32">
<title>1</title>
<path d="M0.671 11.097c-0.015 0.001-0.032 0.002-0.049 0.002-0.371 0-0.671-0.3-0.671-0.671 0-0.208 0.095-0.395 0.244-0.518l0.001-0.001c4.056-4.046 9.653-6.547 15.835-6.547s11.779 2.502 15.835 6.548v0c0.122 0.122 0.197 0.29 0.197 0.475 0 0.371-0.301 0.672-0.672 0.672-0.186 0-0.354-0.075-0.475-0.197v0c-3.812-3.804-9.073-6.156-14.884-6.156s-11.073 2.352-14.885 6.156v0c-0.121 0.121-0.287 0.196-0.472 0.196-0.001 0-0.003 0-0.004 0v0z"></path>
<path d="M5.185 15.587c0 0-0.001 0-0.001 0-0.371 0-0.671-0.3-0.671-0.671 0-0.186 0.075-0.354 0.197-0.475v0c2.883-2.902 6.876-4.698 11.289-4.698 0.013 0 0.026 0 0.040 0h-0.002c0.014 0 0.031 0 0.048 0 4.405 0 8.392 1.791 11.272 4.686l0.001 0.001c0.122 0.122 0.197 0.29 0.197 0.475 0 0.371-0.301 0.672-0.672 0.672-0.186 0-0.354-0.075-0.475-0.197v0c-2.637-2.646-6.285-4.283-10.315-4.283-0.020 0-0.039 0-0.058 0h0.003c-0.015 0-0.033 0-0.051 0-4.035 0-7.686 1.639-10.325 4.288v0c-0.121 0.121-0.289 0.196-0.474 0.196 0 0-0.001 0-0.001 0v0z"></path>
<path d="M9.937 20.339c0 0-0.001 0-0.001 0-0.371 0-0.671-0.3-0.671-0.671 0-0.186 0.075-0.354 0.197-0.475v0c1.682-1.678 4.005-2.716 6.569-2.716s4.887 1.038 6.569 2.717v0c0.122 0.122 0.197 0.29 0.197 0.475 0 0.371-0.301 0.672-0.672 0.672-0.186 0-0.354-0.075-0.475-0.197v0c-1.439-1.436-3.425-2.325-5.619-2.325s-4.18 0.888-5.619 2.325v0c-0.121 0.121-0.289 0.196-0.474 0.196 0 0-0.001 0-0.001 0v0z"></path>
<path d="M16.037 23.914v0c0.982 0.002 1.777 0.799 1.777 1.782s-0.798 1.782-1.782 1.782-1.782-0.798-1.782-1.782c0-0.492 0.199-0.937 0.521-1.259v0c0.323-0.323 0.768-0.523 1.261-0.523 0.002 0 0.003 0 0.005 0v0zM16.037 22.572c-1.725 0-3.123 1.399-3.123 3.124s1.399 3.124 3.124 3.124 3.124-1.399 3.124-3.124c0-0.863-0.35-1.644-0.915-2.209v0c-0.564-0.565-1.345-0.915-2.206-0.915-0.001 0-0.002 0-0.003 0v0z"></path>
</svg>
