<!-- Generated by IcoMoon.io -->
<svg version="1.1" xmlns="http://www.w3.org/2000/svg" width="32" height="32" viewBox="0 0 32 32">
<title>2</title>
<path d="M17.146 31.903h-13.949c-1.38-0.003-2.498-1.122-2.498-2.503 0-0.005 0-0.010 0-0.016v0.001-26.887c0.003-1.379 1.12-2.495 2.498-2.498h13.949c1.379 0.003 2.495 1.12 2.498 2.498v10.2h-3.127v-8.967h-12.693v21.557h7.829l0.147 0.221c0.455 0.695 1.23 1.149 2.11 1.149 0.002 0 0.004 0 0.005 0h5.728v2.729c0 0.004 0 0.010 0 0.015 0 1.381-1.118 2.5-2.498 2.503v0zM3.197 0.982c-0.837 0.003-1.514 0.68-1.517 1.516v26.887c0 0.004 0 0.010 0 0.015 0 0.839 0.678 1.519 1.516 1.522h13.949c0.837-0.003 1.514-0.68 1.517-1.516v-1.762h-4.751c-0.001 0-0.002 0-0.003 0-1.128 0-2.131-0.535-2.769-1.366l-0.006-0.008h-8.29v-23.52h14.656v8.967h1.163v-9.218c-0.003-0.837-0.68-1.514-1.516-1.517v0zM10.172 30.652c-0.001 0-0.003 0-0.005 0-1.071 0-1.939-0.868-1.939-1.939s0.868-1.939 1.939-1.939c1.071 0 1.939 0.868 1.939 1.939 0 0.002 0 0.003 0 0.005v0c-0.003 1.067-0.867 1.931-1.934 1.934v0zM10.172 27.761c-0.001 0-0.003 0-0.005 0-0.529 0-0.957 0.428-0.957 0.957s0.428 0.957 0.957 0.957c0.529 0 0.957-0.428 0.957-0.957v0c0 0 0 0 0 0 0-0.527-0.426-0.954-0.952-0.957v0z"></path>
<path d="M10.898 22.833v1.306c0 1.664 1.349 3.014 3.014 3.014v0h14.273c1.664 0 3.014-1.349 3.014-3.014v0-8.923c-0.003-1.662-1.351-3.009-3.014-3.009 0 0 0 0 0 0h-14.273c0 0 0 0 0 0-1.663 0-3.011 1.346-3.014 3.008v7.618zM11.88 15.711h18.342v1.796h-18.342zM30.148 14.725h-18.2c0.227-0.889 1.019-1.537 1.963-1.541h14.274c0.944 0.004 1.736 0.652 1.96 1.527l0.003 0.014zM28.185 26.171h-14.273c-1.122 0-2.032-0.91-2.032-2.032v0-5.654h18.342v5.654c0 0 0 0 0 0 0 1.122-0.91 2.032-2.032 2.032-0.002 0-0.003 0-0.005 0v0z"></path>
<path d="M27.488 19.721c-0.044-0.017-0.094-0.026-0.147-0.026-0.14 0-0.265 0.068-0.343 0.172l-0.001 0.001-2.174 2.881c-0.053 0.070-0.085 0.159-0.085 0.255 0 0.235 0.189 0.425 0.423 0.427h1.747v0.864c0 0.234 0.19 0.425 0.425 0.425s0.425-0.19 0.425-0.425v0-0.869h0.191c0.234 0 0.425-0.19 0.425-0.425s-0.19-0.425-0.425-0.425v0h-0.191v-2.454c0-0.003 0-0.006 0-0.009 0-0.178-0.111-0.331-0.267-0.393l-0.003-0.001zM26.929 22.578h-0.893l0.898-1.188z"></path>
<path d="M20.98 24.050c-0.080 0.077-0.13 0.185-0.13 0.304 0 0.233 0.189 0.422 0.422 0.422 0.002 0 0.005 0 0.007 0h2.513c0.234 0 0.425-0.19 0.425-0.425s-0.19-0.425-0.425-0.425v0h-1.497l1.369-1.35c0.306-0.306 0.496-0.73 0.496-1.198 0-0.935-0.758-1.694-1.694-1.694-0.468 0-0.891 0.19-1.198 0.496v0l-0.221 0.221c-0.077 0.077-0.124 0.182-0.124 0.299 0 0.234 0.19 0.423 0.423 0.423 0.117 0 0.223-0.047 0.299-0.124l0.221-0.221c0.155-0.169 0.377-0.275 0.623-0.275 0.466 0 0.844 0.378 0.844 0.844 0 0.246-0.106 0.468-0.274 0.623l-0.001 0.001z"></path>
</svg>
