<!-- Generated by IcoMoon.io -->
<svg version="1.1" xmlns="http://www.w3.org/2000/svg" width="32" height="32" viewBox="0 0 32 32">
<title>3</title>
<path d="M19.93 31.903h-13.949c-1.38-0.003-2.498-1.122-2.498-2.503 0-0.003 0-0.007 0-0.010v0.001-26.892c0.003-1.379 1.12-2.495 2.498-2.498h13.949c1.379 0.003 2.495 1.12 2.498 2.498v14.597h-3.127v-13.365h-12.693v21.557h8.8l0.147 0.216 3.436 2.552c0.010 0.003 0.022 0.005 0.034 0.005s0.024-0.002 0.035-0.006h0.048c0.037-0.018 0.062-0.055 0.064-0.098v-1.203h3.254v2.636c0 0.003 0 0.006 0 0.010 0 1.381-1.118 2.5-2.498 2.503v0zM5.981 0.982c-0.838 0-1.517 0.679-1.517 1.517v0 26.892c0 0.004 0 0.010 0 0.015 0 0.838 0.679 1.517 1.517 1.517 0 0 0 0 0 0h13.949c0.837-0.003 1.514-0.68 1.517-1.516v-1.669h-1.306v0.241c0 0.002 0 0.004 0 0.006 0 0.425-0.243 0.793-0.598 0.972l-0.006 0.003c-0.143 0.072-0.312 0.114-0.49 0.114-0.246 0-0.473-0.079-0.657-0.214l0.003 0.002-3.47-2.572h-9.296v-23.54h14.656v13.365h1.163v-13.615c-0.003-0.837-0.68-1.514-1.516-1.517v0zM12.955 30.657c-1.071 0-1.939-0.868-1.939-1.939s0.868-1.939 1.939-1.939c1.071 0 1.939 0.868 1.939 1.939v0c0 1.071-0.868 1.939-1.939 1.939v0zM12.955 27.766c-0.529 0-0.957 0.428-0.957 0.957s0.428 0.957 0.957 0.957c0.529 0 0.957-0.428 0.957-0.957v0c0-0.001 0-0.003 0-0.005 0-0.529-0.428-0.957-0.957-0.957 0 0 0 0 0 0v0z"></path>
<path d="M22.428 24.134h-3.127v-4.417h3.127zM20.283 23.152h1.163v-2.454h-1.163z"></path>
<path d="M19.046 29.057c-0.001 0-0.002 0-0.003 0-0.245 0-0.471-0.081-0.652-0.218l0.003 0.002-3.401-2.518c-0.269-0.202-0.442-0.52-0.442-0.879s0.172-0.677 0.439-0.877l0.003-0.002 3.401-2.523c0.181-0.132 0.408-0.212 0.653-0.212 0.178 0 0.347 0.042 0.497 0.116l-0.006-0.003c0.358 0.183 0.599 0.55 0.599 0.973 0 0.003 0 0.006 0 0.009v0 0.231h6.847c0.601 0.003 1.087 0.489 1.090 1.089v2.395c0 0.605-0.49 1.095-1.095 1.095v0h-6.837v0.241c0 0.605-0.49 1.095-1.095 1.095v0zM19.046 22.808c-0.010-0.003-0.022-0.005-0.034-0.005s-0.024 0.002-0.035 0.006h0.001l-3.401 2.523c-0.027 0.021-0.044 0.052-0.044 0.088v0c0.001 0.038 0.020 0.072 0.049 0.093v0l3.401 2.518c0.010 0.003 0.022 0.005 0.034 0.005s0.024-0.002 0.035-0.006h0.048c0.037-0.018 0.062-0.055 0.064-0.098v-1.178h7.819c0.062 0 0.113-0.051 0.113-0.113v0-2.395c0-0.062-0.051-0.113-0.113-0.113v0h-7.824v-1.212c-0.001-0.043-0.027-0.080-0.063-0.098h-0.001z"></path>
<path d="M23.577 22.018c-0.605 0-1.095-0.49-1.095-1.095v0-0.231h-6.837c-0.604 0-1.095-0.49-1.095-1.095v0-2.39c0-0.605 0.49-1.095 1.095-1.095v0h6.837v-0.231c0-0.002 0-0.004 0-0.006 0-0.425 0.243-0.793 0.598-0.972l0.006-0.003c0.143-0.072 0.312-0.114 0.49-0.114 0.246 0 0.473 0.079 0.657 0.214l-0.003-0.002 3.401 2.523c0.269 0.202 0.442 0.52 0.442 0.879s-0.172 0.677-0.439 0.877l-0.003 0.002-3.401 2.523c-0.179 0.135-0.405 0.216-0.65 0.216-0.001 0-0.002 0-0.003 0v0zM15.645 17.11c-0.062 0-0.113 0.051-0.113 0.113v0 2.395c0 0.062 0.051 0.113 0.113 0.113v0h7.819v1.212c0.001 0.043 0.027 0.080 0.063 0.098h0.001c0.016 0.012 0.037 0.020 0.059 0.020s0.043-0.007 0.059-0.020l3.396-2.547c0.028-0.021 0.046-0.054 0.046-0.091s-0.018-0.070-0.046-0.091v0l-3.401-2.518c-0.016-0.012-0.037-0.020-0.059-0.020s-0.043 0.007-0.059 0.020v0c-0.038 0.019-0.064 0.057-0.064 0.102 0 0.001 0 0.001 0 0.001v0 1.212z"></path>
</svg>
