<!-- Generated by IcoMoon.io -->
<svg version="1.1" xmlns="http://www.w3.org/2000/svg" width="32" height="32" viewBox="0 0 32 32">
<title>4</title>
<path d="M22.085 11.865c-0.641-0.657-1.533-1.067-2.52-1.075h-7.243c-1.969 0.006-3.563 1.601-3.57 3.569v11.043c0.006 1.969 1.601 3.564 3.569 3.57h7.258c1.969-0.006 3.564-1.601 3.57-3.569v-11.016c-0.006-0.987-0.412-1.879-1.064-2.521v0zM21.284 12.666c0.441 0.44 0.715 1.048 0.715 1.72v3.129h-1.973v-0.806c0-0.003 0-0.007 0-0.011 0-0.315-0.255-0.57-0.57-0.57 0 0 0 0 0 0h-2.688v-4.177h2.806c0.668 0.003 1.272 0.276 1.709 0.715v0zM18.235 22.504h-5.258v-5.22h5.913v5.22zM9.87 14.386c0.006-1.346 1.099-2.435 2.446-2.435 0.002 0 0.004 0 0.006 0h3.317v4.177h-3.226c-0.315 0-0.57 0.255-0.57 0.57v0 2.521h-1.973zM10.585 27.121c-0.441-0.44-0.715-1.048-0.715-1.72v-5.027h1.978v2.688c0 0.006 0 0.014 0 0.022 0 0.313 0.252 0.567 0.565 0.57h0.538v4.199h-0.629c-0.68 0-1.295-0.28-1.736-0.731v0zM17.574 27.836h-3.494v-4.182h3.494zM21.999 25.401c-0.006 1.343-1.093 2.429-2.435 2.435h-0.753v-4.182h0.645c0.312 0 0.564-0.253 0.564-0.564v0-4.435h1.978z"></path>
<path d="M23.111 32.255h-14.553c-1.781 0-3.226-1.444-3.226-3.226v0-21.81c-0.011-0.070-0.017-0.151-0.017-0.234 0-0.496 0.23-0.939 0.59-1.226l0.003-0.002 5.269-5.274c0.133-0.156 0.296-0.281 0.481-0.367l0.009-0.004c0.169-0.073 0.366-0.115 0.572-0.115 0.029 0 0.059 0.001 0.088 0.003h10.748c0.888 0.002 1.692 0.363 2.274 0.946v0c0.598 0.578 0.972 1.384 0.984 2.277v25.806c0 1.781-1.444 3.226-3.226 3.226v0zM12.295 1.075c-0.145 0-0.161 0-0.194 0s-0.038 0-0.151 0.134l-0.134 0.14-5.166 5.177c-0.242 0.231-0.242 0.231-0.242 0.694v21.81c0 1.188 0.963 2.15 2.15 2.15v0h14.553c1.188 0 2.15-0.963 2.15-2.15v0-25.804c0-0.002 0-0.005 0-0.007 0-0.593-0.24-1.131-0.629-1.52v0c-0.389-0.385-0.924-0.624-1.514-0.624-0.003 0-0.005 0-0.007 0h-10.816z"></path>
</svg>
