<!-- Generated by IcoMoon.io -->
<svg version="1.1" xmlns="http://www.w3.org/2000/svg" width="32" height="32" viewBox="0 0 32 32">
<title>5</title>
<path d="M0.558 31.439v-4.842h3.232v-17.363h3.098v-3.831h-3.098v-4.847h16.658v4.342h3.098v4.847h-3.093v2.471c-0.019 0.124-0.125 0.218-0.253 0.218s-0.234-0.094-0.252-0.216v-2.477h-15.653v3.837h12.027c0.124 0.019 0.218 0.125 0.218 0.253s-0.094 0.234-0.216 0.252h-12.028v3.837h8.529c0.011-0.002 0.024-0.003 0.038-0.003 0.141 0 0.255 0.114 0.255 0.255s-0.114 0.255-0.255 0.255c-0.013 0-0.026-0.001-0.039-0.003h-8.528v3.837h7.274c0.124 0.019 0.218 0.125 0.218 0.253s-0.094 0.234-0.216 0.252h-7.275v3.831h7.707c0.011-0.002 0.024-0.003 0.038-0.003 0.141 0 0.255 0.114 0.255 0.255s-0.114 0.255-0.255 0.255c-0.013 0-0.026-0.001-0.039-0.003h-10.938v3.837h18.701l-1.438-1.016c-2.151-1.527-3.538-4.008-3.538-6.813 0-4.6 3.729-8.329 8.329-8.329s8.329 3.729 8.329 8.329c0 4.6-3.729 8.329-8.329 8.329-0.004 0-0.007 0-0.011 0h-0.344zM23.113 15.281c-4.324 0-7.829 3.505-7.829 7.829s3.505 7.829 7.829 7.829c4.324 0 7.829-3.505 7.829-7.829v0c-0.003-4.323-3.507-7.826-7.829-7.829v0zM7.393 9.234h15.659v-3.831h-15.659zM4.295 4.897h15.653v-3.837h-15.653z"></path>
<path d="M22.769 32h-22.766v-5.958h3.232v-17.363h3.098v-2.721h-3.098v-5.958h17.769v4.342h3.098v5.952h-3.093v1.921c-0.036 0.418-0.384 0.744-0.808 0.744s-0.772-0.326-0.808-0.741v-1.924h-14.542v2.726h11.472c0.418 0.036 0.744 0.384 0.744 0.808s-0.326 0.772-0.741 0.808h-11.475v2.726h7.974c0.020-0.002 0.043-0.003 0.067-0.003 0.448 0 0.811 0.363 0.811 0.811s-0.363 0.811-0.811 0.811c-0.024 0-0.047-0.001-0.070-0.003h-7.971v2.726h6.719c0.418 0.036 0.744 0.384 0.744 0.808s-0.326 0.772-0.741 0.808h-6.722v2.721h7.152c0.020-0.002 0.043-0.003 0.067-0.003 0.448 0 0.811 0.363 0.811 0.811s-0.363 0.811-0.811 0.811c-0.024 0-0.047-0.001-0.070-0.003h-10.38v2.726h16.391c-2.296-1.628-3.775-4.276-3.775-7.268 0-4.907 3.978-8.884 8.884-8.884s8.884 3.978 8.884 8.884c0 4.907-3.978 8.884-8.884 8.884-0.002 0-0.004 0-0.006 0h-0.344zM23.085 15.836c-4.017 0-7.274 3.257-7.274 7.274s3.257 7.274 7.274 7.274c4.017 0 7.274-3.257 7.274-7.274v0c-0.003-4.006-3.242-7.255-7.244-7.274h-0.002zM7.949 8.679h14.548v-2.721h-14.548zM4.85 4.342h14.542v-2.726h-14.542z"></path>
<path d="M21.658 19.134h3.332v0.627h-2.854l-0.461 2.776c0.312-0.436 0.816-0.717 1.387-0.717 0.020 0 0.040 0 0.060 0.001h-0.003c0.019-0.001 0.041-0.001 0.063-0.001 0.598 0 1.134 0.266 1.495 0.687l0.002 0.003c0.413 0.506 0.664 1.158 0.664 1.87 0 0.047-0.001 0.095-0.003 0.141v-0.007c0.002 0.039 0.003 0.084 0.003 0.129 0 0.786-0.287 1.504-0.761 2.057l0.004-0.004c-0.383 0.432-0.94 0.702-1.559 0.702-0.037 0-0.075-0.001-0.112-0.003h0.005c-0.030 0.002-0.066 0.003-0.102 0.003-0.629 0-1.191-0.287-1.561-0.738l-0.003-0.003c-0.291-0.385-0.466-0.872-0.466-1.399v0h0.65c0.016 0.366 0.138 0.701 0.337 0.977l-0.004-0.005c0.262 0.34 0.67 0.557 1.129 0.557 0.027 0 0.053-0.001 0.080-0.002h-0.004c0.006 0 0.013 0 0.020 0 0.474 0 0.894-0.235 1.148-0.595l0.003-0.004c0.307-0.427 0.49-0.961 0.49-1.537 0-0.032-0.001-0.063-0.002-0.095v0.005c0.002-0.033 0.002-0.073 0.002-0.112 0-0.535-0.165-1.031-0.447-1.44l0.006 0.009c-0.262-0.363-0.684-0.596-1.16-0.596-0.024 0-0.047 0.001-0.071 0.002h0.003c-0.631 0.012-1.17 0.392-1.412 0.934l-0.004 0.010-0.555-0.089z"></path>
<path d="M22.941 27.674c-0.036 0.002-0.077 0.003-0.119 0.003-0.716 0-1.356-0.328-1.777-0.843l-0.003-0.004c-0.335-0.427-0.542-0.968-0.555-1.557v-0.292h1.199v0.255c0.012 0.311 0.114 0.596 0.281 0.832l-0.003-0.005c0.212 0.279 0.544 0.457 0.918 0.457 0.023 0 0.046-0.001 0.068-0.002h-0.003c0.009 0 0.019 0 0.029 0 0.381 0 0.718-0.192 0.918-0.485l0.002-0.004c0.269-0.381 0.429-0.856 0.429-1.368 0-0.033-0.001-0.065-0.002-0.097v0.005c0.002-0.032 0.003-0.070 0.003-0.108 0-0.473-0.144-0.913-0.391-1.278l0.005 0.008c-0.212-0.292-0.553-0.48-0.937-0.48-0.024 0-0.048 0.001-0.071 0.002h0.003c-0.525 0.015-0.972 0.336-1.168 0.791l-0.003 0.009-0.094 0.172-0.466-0.072-0.028 0.039v-0.056l-0.555-0.083 0.772-4.636h3.887v1.183h-2.91l-0.294 1.766c0.29-0.164 0.636-0.261 1.006-0.261 0.013 0 0.027 0 0.040 0h-0.002c0.021-0.001 0.047-0.001 0.072-0.001 0.677 0 1.284 0.303 1.691 0.781l0.003 0.003c0.455 0.554 0.73 1.27 0.73 2.050 0 0.048-0.001 0.097-0.003 0.144v-0.007c0.002 0.039 0.002 0.084 0.002 0.13 0 0.855-0.312 1.638-0.828 2.24l0.004-0.005c-0.432 0.476-1.054 0.774-1.745 0.774-0.037 0-0.073-0.001-0.109-0.002h0.005zM21.103 25.542c0.043 0.362 0.181 0.686 0.387 0.954l-0.003-0.005c0.322 0.39 0.806 0.637 1.347 0.637 0.042 0 0.083-0.001 0.124-0.004h-0.006c0.025 0.001 0.055 0.002 0.085 0.002 0.536 0 1.016-0.234 1.346-0.605l0.002-0.002c0.427-0.498 0.686-1.15 0.686-1.863 0-0.048-0.001-0.096-0.003-0.143v0.007c0.002-0.039 0.003-0.085 0.003-0.131 0-0.642-0.223-1.231-0.596-1.695l0.004 0.005c-0.308-0.362-0.763-0.59-1.272-0.59-0.027 0-0.054 0.001-0.081 0.002h0.004c-0.199 0-0.39 0.037-0.566 0.104l0.011-0.004c0.127-0.032 0.272-0.050 0.422-0.050 0.004 0 0.008 0 0.012 0h-0.001c0.017-0.001 0.037-0.001 0.056-0.001 0.561 0 1.058 0.272 1.367 0.69l0.003 0.005c0.311 0.447 0.496 1.001 0.496 1.598 0 0.038-0.001 0.075-0.002 0.112v-0.005c0.001 0.022 0.001 0.048 0.001 0.074 0 0.646-0.209 1.243-0.562 1.728l0.006-0.008c-0.305 0.432-0.802 0.711-1.365 0.711-0.010 0-0.020 0-0.030 0h0.002c-0.026 0.002-0.057 0.002-0.088 0.002-0.547 0-1.032-0.263-1.335-0.67l-0.003-0.004c-0.177-0.238-0.303-0.526-0.354-0.838l-0.002-0.011zM21.88 19.434l-0.555 3.543 0.555-3.47h2.821v-0.072z"></path>
</svg>
