<!-- Generated by IcoMoon.io -->
<svg version="1.1" xmlns="http://www.w3.org/2000/svg" width="21" height="32" viewBox="0 0 21 32">
<title>A5</title>
<path d="M20.789 3.49v25.244c-0.023 1.032-0.691 1.901-1.617 2.222l-0.017 0.005c-2.227 0.683-6.793 1.032-9.132 1.039-2.98-0-5.871-0.38-8.629-1.092l0.239 0.052c-0.942-0.326-1.611-1.196-1.633-2.225l-0-0.003v-25.244s0-1.93 1.633-2.45c2.517-0.654 5.408-1.033 8.386-1.039h0.004c2.339 0 6.89 0.371 9.132 1.039 0.961 0.419 1.622 1.356 1.633 2.449v0.001zM2.227 5.197h16.334v-1.663c0-0.052-0.045-0.334-0.148-0.393-2.509-0.556-5.4-0.887-8.363-0.913l-0.019-0c-2.736 0.009-5.39 0.347-7.928 0.976l0.229-0.048c-0.046 0.097-0.082 0.209-0.103 0.326l-0.001 0.008zM2.227 6.682v17.819h16.334v-17.819zM18.561 28.674v-2.688h-16.334v2.695c0.007 0.058 0.023 0.111 0.046 0.159l-0.001-0.003c2.313 0.594 4.968 0.936 7.704 0.936 0.004 0 0.007 0 0.011 0h-0.001c2.109 0 6.43-0.327 8.449-0.936h0.052c0.027-0.046 0.052-0.1 0.072-0.157l0.002-0.007zM10.617 26.729h-1.188c-0.005-0-0.010-0-0.015-0-0.274 0-0.497 0.218-0.505 0.489l-0 0.001v1.188c-0 0.005-0 0.010-0 0.015 0 0.274 0.218 0.497 0.489 0.505l0.001 0h1.218c0.005 0 0.010 0 0.015 0 0.274 0 0.497-0.218 0.505-0.489l0-0.001v-1.188c0-0.005 0-0.010 0-0.015 0-0.274-0.218-0.497-0.489-0.505l-0.001-0z"></path>
<path d="M7.239 11.835h1.485l2.116 6.682h-1.485l-0.416-1.485h-1.93l-0.423 1.485h-1.485zM7.321 15.948h1.299l-0.646-2.309z"></path>
<path d="M11.686 11.835h3.245v1.166h-2.227l-0.208 1.381c0.255-0.213 0.586-0.342 0.947-0.342 0.004 0 0.007 0 0.011 0h-0.001c0.017-0.001 0.037-0.001 0.058-0.001 0.48 0 0.914 0.196 1.226 0.513l0 0c0.358 0.394 0.576 0.919 0.576 1.495 0 0.051-0.002 0.102-0.005 0.152l0-0.007c0.001 0.032 0.002 0.069 0.002 0.106 0 0.675-0.264 1.289-0.694 1.744l0.001-0.001c-0.371 0.385-0.891 0.624-1.467 0.624-0.020 0-0.039-0-0.058-0.001l0.003 0c-0.010 0-0.022 0-0.034 0-0.393 0-0.765-0.093-1.094-0.259l0.014 0.006c-0.572-0.286-0.958-0.867-0.958-1.539 0-0.010 0-0.019 0-0.029l-0 0.001h1.322c0.012 0.144 0.055 0.275 0.121 0.391l-0.002-0.005c0.123 0.202 0.342 0.335 0.592 0.335 0.011 0 0.022-0 0.033-0.001l-0.002 0c0.004 0 0.009 0 0.013 0 0.3 0 0.558-0.178 0.675-0.434l0.002-0.005c0.113-0.226 0.179-0.493 0.179-0.774 0-0.015-0-0.030-0.001-0.045l0 0.002c0.001-0.018 0.001-0.040 0.001-0.061 0-0.293-0.066-0.571-0.184-0.819l0.005 0.012c-0.127-0.237-0.373-0.396-0.656-0.396-0.194 0-0.37 0.074-0.502 0.196l0.001-0c-0.085 0.097-0.159 0.207-0.219 0.325l-0.004 0.009h-1.173z"></path>
</svg>
