<!-- Generated by IcoMoon.io -->
<svg version="1.1" xmlns="http://www.w3.org/2000/svg" width="32" height="32" viewBox="0 0 32 32">
<title>Abonamanet</title>
<path d="M15.922 23.5c0.469 0.341 1.057 0.547 1.692 0.547 0.068 0 0.136-0.003 0.204-0.007l-0.009 0.001c0.030 0.001 0.066 0.002 0.101 0.002 0.897 0 1.711-0.356 2.309-0.933l-0.001 0.001c0.597-0.614 0.966-1.454 0.966-2.38 0-0.040-0.001-0.079-0.002-0.119v0.005c0.002-0.040 0.003-0.086 0.003-0.132 0-0.677-0.22-1.304-0.59-1.812l0.006 0.009c-0.285-0.382-0.676-0.671-1.13-0.826l-0.017-0.005c0.798-0.404 1.335-1.218 1.335-2.157 0-0.092-0.005-0.183-0.015-0.272l0.001 0.011c0.002-0.036 0.003-0.077 0.003-0.119 0-0.766-0.295-1.464-0.777-1.986l0.002 0.002c-0.522-0.516-1.24-0.836-2.033-0.836-0.057 0-0.113 0.002-0.168 0.004h0.008c-0.051-0.004-0.109-0.005-0.169-0.005-0.979 0-1.836 0.516-2.317 1.29l-0.007 0.012c-0.34 0.567-0.54 1.251-0.54 1.982 0 0.004 0 0.009 0 0.013v-0.001h1.596q0.058-1.804 1.372-1.804c0.007 0 0.015 0 0.023 0 0.307 0 0.588 0.107 0.811 0.284l-0.003-0.002c0.333 0.305 0.541 0.742 0.541 1.228 0 0.024-0.001 0.048-0.002 0.072v-0.004c0 0.003 0 0.006 0 0.009 0 0.261-0.045 0.513-0.13 0.746l0.004-0.015c-0.103 0.32-0.319 0.58-0.6 0.736l-0.006 0.004c-0.31 0.115-0.668 0.181-1.043 0.181-0.072 0-0.143-0.003-0.213-0.007l0.010 0.001v1.363h0.507c0.035-0.003 0.076-0.004 0.116-0.004 0.429 0 0.82 0.163 1.115 0.429l-0.002-0.001c0.319 0.368 0.514 0.851 0.514 1.38 0 0.059-0.003 0.116-0.007 0.173l0.001-0.007c0.005 0.057 0.008 0.124 0.008 0.19 0 0.473-0.149 0.912-0.404 1.271l0.004-0.007c-0.264 0.311-0.655 0.508-1.092 0.508-0.019 0-0.038 0-0.057-0.001h0.003c-0.038 0.004-0.082 0.006-0.127 0.006-0.548 0-1.021-0.322-1.241-0.787l-0.004-0.008c-0.142-0.352-0.225-0.76-0.225-1.188 0-0.020 0-0.041 0.001-0.061v0.003h-0.457c0.148 0.553 0.232 1.188 0.232 1.842 0 0.409-0.033 0.81-0.097 1.201l0.005-0.043z"></path>
<path d="M10.678 8.858h-1.537v5.717c0.57 0.073 1.084 0.196 1.575 0.365l-0.055-0.017z"></path>
<path d="M31.411 1.778h-21.24c-0.005 0-0.011 0-0.017 0-0.56 0-1.014 0.454-1.014 1.014 0 0 0 0 0 0v0 5.052h23.268v-5.052c0 0 0 0 0 0 0-0.554-0.444-1.004-0.996-1.013h-0.001zM30.904 6.332h-20.226v-3.033h20.226z"></path>
<path d="M8.617 30.106h22.794c0.553-0.010 0.997-0.46 0.997-1.013 0 0 0 0 0 0v0-20.235h-1.504v19.727h-17.957z"></path>
<path d="M26.159 23.874v-11.060h-1.28c-0.067 0.541-0.262 1.027-0.555 1.439l0.006-0.010c-0.397 0.392-0.944 0.635-1.547 0.635-0.041 0-0.081-0.001-0.121-0.004h0.005v1.371c0.039 0.001 0.085 0.002 0.132 0.002 0.312 0 0.617-0.031 0.912-0.090l-0.029 0.005c0.319-0.084 0.597-0.227 0.836-0.419l-0.004 0.004v8.127z"></path>
<path d="M8.227 30.14c-4.543 0-8.227-3.684-8.227-8.227s3.684-8.227 8.227-8.227c4.543 0 8.227 3.684 8.227 8.227v0c-0.010 4.54-3.687 8.217-8.226 8.227h-0.001zM8.227 14.891c-0.003 0-0.005 0-0.008 0-3.878 0-7.021 3.144-7.021 7.021s3.144 7.021 7.021 7.021c3.878 0 7.021-3.144 7.021-7.021v0c0-3.876-3.139-7.017-7.013-7.021h-0.001z"></path>
<path d="M4.088 24.413v-1.030l2.559-3.648h-2.377v-1.047h3.872v0.931l-2.601 3.764h2.676v1.064z"></path>
<path d="M8.376 22.793v-0.98l0.44-0.332v-2.792h1.23v1.961l0.831-0.59v0.98l-0.831 0.59v1.754h2.252v1.064h-3.482v-1.978z"></path>
</svg>
