<svg xmlns="http://www.w3.org/2000/svg" width="48.47" height="46.31" viewBox="0 0 48.47 46.31"><title>Asset 2</title><g id="Layer_2" data-name="Layer 2"><g id="Layer_1-2" data-name="Layer 1"><path d="M40.75,16.66H22.88a1.63,1.63,0,0,0-1.62,1.63V31.49h1.63v-.4h4.88v7.69H22.88v-.43H21.25v.43a1.63,1.63,0,0,0,1.63,1.63H40.75a1.63,1.63,0,0,0,1.63-1.62V18.28A1.63,1.63,0,0,0,40.75,16.66ZM28.56,18.28h6.5V24h-6.5Zm-5.69,0h4.88V24H22.88Zm12.19,20.5h-6.5V31.09h6.5Zm5.69,0H35.88v-8.5h-13v-5.5H40.75Zm0-14.81H35.88V18.28h4.88Z"/><path d="M41.16,39.19V24.38h0v-6.5h-13v0H22.47V30.69h0v.81h4.89v6.86h0v0H23.28v0h-.81v.83Zm-4.87-20.5h4.06v4.88H36.28Zm-7.31,0h5.69v4.88H29Zm-5.69,0h4.06v4.88H23.28Zm0,11.19V25.19H40.34V38.37H36.28v-8.5ZM29,31.5h5.69v6.88H29Z"/><path d="M40.75,16.25H22.88a2,2,0,0,0-2,2V31.49h.81V18.28a1.22,1.22,0,0,1,1.22-1.22H40.75A1.22,1.22,0,0,1,42,18.28v20.5A1.22,1.22,0,0,1,40.75,40H22.88a1.22,1.22,0,0,1-1.22-1.22v-.43h-.81v.43a2,2,0,0,0,2,2H40.75a2,2,0,0,0,2-2V18.28A2,2,0,0,0,40.75,16.25Z"/><path d="M38.31.41H17.19A1.63,1.63,0,0,0,15.56,2V31.49H18V2.84H37.26l8.36,8.36V43.47H18V38.36H15.56v5.93a1.63,1.63,0,0,0,1.63,1.63H46.44a1.63,1.63,0,0,0,1.63-1.62V10.16Z"/><polygon points="46.03 43.88 46.03 11.04 37.43 2.44 17.59 2.44 17.59 31.49 18.41 31.49 18.41 3.25 37.1 3.25 45.22 11.37 45.22 43.06 18.41 43.06 18.41 38.36 17.59 38.36 17.59 43.88 46.03 43.88"/><path d="M38.48,0H17.19a2,2,0,0,0-2,2V31.49H16V2A1.22,1.22,0,0,1,17.19.81h21l9.51,9.51v34a1.22,1.22,0,0,1-1.22,1.22H17.19A1.22,1.22,0,0,1,16,44.28V38.36h-.81v5.93a2,2,0,0,0,2,2H46.44a2,2,0,0,0,2-2V10Z"/><path d="M0,33.93H10.61v-10h2.51v10H23.73v2.34H13.12v10H10.61v-10H0Z"/></g></g></svg>