<svg xmlns="http://www.w3.org/2000/svg" width="68.17" height="65.89" viewBox="0 0 68.17 65.89"><defs><style>.cls-1{fill:none;}</style></defs><title>Asset 3</title><g id="Layer_2" data-name="Layer 2"><g id="Layer_1-2" data-name="Layer 1"><g id="Layer_2-2" data-name="Layer 2"><g id="Layer_1-2-2" data-name="Layer 1-2"><polygon class="cls-1" points="68.17 0 10 0 10 13.39 54.08 13.39 54.08 58.17 68.17 58.17 68.17 0"/><polygon class="cls-1" points="10 13.39 0 58.17 44.08 58.17 54.08 13.39 10 13.39"/><path d="M60.9,5.45H17.27a1.82,1.82,0,0,0-1.82,1.82v6.12h2.73V8.18H60V50H54.08v2.73H60.9a1.82,1.82,0,0,0,1.82-1.82V7.27A1.82,1.82,0,0,0,60.9,5.45Z"/><polygon class="cls-1" points="59.42 7.73 1.25 7.73 1.25 21.11 35.33 21.11 35.33 65.89 59.42 65.89 59.42 7.73"/><rect class="cls-1" x="1.25" y="21.11" width="34.08" height="44.78"/><path d="M52.38,13.18H8.75A1.82,1.82,0,0,0,6.93,15v6.12H9.66V15.91H51.47v41.8H8.88l-.13,2.73H52.38a1.82,1.82,0,0,0,1.82-1.82V15A1.82,1.82,0,0,0,52.38,13.18Z"/><path d="M9.66,57.71V21.11H6.93V58.62a1.82,1.82,0,0,0,1.82,1.82"/><path d="M38.51,35.28,24.16,27a1.72,1.72,0,0,0-2.59,1.49V45.06a1.72,1.72,0,0,0,2.59,1.49l14.36-8.29a1.72,1.72,0,0,0,0-3Z"/></g></g></g></g></svg>