<!-- Generated by IcoMoon.io -->
<svg version="1.1" xmlns="http://www.w3.org/2000/svg" width="33" height="32" viewBox="0 0 33 32">
<title>Asset-3</title>
<path d="M29.577 2.647h-21.189c-0.488 0-0.884 0.396-0.884 0.884v0 2.972h1.326v-2.53h20.31v20.31h-2.875v1.326h3.312c0.488 0 0.884-0.396 0.884-0.884v0-21.194c0-0.488-0.396-0.884-0.884-0.884v0z"></path>
<path d="M25.439 6.401h-21.189c-0.488 0-0.884 0.396-0.884 0.884v0 2.972h1.326v-2.53h20.305v20.3h-20.684l-0.063 1.326h21.189c0.488 0 0.884-0.396 0.884-0.884v0-21.184c0-0.488-0.396-0.884-0.884-0.884v0z"></path>
<path d="M4.691 28.027v-17.775h-1.326v18.217c0 0.488 0.396 0.884 0.884 0.884v0z"></path>
<path d="M18.703 17.134l-6.969-4.021c-0.121-0.072-0.267-0.115-0.423-0.115-0.461 0-0.835 0.374-0.835 0.835 0 0.001 0 0.002 0 0.003v-0 8.047c0 0.001 0 0.002 0 0.003 0 0.461 0.374 0.835 0.835 0.835 0.156 0 0.302-0.043 0.426-0.117l-0.004 0.002 6.974-4.026c0.256-0.146 0.427-0.417 0.427-0.729s-0.17-0.583-0.422-0.726l-0.004-0.002z"></path>
</svg>
