<!-- Generated by IcoMoon.io -->
<svg version="1.1" xmlns="http://www.w3.org/2000/svg" width="55" height="32" viewBox="0 0 55 32">
<title>basket-empty</title>
<path fill="#e20074" d="M32.657 29.329c0 1.475-1.196 2.671-2.671 2.671s-2.671-1.196-2.671-2.671c0-1.475 1.196-2.671 2.671-2.671 0.004 0 0.008 0 0.011 0h-0.001c0 0 0 0 0 0 1.469 0 2.66 1.191 2.66 2.66 0 0.004 0 0.007-0 0.011v-0.001zM15.332 26.658c-0.003 0-0.007-0-0.011-0-1.475 0-2.671 1.196-2.671 2.671s1.196 2.671 2.671 2.671c1.475 0 2.671-1.196 2.671-2.671v0c0 0 0 0 0-0 0-1.471-1.19-2.665-2.66-2.671h-0.001zM39.319 4.661l-2.841 12.664c-0.186 0.751-0.838 1.304-1.624 1.341l-0.004 0h-21.837l0.67 4.193c0.066 0.252 0.279 0.44 0.54 0.468l0.003 0h20.071c0.552 0 1 0.448 1 1s-0.448 1-1 1h-20.092c-1.255-0.016-2.295-0.92-2.52-2.112l-0.003-0.016-0.873-5.64c-0.002-0.026-0.004-0.055-0.004-0.085s0.001-0.060 0.004-0.089l-0 0.004-1.224-7.811-1.064-7.109c-0.060-0.256-0.277-0.446-0.541-0.468l-0.002-0h-6.97c-0.552 0-1-0.448-1-1s0.448-1 1-1v0h6.949c1.257 0.012 2.299 0.918 2.52 2.112l0.002 0.016 0.17 1.203h27.669c0.016-0.001 0.034-0.001 0.052-0.001 0.558 0 1.011 0.453 1.011 1.011 0 0.115-0.019 0.225-0.054 0.328l0.002-0.007zM10.979 5.321l0.394 2.671h25.168l0.596-2.671zM17.365 9.322v7.332h5.991v-7.322zM24.697 16.654h5.959v-7.322h-5.991zM16.024 16.654v-7.322h-4.438l1.064 7.332zM36.19 9.333h-4.257v7.332h2.597z"></path>
<path fill="#fff" d="M54.324 19.677c0 6.189-5.017 11.206-11.206 11.206s-11.206-5.017-11.206-11.206c0-6.189 5.017-11.206 11.206-11.206s11.206 5.017 11.206 11.206z"></path>
<path fill="#e20074" d="M43.118 31.926c-6.772-0.006-12.259-5.497-12.259-12.27 0-6.777 5.493-12.27 12.27-12.27s12.27 5.493 12.27 12.27c0 0.008 0 0.015-0 0.022v-0.001c-0.024 6.766-5.512 12.243-12.28 12.249h-0.001zM43.118 9.578c-5.597 0.006-10.131 4.544-10.131 10.142 0 5.601 4.541 10.142 10.142 10.142s10.142-4.541 10.142-10.142v0c-0.012-5.6-4.552-10.136-10.152-10.142h-0.001z"></path>
<path fill="#e10274" d="M48.513 15.367l-1.075-1.075-4.31 4.31-4.321-4.31-1.075 1.075 4.31 4.31-4.31 4.31 1.075 1.085 4.321-4.321 4.31 4.321 1.075-1.085-4.31-4.31 4.31-4.31z"></path>
</svg>
