<!-- Generated by IcoMoon.io -->
<svg version="1.1" xmlns="http://www.w3.org/2000/svg" width="51" height="32" viewBox="0 0 51 32">
<title>1</title>
<path fill="#e20074" d="M13.287 8.858v7.378h-8.036l3.689-7.378zM15.065 26.574c0.001 0.027 0.001 0.059 0.001 0.092 0 2.974-2.411 5.385-5.385 5.385s-5.385-2.411-5.385-5.385c0-2.974 2.411-5.385 5.385-5.385 1.962 0 3.679 1.049 4.62 2.617l0.014 0.024c0.463 0.757 0.74 1.671 0.75 2.649l0 0.003zM12.403 26.574c0-1.47-1.192-2.662-2.662-2.662s-2.662 1.192-2.662 2.662c0 1.47 1.192 2.662 2.662 2.662v0c0.003 0 0.007 0 0.010 0 1.464 0 2.651-1.187 2.651-2.651 0-0.004 0-0.007-0-0.011v0.001zM16.288 23.923c0.336 0.783 0.533 1.694 0.534 2.651v0.001h15.034c0.011-0.959 0.21-1.869 0.562-2.698l-0.018 0.047zM44.29 26.574c0 0.020 0 0.044 0 0.068 0 2.963-2.402 5.364-5.364 5.364s-5.364-2.402-5.364-5.364c0-2.963 2.402-5.364 5.364-5.364 1.96 0 3.674 1.051 4.61 2.62l0.014 0.025c0.454 0.759 0.728 1.672 0.74 2.648l0 0.003zM41.639 26.574c0-1.47-1.192-2.662-2.662-2.662s-2.662 1.192-2.662 2.662c0 1.47 1.192 2.662 2.662 2.662v0c0.003 0 0.007 0 0.010 0 1.464 0 2.651-1.187 2.651-2.651 0-0.004 0-0.007-0-0.011v0.001zM51.381 1.901v22.762c0 1.027-0.833 1.86-1.86 1.86v0h-3.453c-0.003-0.957-0.199-1.868-0.552-2.697l0.017 0.045h3.186v-4.347h-33.654v-12.434h-7.193l-5.21 10.204v9.249h-0.802c-0 0-0 0-0 0-1.016 0-1.842-0.815-1.86-1.828l-0-0.002v-7.707c-0-0.005-0-0.010-0-0.016 0-0.232 0.061-0.45 0.168-0.638l-0.003 0.006 5.58-10.934c0.284-0.611 0.893-1.028 1.599-1.028 0.005 0 0.010 0 0.016 0h7.706v-2.497c0-1.050 0.851-1.901 1.901-1.901v0h32.524c1.043 0.012 1.885 0.857 1.891 1.901v0.001zM17.716 16.832h31.003v-14.171h-31.003z"></path>
</svg>
