<!-- Generated by IcoMoon.io -->
<svg version="1.1" xmlns="http://www.w3.org/2000/svg" width="42" height="32" viewBox="0 0 42 32">
<title>3</title>
<path fill="#e20074" d="M31.299 26.992v1.945c-0.012 0.149-0.127 0.268-0.274 0.284l-0.001 0h-0.835c-0.152-0.012-0.272-0.132-0.284-0.283l-0-0.001v-1.945c-0.617-0.283-1.039-0.893-1.043-1.602v-0.001c0.065-0.91 0.819-1.624 1.74-1.624s1.675 0.714 1.74 1.618l0 0.006c-0 0.711-0.424 1.323-1.032 1.598l-0.011 0.004zM21.559 25.114c-1.135 0.414-2.445 0.666-3.81 0.693l-0.012 0c-0.020 0-0.044 0-0.068 0-2.956 0-5.647-1.136-7.66-2.995l0.008 0.007-0.768-0.768-1.043 0.209c-0.308 0.076-0.665 0.127-1.032 0.142l-0.011 0c-0 0-0 0-0 0-2.751 0-4.984-2.218-5.008-4.964v-0.044c-0-0.009-0-0.019-0-0.029 0-2.42 1.717-4.439 3.999-4.906l0.032-0.005 1.394-0.275 0.209-1.461c0.364-2.245 2.275-3.943 4.587-3.973l0.003-0c0.015-0 0.034-0 0.052-0 0.531 0 1.039 0.104 1.502 0.294l-0.027-0.010 1.461 0.484 0.91-1.319c1.79-2.53 4.701-4.164 7.994-4.173h0.001c0.005 0 0.010 0 0.015 0 4.705 0 8.627 3.353 9.506 7.801l0.010 0.062 0.275 1.319 1.252 0.351c2.443 0.623 4.234 2.766 4.315 5.341l0 0.009c-0.010 1.082-0.319 2.089-0.849 2.946l0.014-0.025c0.59 0.366 0.978 1.010 0.978 1.744 0 0.024-0 0.047-0.001 0.070l0-0.003v0.275c1.199-1.326 1.932-3.092 1.932-5.029 0-2.215-0.959-4.207-2.484-5.582l-0.007-0.006c-0.91-0.837-2.038-1.452-3.288-1.751l-0.050-0.010c-1.142-5.46-5.904-9.506-11.615-9.532h-0.003c-0.023-0-0.051-0-0.078-0-3.969 0-7.472 1.994-9.562 5.036l-0.025 0.039c-0.605-0.219-1.302-0.345-2.030-0.345-0.070 0-0.14 0.001-0.209 0.003l0.010-0c-0.006-0-0.014-0-0.022-0-3.355 0-6.136 2.452-6.65 5.662l-0.005 0.038c-3.285 0.664-5.724 3.527-5.724 6.961 0 3.918 3.176 7.094 7.094 7.094 0.005 0 0.011 0 0.016-0h-0.001c0.528-0.015 1.031-0.066 1.524-0.151l-0.063 0.009c2.383 2.199 5.579 3.547 9.091 3.547 0.032 0 0.064-0 0.095-0l-0.005 0c1.365-0.007 2.679-0.211 3.92-0.584l-0.098 0.025zM37.559 20.866h-2.087v-2.779c-0.111-2.604-2.249-4.673-4.87-4.673s-4.759 2.069-4.87 4.663l-0 0.010v2.779h-2.087c-0.384 0.005-0.693 0.317-0.693 0.701 0 0 0 0 0 0v0 9.74c0 0.383 0.31 0.693 0.693 0.693v0h13.913c0.372-0.025 0.668-0.321 0.693-0.69l0-0.002v-9.74c0 0 0-0 0-0 0-0.384-0.309-0.696-0.692-0.701h-0zM27.126 18.087c-0.003-0.051-0.004-0.11-0.004-0.17 0-1.922 1.558-3.48 3.48-3.48s3.48 1.558 3.48 3.48c0 0.060-0.002 0.119-0.005 0.179l0-0.008v2.779h-6.953zM36.866 30.606h-12.52v-8.346h12.52z"></path>
</svg>
