<!-- Generated by IcoMoon.io -->
<svg version="1.1" xmlns="http://www.w3.org/2000/svg" width="29" height="32" viewBox="0 0 29 32">
<title>2</title>
<path fill="#e20074" d="M1.237 15.388c0.002 0 0.004 0 0.006 0 0.491 0 0.898-0.358 0.975-0.828l0.001-0.006c0.766-6.342 6.115-11.21 12.602-11.21 0.457 0 0.909 0.024 1.354 0.071l-0.055-0.005c2.405 0.27 4.554 1.193 6.316 2.584l-0.026-0.020-5.129 5.129h10.508v-10.508l-3.937 3.93c-2.471-1.998-5.651-3.207-9.114-3.207-4.017 0-7.654 1.627-10.287 4.259l0-0c-2.261 2.277-3.788 5.287-4.193 8.643l-0.007 0.071c-0.002 0.025-0.004 0.055-0.004 0.085 0 0.507 0.367 0.928 0.85 1.011l0.006 0.001h0.135zM28.307 15.849c-0.025-0.002-0.055-0.004-0.084-0.004-0.517 0-0.938 0.407-0.961 0.918l-0 0.002c-0.466 6.558-5.901 11.701-12.537 11.701-3.072 0-5.887-1.102-8.070-2.933l0.019 0.016 4.725-4.655h-10.489v10.521l4.392-4.392c2.519 2.145 5.81 3.451 9.407 3.451 4.445 0 8.424-1.993 11.093-5.135l0.017-0.021c1.948-2.258 3.203-5.161 3.409-8.351l0.002-0.042c0.002-0.023 0.003-0.050 0.003-0.078 0-0.52-0.41-0.944-0.924-0.967l-0.002-0z"></path>
<path fill="#e20074" d="M0.641 32v-11.329h11.355l-4.943 4.879c2.088 1.688 4.775 2.71 7.701 2.71 6.509 0 11.837-5.057 12.269-11.456l0.002-0.038c0.033-0.367 0.21-0.688 0.472-0.909l0.002-0.002c0.192-0.15 0.437-0.24 0.702-0.24 0.051 0 0.101 0.003 0.15 0.010l-0.006-0.001c0.363 0.034 0.679 0.211 0.896 0.472l0.002 0.002c0.16 0.196 0.256 0.45 0.256 0.725 0 0.043-0.002 0.085-0.007 0.126l0-0.005c-0.531 7.288-6.266 13.082-13.48 13.704l-0.055 0.004c-0.386 0.036-0.835 0.057-1.289 0.057-3.566 0-6.834-1.271-9.378-3.384l0.024 0.019zM1.154 21.158v9.617l4.135-4.129 0.173 0.147c2.479 2.122 5.724 3.413 9.27 3.413 4.365 0 8.274-1.956 10.896-5.040l0.017-0.020c1.904-2.221 3.13-5.073 3.332-8.204l0.002-0.041c0.005-0.030 0.008-0.064 0.008-0.099 0-0.149-0.051-0.287-0.137-0.396l0.001 0.001c-0.138-0.167-0.34-0.278-0.568-0.295l-0.003-0c-0.024-0.003-0.053-0.005-0.081-0.005-0.152 0-0.291 0.053-0.401 0.141l0.001-0.001c-0.167 0.136-0.278 0.336-0.295 0.562l-0 0.003c-0.479 6.689-6.023 11.935-12.792 11.935-3.125 0-5.988-1.118-8.213-2.975l0.020 0.017-0.212-0.173 4.488-4.424zM1.237 15.657h-0.135c-0.345-0.044-0.642-0.224-0.838-0.484l-0.002-0.003c-0.167-0.215-0.268-0.488-0.268-0.785 0-0.042 0.002-0.083 0.006-0.124l-0 0.005c0.423-3.486 1.977-6.548 4.278-8.868l-0.001 0.001c2.671-2.683 6.368-4.344 10.452-4.344 3.45 0 6.622 1.184 9.134 3.169l-0.031-0.024 4.2-4.2v11.329h-11.329l5.334-5.334c-1.658-1.244-3.687-2.083-5.894-2.335l-0.056-0.005c-0.377-0.041-0.815-0.064-1.259-0.064-6.364 0-11.612 4.774-12.36 10.936l-0.006 0.060c-0.103 0.598-0.608 1.051-1.223 1.071l-0.002 0zM14.747 1.545c-3.959 0.002-7.54 1.617-10.123 4.224l-0.001 0.001c-2.215 2.239-3.712 5.191-4.116 8.482l-0.007 0.071c-0.005 0.031-0.007 0.067-0.007 0.104 0 0.169 0.056 0.324 0.15 0.45l-0.001-0.002c0.112 0.154 0.282 0.261 0.477 0.288l0.004 0h0.103c0.373-0.005 0.68-0.279 0.737-0.637l0.001-0.004c0.784-6.464 6.238-11.424 12.85-11.424 0.469 0 0.933 0.025 1.39 0.074l-0.057-0.005c2.452 0.275 4.645 1.211 6.445 2.624l-0.028-0.021 0.218 0.167-4.892 4.898h9.681v-9.617l-3.699 3.642-0.147-0.141c-2.425-1.976-5.554-3.174-8.962-3.174-0.005 0-0.010 0-0.015 0h0.001z"></path>
</svg>
