<!-- Generated by IcoMoon.io -->
<svg version="1.1" xmlns="http://www.w3.org/2000/svg" width="37" height="32" viewBox="0 0 37 32">
<title>burger</title>
<path d="M1.692 27.545h33.538c0 0 0 0 0.001 0 0.934 0 1.692 0.757 1.692 1.692v1.071c0 0.934-0.757 1.692-1.692 1.692-0 0-0 0-0.001 0h-33.538c-0 0-0 0-0.001 0-0.934 0-1.692-0.757-1.692-1.692v-1.071c0-0.934 0.757-1.692 1.692-1.692 0 0 0 0 0.001 0h-0zM1.692 0h33.538c0 0 0 0 0.001 0 0.934 0 1.692 0.757 1.692 1.692v1.071c0 0.934-0.757 1.692-1.692 1.692-0 0-0 0-0.001 0h-33.538c-0 0-0 0-0.001 0-0.934 0-1.692-0.757-1.692-1.692v-1.071c0-0.934 0.757-1.692 1.692-1.692 0 0 0 0 0.001 0h-0zM1.674 13.796h33.575c0.924 0 1.673 0.749 1.674 1.673v1.063c-0.001 0.924-0.75 1.673-1.674 1.673h-33.575c-0.924 0-1.673-0.749-1.674-1.673v-1.063c0.001-0.924 0.75-1.673 1.674-1.673v0z"></path>
</svg>
