<!-- Generated by IcoMoon.io -->
<svg version="1.1" xmlns="http://www.w3.org/2000/svg" width="32" height="32" viewBox="0 0 32 32">
<title>do-biura-menu</title>
<path d="M23.75 27.1c0.331 0 0.6-0.269 0.6-0.6s-0.269-0.6-0.6-0.6c-0.331 0-0.6 0.269-0.6 0.6v0c0 0.331 0.269 0.6 0.6 0.6v0zM30 30v-15.5h-11v-1.030h5c0.276 0 0.5-0.224 0.5-0.5v0-10.47c0-0.276-0.224-0.5-0.5-0.5v0h-16c-0.276 0-0.5 0.224-0.5 0.5v0 10.45c0 0.276 0.224 0.5 0.5 0.5v0h5v1.050h-11v15.5h1.5v-14h14v14zM28.5 29h-9.5v-4.5h9.5zM28.5 23.5h-9.5v-3h9.5zM28.5 16v3.5h-9.5v-3.5zM9 12v-8.5h14v8.5zM23.75 22.5c0.331 0 0.6-0.269 0.6-0.6s-0.269-0.6-0.6-0.6c-0.331 0-0.6 0.269-0.6 0.6v0c0 0.331 0.269 0.6 0.6 0.6v0zM23.75 18.6c0.331 0 0.6-0.269 0.6-0.6s-0.269-0.6-0.6-0.6c-0.331 0-0.6 0.269-0.6 0.6v0c0 0.331 0.269 0.6 0.6 0.6v0z"></path>
</svg>
