<!-- Generated by IcoMoon.io -->
<svg version="1.1" xmlns="http://www.w3.org/2000/svg" width="32" height="32" viewBox="0 0 32 32">
<title>doladowanie</title>
<path d="M26.534 11.564h-12.187c-0.612 0-1.108 0.496-1.108 1.108v0 2.289c0.416 0.273 0.778 0.553 1.116 0.857l-0.009-0.008v-3.139h3.324v3.878h-2.575q0.241 0.268 0.462 0.554h10.977v8.863h-3.324v-4.431h-5.844c-0.011 0.083-0.017 0.179-0.017 0.277s0.006 0.194 0.018 0.288l-0.001-0.012h0.259l-0.083 3.823-0.684 0.055c-0.147 0.378-0.637 0.757-0.831 1.108h10.507c0.612 0 1.108-0.497 1.108-1.108v0-13.295c0-0.612-0.497-1.108-1.108-1.108v0zM22.656 25.967h-4.431v-3.878h4.431zM22.656 16.55h-4.431v-3.878h4.431zM26.534 16.55h-3.324v-3.878h3.324z"></path>
<path d="M24.872 0.485h-14.403c-0.612 0-1.108 0.496-1.108 1.108v12.002c0.623 0.073 1.186 0.196 1.726 0.368l-0.065-0.017v-11.799h13.137l5.696 5.724v21.973h-18.16c-0.957 0.739-2.091 1.302-3.324 1.62l-0.064 0.015h22.102c0.612 0 1.108-0.497 1.108-1.108v0 0-23.238z"></path>
<path d="M9.14 31.515c-5.048 0-9.14-4.092-9.14-9.14s4.092-9.14 9.14-9.14c5.048 0 9.14 4.092 9.14 9.14v0c-0.005 5.046-4.094 9.135-9.139 9.14h-0.001zM9.14 14.583c-4.303 0-7.793 3.489-7.793 7.793s3.489 7.793 7.793 7.793c4.303 0 7.793-3.489 7.793-7.793v0c0-4.303-3.489-7.793-7.793-7.793v0z"></path>
<path d="M5.641 21.48h2.769v-2.53h1.44v2.575h2.769v1.385h-2.769v2.502h-1.44v-2.548h-2.769z"></path>
</svg>
