<!-- Generated by IcoMoon.io -->
<svg version="1.1" xmlns="http://www.w3.org/2000/svg" width="32" height="32" viewBox="0 0 32 32">
<title>emot-error</title>
<path fill="#e20074" d="M16 0c-8.837 0-16 7.163-16 16s7.163 16 16 16c8.837 0 16-7.163 16-16v0c0-8.837-7.163-16-16-16v0zM16 30.248c-7.892 0-14.291-6.398-14.291-14.291s6.398-14.291 14.291-14.291c7.881 0 14.272 6.38 14.291 14.257v0.002c0 0.009 0 0.021 0 0.032 0 7.893-6.398 14.291-14.291 14.291 0 0-0 0-0 0v0zM16 18.251c-0.036-0.001-0.079-0.001-0.123-0.001-2.291 0-4.284 1.275-5.308 3.155l-0.016 0.032c-0.041 0.079-0.065 0.172-0.065 0.271 0 0.329 0.267 0.596 0.596 0.596 0.23 0 0.43-0.131 0.529-0.322l0.002-0.003c0.883-1.57 2.539-2.613 4.438-2.613s3.555 1.043 4.425 2.588l0.013 0.025c0.093 0.197 0.291 0.331 0.52 0.331 0.317 0 0.573-0.257 0.573-0.573 0-0.111-0.031-0.214-0.086-0.302l0.001 0.002c-1.034-1.911-3.024-3.186-5.311-3.186-0.044 0-0.087 0-0.131 0.001l0.006-0zM8.727 11.679c-0.016-0-0.034-0.001-0.053-0.001-1.202 0-2.176 0.974-2.176 2.177s0.974 2.177 2.176 2.177c1.202 0 2.176-0.974 2.176-2.176v-0c0-0.016 0.001-0.034 0.001-0.053 0-1.173-0.951-2.123-2.123-2.123-0 0-0 0-0.001 0h0zM23.273 11.679c-1.188 0.018-2.144 0.986-2.144 2.176 0 1.202 0.974 2.177 2.177 2.177s2.177-0.974 2.177-2.177c0-0.019-0-0.037-0.001-0.056l0 0.003c0-0 0-0 0-0.001 0-1.183-0.944-2.146-2.121-2.176l-0.003-0zM10.532 8.196c-0.095-0.185-0.284-0.309-0.502-0.309-0.096 0-0.186 0.024-0.265 0.066l0.003-0.001-5.245 2.665c-0.176 0.1-0.293 0.287-0.293 0.5 0 0.101 0.026 0.195 0.072 0.278l-0.002-0.003c0.098 0.175 0.282 0.292 0.493 0.292 0.091 0 0.177-0.022 0.253-0.060l-0.003 0.001 5.234-2.707c0.185-0.095 0.309-0.284 0.309-0.502 0-0.096-0.024-0.186-0.066-0.265l0.001 0.003zM27.52 10.628l-5.224-2.729c-0.079-0.041-0.172-0.065-0.271-0.065-0.329 0-0.596 0.267-0.596 0.596 0 0.23 0.131 0.43 0.322 0.529l0.003 0.002 5.171 2.665c0.095 0.070 0.215 0.113 0.345 0.113 0.323 0 0.584-0.261 0.584-0.584 0-0.24-0.145-0.446-0.352-0.536l-0.004-0.001z"></path>
</svg>
