<!-- Generated by IcoMoon.io -->
<svg version="1.1" xmlns="http://www.w3.org/2000/svg" width="731" height="1024" viewBox="0 0 731 1024">
<title>header-offer-icon</title>
<g id="icomoon-ignore">
</g>
<path fill="#000" d="M164.491 365.777c-20.184 0-36.547 16.362-36.547 36.547v0 438.634c0.040 20.154 16.387 36.476 36.547 36.476 0 0 0 0 0 0h402.088c20.184 0 36.547-16.362 36.547-36.547v0-438.563c0-20.184-16.362-36.547-36.547-36.547v0zM438.63 402.324v127.737h-145.904v-127.737zM164.491 402.324h109.641v127.737h-109.641zM164.491 840.957v-127.737h109.641v127.737zM292.228 840.957v-127.737h146.187v127.737zM566.367 840.957h-109.499v-146.187h-292.375v-146.187h402.088zM566.367 402.324v127.737h-109.499v-127.737z"></path>
<path fill="#000" d="M511.724 0.237h-475.465c-20.062 0.161-36.263 16.461-36.263 36.546 0 0.025 0 0.051 0 0.076v-0.004 950.361c0 20.184 16.362 36.547 36.547 36.547v0h657.915c20.184 0 36.547-16.362 36.547-36.547v-767.628zM675.937 968.907h-621.085v-913.814h433.312l187.773 188.057z"></path>
</svg>
