<!-- Generated by IcoMoon.io -->
<svg version="1.1" xmlns="http://www.w3.org/2000/svg" width="32" height="32" viewBox="0 0 32 32">
<title>internet_mobilny</title>
<path d="M17.584 1.371c-0.001 0-0.001 0-0.002 0-4.683 0-8.851 2.208-11.519 5.639l-0.025 0.033 0.165-0.105 1.721 0.292c1.398-1.537 3.142-2.734 5.11-3.472l0.091-0.030c-0.93 1.173-1.75 2.504-2.404 3.926l-0.050 0.122 1.025 0.254c0.879-1.853 1.973-3.446 3.279-4.837l-0.009 0.010c0.61-0.136 1.326-0.232 2.058-0.268l0.030-0.001v5.746h-5.17l0.112 1.048h5.066v5.746h-4.789v1.048h4.789v5.746h-4.886v1.048h4.886v5.739c-0.766-0.039-1.485-0.138-2.181-0.293l0.087 0.016c-1.061-1.134-1.987-2.414-2.743-3.801l-0.048-0.098v1.976c0.315 0.472 0.636 0.935 0.995 1.384-0.344-0.127-0.674-0.27-1.003-0.419v0.052l-0.501 1.123-0.479 0.082c1.892 0.958 4.123 1.519 6.487 1.519 8.071 0 14.614-6.543 14.614-14.614s-6.543-14.614-14.614-14.614c-0.031 0-0.063 0-0.094 0h0.005zM30.641 15.469h-4.325c-0.052-2.071-0.415-4.040-1.044-5.885l0.041 0.139h3.741c0.927 1.659 1.505 3.627 1.585 5.723l0.001 0.025zM28.397 8.682h-3.464c-0.767-1.894-1.736-3.529-2.91-4.992l0.029 0.038c2.634 0.984 4.803 2.704 6.317 4.909l0.029 0.045zM18.108 2.935c0.764 0.037 1.484 0.133 2.181 0.285l-0.086-0.016c1.474 1.553 2.687 3.371 3.56 5.372l0.047 0.12h-5.701zM18.108 9.722h6.106c0.618 1.705 0.997 3.674 1.047 5.723v0.023h-7.153zM18.108 16.509h7.168c-0.050 2.073-0.43 4.041-1.088 5.877l0.041-0.131h-6.121zM18.108 29.057v-5.755h5.701c-0.921 2.115-2.135 3.928-3.614 5.486l0.007-0.008c-0.611 0.138-1.328 0.238-2.064 0.275l-0.032 0.001zM22.066 28.264c1.142-1.424 2.109-3.059 2.826-4.823l0.048-0.131h3.457c-1.54 2.245-3.703 3.962-6.24 4.916l-0.090 0.030zM29.078 22.277h-3.741c0.585-1.707 0.945-3.676 0.995-5.723v-0.024h4.325c-0.084 2.115-0.662 4.077-1.62 5.797l0.034-0.066z"></path>
<path d="M13.162 8.659v19.455c-0.030 0.786-0.544 1.445-1.252 1.687l-0.013 0.004c-1.588 0.509-3.417 0.809-5.313 0.823h-0.007c-1.902-0.008-3.731-0.309-5.448-0.858l0.128 0.036c-0.718-0.25-1.229-0.907-1.257-1.688v-19.459c0-0.003 0-0.006 0-0.010 0-0.842 0.513-1.564 1.243-1.871l0.014-0.005c1.591-0.503 3.42-0.795 5.317-0.801h0.003c1.904 0.019 3.731 0.311 5.457 0.837l-0.137-0.036c0.742 0.322 1.253 1.042 1.264 1.884v0.002zM1.713 9.977h9.727v-1.279c0-0.037 0-0.254-0.112-0.307-1.416-0.428-3.046-0.683-4.733-0.703h-0.011c-1.715 0.019-3.36 0.291-4.908 0.781l0.119-0.033c-0.034 0.073-0.059 0.159-0.074 0.249l-0.001 0.005zM1.713 11.121v13.731h9.727v-13.753zM11.441 28.070v-2.073h-9.727v2.080c-0.003 0.018-0.005 0.038-0.005 0.059s0.002 0.042 0.005 0.062v-0.002c1.432 0.465 3.081 0.739 4.792 0.748h0.005c1.718-0.018 3.365-0.29 4.916-0.781l-0.119 0.033h0.037c0.036-0.039 0.069-0.083 0.095-0.131l0.002-0.004zM7.034 26.573h-0.912c-0.005 0-0.010 0-0.016 0-0.209 0-0.38 0.166-0.389 0.374v0.913c0 0.005 0 0.010 0 0.016 0 0.209 0.165 0.38 0.374 0.389h0.944c0.005 0 0.010 0 0.016 0 0.209 0 0.38-0.166 0.389-0.374v-0.922c0-0.005 0-0.010 0-0.016 0-0.209-0.165-0.38-0.374-0.389h-0.001z"></path>
</svg>
