<!-- Generated by IcoMoon.io -->
<svg version="1.1" xmlns="http://www.w3.org/2000/svg" width="32" height="32" viewBox="0 0 32 32">
<title>internet_domowy</title>
<path d="M31.351 15.968l-15.547-15.483-15.547 15.483c-0.216 0.146-0.357 0.39-0.357 0.667 0 0.443 0.36 0.803 0.803 0.803 0.251 0 0.476-0.115 0.623-0.297l0.001-0.002 0.038-0.038 14.44-14.478 14.413 14.478c0.146 0.216 0.39 0.357 0.667 0.357 0.443 0 0.803-0.36 0.803-0.803 0-0.251-0.115-0.476-0.297-0.623l-0.002-0.001zM26.504 29.91h-21.4v-14.381l-1.605 1.605v13.311c0 0.591 0.479 1.070 1.070 1.070v0h22.47c0.591 0 1.070-0.479 1.070-1.070v0-13.311l-1.605-1.605z"></path>
<path d="M11.037 21.666l1.268 1.369c0.891-0.819 2.081-1.326 3.389-1.337h0.002c0.011 0 0.023 0 0.036 0 1.301 0 2.483 0.509 3.358 1.34l-0.002-0.002 1.273-1.369c-1.224-1.129-2.863-1.824-4.663-1.835h-0.002c-0.011 0-0.022 0-0.035 0-1.792 0-3.42 0.698-4.628 1.839l0.003-0.003z"></path>
<path d="M8.705 19.178l1.273 1.369c1.497-1.382 3.505-2.228 5.712-2.228s4.214 0.848 5.717 2.234l-0.006-0.005 1.273-1.369c-1.818-1.697-4.267-2.739-6.959-2.739-0.014 0-0.028 0-0.042 0h0.002c-0.020 0-0.045 0-0.070 0-2.674 0-5.104 1.042-6.906 2.744l0.005-0.005z"></path>
<path d="M15.702 13.020c-0.002 0-0.004 0-0.006 0-3.607 0-6.889 1.396-9.332 3.677l0.008-0.008 1.273 1.369c2.085-1.965 4.903-3.173 8.003-3.173 0.017 0 0.035 0 0.051 0h-0.003c3.111 0.004 5.942 1.197 8.066 3.149l-0.009-0.008 1.273-1.369c-2.447-2.252-5.724-3.633-9.325-3.638h-0.001z"></path>
<path d="M14.397 24.121h2.578v2.578h-2.578v-2.578z"></path>
</svg>
