<!-- Generated by IcoMoon.io -->
<svg version="1.1" xmlns="http://www.w3.org/2000/svg" width="32" height="32" viewBox="0 0 32 32">
<title>Karta-Zl</title>
<path d="M27.333 11.429h-12.571c-0.631 0-1.143 0.512-1.143 1.143v0 2.362c0.429 0.282 0.802 0.57 1.152 0.884l-0.009-0.008v-3.238h3.429v4h-2.657q0.248 0.276 0.476 0.571h11.324v9.143h-3.429v-4.571h-6.029c0 0.19 0 0.381 0.048 0.571h0.267l-0.181 3.943-0.705 0.057c-0.152 0.39-0.657 0.781-0.857 1.143h10.886c0.631 0 1.143-0.512 1.143-1.143v0-13.714c0-0.631-0.512-1.143-1.143-1.143v0zM23.333 26.286h-4.571v-4h4.571zM23.333 16.571h-4.571v-4h4.571zM27.333 16.571h-3.429v-4h3.429z"></path>
<path d="M25.619 0h-14.857c-0.631 0-1.143 0.512-1.143 1.143v12.381c0.642 0.075 1.223 0.202 1.781 0.38l-0.067-0.018v-12.171h13.552l5.876 5.905v22.667h-18.733c-0.755 0.767-1.688 1.357-2.733 1.701l-0.048 0.014h22.086c0.631 0 1.143-0.512 1.143-1.143v0-24z"></path>
<path d="M9.429 32c-5.207 0-9.429-4.221-9.429-9.429s4.221-9.429 9.429-9.429c5.207 0 9.429 4.221 9.429 9.429v0c-0.011 5.203-4.226 9.418-9.428 9.429h-0.001zM9.429 14.524c-0.003 0-0.006 0-0.010 0-4.445 0-8.048 3.603-8.048 8.048s3.603 8.048 8.048 8.048c4.445 0 8.048-3.603 8.048-8.048v0c0-4.441-3.598-8.042-8.038-8.048h-0.001z"></path>
<path d="M4.686 25.438v-1.143l2.933-4.219h-2.724v-1.2h4.438v1.067l-2.981 4.276h3.067v1.219z"></path>
<path d="M9.6 23.59v-1.124l0.505-0.381v-3.21h1.41v2.248l0.952-0.676v1.124l-0.952 0.676v1.962h2.581v1.219h-3.99v-2.219z"></path>
</svg>
