<!-- Generated by IcoMoon.io -->
<svg version="1.1" xmlns="http://www.w3.org/2000/svg" width="32" height="32" viewBox="0 0 32 32">
<title>komputery</title>
<path d="M4.287 7.159h23.577v15.003h1.608v-15.54c0-0.592-0.48-1.072-1.072-1.072v0h-24.649c-0.592 0-1.072 0.48-1.072 1.072v0 15.54h1.608z"></path>
<path d="M0 23.234c0 1.776 1.439 3.215 3.215 3.215v0h25.721c1.776 0 3.215-1.439 3.215-3.215v0zM18.218 25.377h-4.287c-0.296 0-0.536-0.24-0.536-0.535s0.24-0.535 0.536-0.535v0h4.287c0.296 0 0.535 0.24 0.535 0.535s-0.24 0.535-0.535 0.535v0z"></path>
</svg>
