<!-- Generated by IcoMoon.io -->
<svg version="1.1" xmlns="http://www.w3.org/2000/svg" width="32" height="32" viewBox="0 0 32 32">
<title>kontakt-service</title>
<path d="M4.5 8.575v-3.075c0-0.552 0.448-1 1-1v0h10.5v1.5h-10v2.38c-0.5 0.040-1 0.12-1.5 0.195zM25.5 16v4h-5.5v3.375l-3.375-3.375h-3.125v1.5h2.5l5.5 5.5v-5.5h4.5c0.552 0 1-0.448 1-1v0-4.5zM12.5 11.47v15.53c-0.019 0.631-0.426 1.163-0.99 1.367l-0.010 0.003c-1.271 0.399-2.734 0.629-4.249 0.63h-0.001c-1.517-0-2.979-0.234-4.352-0.668l0.102 0.028c-0.571-0.206-0.976-0.733-1-1.357l-0-0.003v-15.5s0-1.19 1-1.5c1.269-0.401 2.729-0.635 4.242-0.64h0.003c1.517 0.003 2.981 0.224 4.364 0.633l-0.109-0.028c0.589 0.258 0.994 0.834 1 1.504v0.001zM3.5 11.47v1.030h7.5v-1c-0.006-0.050-0.018-0.096-0.036-0.138l0.001 0.003c-1.109-0.331-2.386-0.529-3.706-0.545l-0.009-0c-1.33 0.005-2.611 0.204-3.82 0.57l0.095-0.025c-0.015 0.031-0.024 0.067-0.025 0.105v0zM3.5 24h7.5v-10.5h-7.5zM11 26.945v-1.945h-7.5v1.945c1.12 0.352 2.408 0.555 3.743 0.555 0.002 0 0.005 0 0.007 0h-0c1.339-0.006 2.629-0.208 3.844-0.58l-0.094 0.025zM7.57 25.635h-0.64c-0.002-0-0.003-0-0.005-0-0.172 0-0.312 0.138-0.315 0.31v0s0 0 0 0v0.64c-0 0.003-0 0.007-0 0.010 0 0.168 0.133 0.304 0.3 0.31h0.66c0.003 0 0.007 0 0.010 0 0.168 0 0.304-0.133 0.31-0.3v-0s0 0 0 0v-0.65c0-0.002 0-0.003 0-0.005 0-0.172-0.138-0.312-0.31-0.315h-0zM29 3h-11v11h11v-11zM29 2c0.552 0 1 0.448 1 1v0 11c0 0.552-0.448 1-1 1v0h-11c-0.552 0-1-0.448-1-1v0-11c0-0.552 0.448-1 1-1v0zM24.665 7.33c-0.169-0.414-0.569-0.701-1.035-0.701-0.012 0-0.024 0-0.037 0.001l0.002-0c-0.004-0-0.008-0-0.013-0-0.518 0-0.977 0.25-1.265 0.636l-0.003 0.004c-0.337 0.422-0.541 0.964-0.541 1.553 0 0.022 0 0.044 0.001 0.065l-0-0.003c-0.001 0.023-0.002 0.049-0.002 0.075 0 0.411 0.132 0.791 0.355 1.1l-0.004-0.005c0.23 0.305 0.593 0.501 1.001 0.501 0.016 0 0.031-0 0.047-0.001l-0.002 0c0.502-0.005 0.942-0.261 1.202-0.65l0.003-0.005c0.063 0.344 0.361 0.602 0.719 0.602 0.018 0 0.036-0.001 0.054-0.002l-0.002 0c0.289-0.002 0.561-0.074 0.8-0.2l-0.010 0.005c0.418-0.222 0.757-0.543 0.994-0.934l0.006-0.011c0.354-0.519 0.565-1.161 0.565-1.851 0-0.003 0-0.006 0-0.009v0c0.001-0.025 0.001-0.055 0.001-0.084 0-0.934-0.422-1.77-1.086-2.327l-0.005-0.004c-0.627-0.527-1.443-0.847-2.334-0.847-0.037 0-0.075 0.001-0.112 0.002l0.005-0c-1.617 0.012-3.025 0.896-3.779 2.204l-0.011 0.021c-0.428 0.733-0.68 1.614-0.68 2.554 0 0.007 0 0.015 0 0.022v-0.001c-0.002 0.042-0.003 0.092-0.003 0.142 0 0.986 0.381 1.883 1.005 2.551l-0.002-0.002c0.658 0.625 1.55 1.009 2.532 1.009 0.091 0 0.181-0.003 0.27-0.010l-0.012 0.001c0.012 0 0.027 0 0.041 0 1.050 0 2.042-0.246 2.922-0.682l-0.038 0.017-0.215-0.6-0.465 0.22c-0.636 0.278-1.377 0.44-2.156 0.44-0.017 0-0.034-0-0.052-0l0.003 0c-0.057 0.004-0.124 0.006-0.191 0.006-0.837 0-1.594-0.343-2.138-0.896l-0-0c-0.472-0.555-0.759-1.279-0.759-2.071 0-0.058 0.002-0.115 0.005-0.172l-0 0.008c-0.001-0.039-0.002-0.084-0.002-0.13 0-1.111 0.431-2.121 1.134-2.873l-0.002 0.002c0.634-0.699 1.545-1.136 2.559-1.136 0.023 0 0.047 0 0.070 0.001l-0.003-0c0.022-0.001 0.047-0.001 0.073-0.001 0.736 0 1.41 0.265 1.932 0.705l-0.005-0.004c0.531 0.452 0.866 1.122 0.866 1.869 0 0.023-0 0.046-0.001 0.069l0-0.003c0.001 0.027 0.002 0.058 0.002 0.090 0 0.707-0.275 1.349-0.723 1.827l0.001-0.001c-0.211 0.258-0.521 0.427-0.871 0.45l-0.004 0c-0.18 0-0.265-0.1-0.255-0.305 0.004-0.179 0.027-0.351 0.068-0.516l-0.003 0.016 0.45-2.325h-0.76zM23.665 7.275c0.005-0 0.011-0 0.017-0 0.216 0 0.407 0.108 0.522 0.273l0.001 0.002c0.12 0.181 0.192 0.403 0.192 0.642 0 0.024-0.001 0.048-0.002 0.071l0-0.003c0 0.015 0.001 0.034 0.001 0.052 0 0.378-0.095 0.734-0.261 1.045l0.006-0.012c-0.149 0.345-0.483 0.583-0.874 0.59h-0.001c-0.007 0-0.016 0-0.024 0-0.238 0-0.446-0.135-0.549-0.332l-0.002-0.003c-0.12-0.211-0.19-0.462-0.19-0.731 0-0.007 0-0.013 0-0.020v0.001c-0-0.011-0-0.024-0-0.037 0-0.374 0.108-0.722 0.295-1.016l-0.005 0.008c0.176-0.301 0.497-0.5 0.865-0.5h0z"></path>
</svg>
