<!-- Generated by IcoMoon.io -->
<svg version="1.1" xmlns="http://www.w3.org/2000/svg" width="32" height="32" viewBox="0 0 32 32">
<title>kontakjt</title>
<path d="M27.5 4.5v23h-23v-23h23zM28 3h-24c-0.552 0-1 0.448-1 1v0 24c0 0.552 0.448 1 1 1v0h24c0.552 0 1-0.448 1-1v0-24c0-0.552-0.448-1-1-1v0zM16 19c2.421-0.017 4.391-1.929 4.5-4.325l0-0.010v-3.345c0-2.32-2.1-4.32-4.5-4.32s-4.5 2-4.5 4.32v3.34c0.107 2.409 2.077 4.323 4.498 4.34h0.002zM12.5 11.32c0-1.735 1.67-3.32 3.5-3.32s3.5 1.585 3.5 3.32v3.34c0 1.75-1.67 3.34-3.5 3.34s-3.5-1.59-3.5-3.335zM7.5 25v-0.575c-0-0.006-0-0.013-0-0.020 0-1.597 1.289-2.894 2.884-2.905h11.221c1.6 0.006 2.895 1.304 2.895 2.905 0 0.004 0 0.007-0 0.011v-0.001 0.585h1v-0.575c0-0.010 0-0.023 0-0.035 0-2.136-1.722-3.87-3.853-3.89h-11.242c-0.004-0-0.010-0-0.015-0-2.143 0-3.881 1.733-3.89 3.874v0.001s0 0.035 0 0.050v0.575z"></path>
</svg>
