<!-- Generated by IcoMoon.io -->
<svg version="1.1" xmlns="http://www.w3.org/2000/svg" width="32" height="32" viewBox="0 0 32 32">
<title>kontakt-z-doradca-service</title>
<path d="M27.5 27.535v1.465h-1.5v-1.465c0-2.345-1.55-4.035-3.685-4.035h-12.375c-2.177 0.006-3.94 1.772-3.94 3.95 0 0 0 0 0 0v0q0 0.045 0 0.085v1.465h-1.5v-1.465c-0-0.024-0.001-0.052-0.001-0.081 0-2.985 2.397-5.41 5.371-5.454l0.004-0h12.445c3.060 0 5.18 2.47 5.18 5.535zM16 19c-0.005 0-0.010 0-0.016 0-0.965 0-1.841-0.381-2.485-1.001l0.001 0.001h-1.885c0.888 1.506 2.502 2.5 4.348 2.5 0.013 0 0.026-0 0.040-0h-0.002c0.027 0.001 0.059 0.001 0.091 0.001 2.673 0 4.848-2.137 4.909-4.795l0-0.006v-4.885c-0.053-2.671-2.23-4.816-4.909-4.816-0.032 0-0.064 0-0.096 0.001l0.005-0c-0.027-0.001-0.059-0.001-0.091-0.001-2.677 0-4.853 2.142-4.909 4.806l-0 0.005v4.19h1.5v-4.2c0.063-1.836 1.567-3.301 3.413-3.301 0.031 0 0.061 0 0.091 0.001l-0.004-0c0.026-0.001 0.056-0.001 0.087-0.001 1.849 0 3.356 1.47 3.413 3.306l0 0.005v4.89c-0.063 1.836-1.567 3.301-3.413 3.301-0.031 0-0.061-0-0.091-0.001l0.004 0zM8.5 16h0.65c0.35 0.599 0.988 0.995 1.719 1h3.226c0.212 0.588 0.765 1 1.414 1 0.828 0 1.5-0.672 1.5-1.5s-0.672-1.5-1.5-1.5c-0.649 0-1.202 0.412-1.411 0.99l-0.003 0.010h-3.225c-0.001 0-0.003 0-0.004 0-0.368 0-0.69-0.199-0.863-0.495l-0.003-0.005v-5h-1c0-3.866 3.134-7 7-7s7 3.134 7 7v0h-1v5.5h1.5c0.552 0 1-0.448 1-1v0-4.5c0-4.694-3.806-8.5-8.5-8.5s-8.5 3.806-8.5 8.5v0 4.5c0 0.552 0.448 1 1 1v0z"></path>
</svg>
