<!-- Generated by IcoMoon.io -->
<svg version="1.1" xmlns="http://www.w3.org/2000/svg" width="32" height="32" viewBox="0 0 32 32">
<title>koszyk</title>
<path d="M26.804 26.94c0 1.209-0.98 2.188-2.188 2.188s-2.188-0.98-2.188-2.188c0-1.209 0.98-2.188 2.188-2.188v0c1.209 0 2.188 0.98 2.188 2.188v0zM12.581 24.752c-1.209 0-2.188 0.98-2.188 2.188s0.98 2.188 2.188 2.188c1.209 0 2.188-0.98 2.188-2.188v0c0-1.209-0.98-2.188-2.188-2.188v0zM32.273 6.701l-2.341 10.393c-0.153 0.615-0.688 1.067-1.332 1.094h-17.923l0.547 3.446c0.052 0.209 0.23 0.365 0.446 0.383h16.467c0.453 0 0.82 0.368 0.82 0.82s-0.368 0.82-0.82 0.82v0h-16.487c-1.039-0.017-1.897-0.774-2.071-1.765l-0.002-0.013-0.711-4.628c-0.014-0.040-0.027-0.089-0.037-0.14l-0.001-0.007-0.958-6.345-0.892-5.864c-0.052-0.209-0.23-0.365-0.446-0.383h-5.712c-0.453 0-0.821-0.368-0.821-0.821s0.368-0.821 0.821-0.821v0h5.705c1.039 0.017 1.897 0.774 2.071 1.765l0.002 0.013 0.153 0.958h22.679c0.014-0.001 0.030-0.002 0.046-0.002 0.462 0 0.837 0.375 0.837 0.837 0 0.093-0.015 0.181-0.043 0.264l0.002-0.006zM9.004 7.248l0.328 2.188h20.65l0.492-2.188zM14.222 10.53v6.017h4.923v-6.017zM20.24 16.547h4.923v-6.017h-4.923zM13.128 16.547v-6.017h-3.627l0.892 6.017zM29.735 10.53h-3.479v6.017h2.128z"></path>
</svg>
