<!-- Generated by IcoMoon.io -->
<svg version="1.1" xmlns="http://www.w3.org/2000/svg" width="32" height="32" viewBox="0 0 32 32">
<title>ksiegowosc-menu</title>
<path d="M15.5 29c0.552 0 1-0.448 1-1v0-19.4l7.415 19.745c0.145 0.386 0.51 0.655 0.939 0.655 0 0 0.001 0 0.001 0h-0c0.126-0.001 0.246-0.024 0.357-0.067l-0.007 0.002 5.16-1.935c0.383-0.146 0.65-0.51 0.65-0.937 0-0.127-0.024-0.248-0.067-0.36l0.002 0.007-0.91-2.42-0.35-0.935-5.155-13.735-1.32-3.5c-0.137-0.399-0.51-0.68-0.948-0.68-0.123 0-0.241 0.022-0.349 0.063l0.007-0.002-5.165 1.95c-0.099 0.039-0.185 0.090-0.262 0.152l0.002-0.002v-0.6c0-0.552-0.448-1-1-1v0h-5.5v-1c0-0.552-0.448-1-1-1v0h-6.5c-0.552 0-1 0.448-1 1v0 24c0 0.552 0.448 1 1 1v0zM10 11h5v13h-5zM8.5 24h-5.5v-13h5.5zM15 6.5v3.5h-5v-3.5zM8.5 4.5v5.5h-5.5v-5.5zM3 25h5.5v2.5h-5.5zM10 27.5v-2.5h5v2.5zM17.755 7.68l4.245-1.585 1.145 3.045-4.245 1.585zM24.055 24.46l-4.805-12.8 4.25-1.585 4.805 12.8zM25.14 27.35l-0.73-1.95 4.225-1.585 0.735 1.955z"></path>
</svg>
