<svg xmlns="http://www.w3.org/2000/svg" width="64" height="64" viewBox="0 0 64 64">
  <defs>
    <style>
      .a {
        fill: none;
      }
    </style>
  </defs>
  <title>books_outline</title>
  <rect class="a" width="64" height="64"/>
  <path d="M31,58a2,2,0,0,0,2-2V17.2L47.83,56.69A2,2,0,0,0,49.71,58a2,2,0,0,0,.7-.13L60.73,54a2,2,0,0,0,1.17-2.58l-1.82-4.84h0l-.7-1.87h0l-9.61-25.6h0l-.7-1.87h0l-2.64-7A2,2,0,0,0,43.85,9L33.52,12.9a2,2,0,0,0-.52.3V12a2,2,0,0,0-2-2H20V8a2,2,0,0,0-2-2H5A2,2,0,0,0,3,8V56a2,2,0,0,0,2,2ZM20,22H30V48H20ZM17,48H6V22H17ZM30,13v7H20V13ZM17,9V20H6V9ZM6,50H17v5H6Zm14,5V50H30v5ZM35.51,15.36,44,12.19l2.29,6.09L37.8,21.45Zm12.6,33.56L38.5,23.32,47,20.15l9.61,25.6Zm2.17,5.78L48.82,50.8l8.45-3.17,1.47,3.91Z"/>
</svg>
