<!-- Generated by IcoMoon.io -->
<svg version="1.1" xmlns="http://www.w3.org/2000/svg" width="66" height="32" viewBox="0 0 66 32">
<title>LogoT-Mobile</title>
<path fill="#e20074" d="M19.733 21.156v-6.4h6.4v6.4z"></path>
<path fill="#e20074" d="M0 21.156v-6.4h6.4v6.4z"></path>
<path fill="#e20074" d="M25.92 0h-25.6l-0.32 11.289 1.707 0.302q0.48-4.987 2.613-7.413c1.511-1.689 3.573-2.56 6.24-2.649v23.627c0 2.062-0.284 3.396-0.889 4.018-0.516 0.533-1.369 0.853-2.596 0.978-0.356 0.036-0.978 0.053-1.849 0.053v1.796h15.804v-1.813c-0.871 0-1.493-0.018-1.849-0.053-1.227-0.124-2.080-0.444-2.596-0.978-0.604-0.622-0.889-1.956-0.889-4.018v-23.609c2.667 0.071 4.747 0.96 6.24 2.649 1.422 1.618 2.311 4.071 2.613 7.413l1.707-0.302z"></path>
<path fill="#e20074" d="M39.467 21.156v-6.4h6.4v6.4z"></path>
<path fill="#e20074" d="M59.2 21.156v-6.4h6.4v6.4z"></path>
</svg>
