<!-- Generated by IcoMoon.io -->
<svg version="1.1" xmlns="http://www.w3.org/2000/svg" width="32" height="32" viewBox="0 0 32 32">
<title>MIX</title>
<path d="M30.823 2.872h-29.681c-0.63 0-1.141 0.511-1.141 1.141v0 23.973c0 0.63 0.511 1.141 1.141 1.141v0h29.681c0.63 0 1.141-0.511 1.141-1.141v0-23.973c0-0.63-0.511-1.141-1.141-1.141v0zM30.252 27.416h-28.54v-22.832h28.54z"></path>
<path d="M5.194 21.177v-10.36h2.284l2.317 8.076 2.238-8.076h2.284v10.36h-1.57v-8.197l-2.215 8.197h-1.444l-2.284-8.099v8.099z"></path>
<path d="M16.227 21.177v-10.36h1.712v10.36z"></path>
<path d="M18.899 21.177l3.088-5.383-2.854-4.977h1.952l1.895 3.641 1.952-3.641h1.838l-2.854 4.977 3.077 5.383h-1.998l-2.072-3.898-2.123 3.898z"></path>
</svg>
