<!-- Generated by IcoMoon.io -->
<svg version="1.1" xmlns="http://www.w3.org/2000/svg" width="26" height="32" viewBox="0 0 26 32">
<title>ms-office-menu</title>
<path d="M17.714 0h-16.571c-0.631 0-1.143 0.512-1.143 1.143v0 29.714c0 0.631 0.512 1.143 1.143 1.143v0h24c0.631 0 1.143-0.512 1.143-1.143v0-22.286zM17.714 2.423l6.149 6.149h-5.577c-0.316 0-0.571-0.256-0.571-0.571v0zM24.571 30.286h-22.857v-28.571h14.857v6.286c0 0.947 0.767 1.714 1.714 1.714v0h6.286z"></path>
<path d="M15.040 11.703l-8.411 3.269v8.88l2.806-0.937v-7.474l5.606-0.931v10.32l-8.411-0.977 8.411 2.806 4.674-1.406v-12.149l-4.674-1.4z"></path>
</svg>
