<!-- Generated by IcoMoon.io -->
<svg version="1.1" xmlns="http://www.w3.org/2000/svg" width="32" height="32" viewBox="0 0 32 32">
<title>najlepsza-siec-service</title>
<path d="M22.275 18.16c8.725-2.715 8.725-12.66 8.725-12.66h-6.5v-2.5h-17v2.5h-6.5s0 9.945 8.735 12.665c1.5 2.26 3.47 3.79 5.15 4.29v0.335c-0.24 2.465-1.19 4.21-4.885 4.21v2h12v-2c-3.67 0-4.625-1.725-4.88-4.17v-0.38c1.685-0.495 3.665-2.025 5.155-4.29zM29.375 7c-0.335 2.38-1.565 6.93-6 9.115 0.711-1.589 1.125-3.444 1.125-5.395 0-0.002 0-0.003 0-0.005v0-3.715zM2.63 7h4.87v3.715c0 0.005 0 0.010 0 0.016 0 1.947 0.412 3.798 1.154 5.47l-0.034-0.086c-4.425-2.185-5.655-6.74-5.99-9.115zM9 10.715v-6.215h14v6.215c0 6.375-4.92 10.415-7 10.415s-7-4.040-7-10.415zM18.095 27.5h-4.19c0.973-0.635 1.707-1.563 2.084-2.659l0.011-0.036c0.388 1.132 1.122 2.060 2.075 2.683l0.020 0.012z"></path>
</svg>
