<!-- Generated by IcoMoon.io -->
<svg version="1.1" xmlns="http://www.w3.org/2000/svg" width="32" height="32" viewBox="0 0 32 32">
<title>oferta_rodzinna</title>
<path d="M24.504 20.259c0.003 0 0.007 0 0.011 0 4.143 0 7.501 3.358 7.501 7.501 0 0.004 0 0.008 0 0.012v-0.001 1.545h-1.598v-1.545c-0.012-3.261-2.652-5.901-5.912-5.913h-2.985c0.145-0.461 0.258-1.003 0.316-1.561l0.003-0.037zM18.698 11.735v-1.865c0-2.207 1.789-3.995 3.995-3.995s3.995 1.789 3.995 3.995v0 7.725h-4.794v1.598h6.392v-9.323c0-3.089-2.505-5.593-5.593-5.593s-5.593 2.505-5.593 5.593v0 0 1.331c0.605 0.105 1.147 0.29 1.646 0.548l-0.032-0.015zM1.651 29.315v-4.794c0-3.236 2.623-5.86 5.86-5.86v0h3.196v-1.598h-3.143c-0.011 0-0.024 0-0.038 0-4.096 0-7.421 3.303-7.458 7.391v4.851zM9.925 15.933c0.267 0 0.586-0.053 0.852-0.053 0.126-0.682 0.33-1.289 0.605-1.854l-0.018 0.043c-0.435 0.177-0.941 0.279-1.47 0.279-1.655 0-3.077-1.005-3.687-2.438l-0.010-0.026c-0.17-0.408-0.268-0.882-0.268-1.38 0-0.039 0.001-0.079 0.002-0.117v0.006-4.262c0.009-2.185 1.762-3.956 3.938-3.995h0.004c2.196 0.005 3.983 1.754 4.049 3.936v4.268c-0.012 0.537-0.109 1.048-0.277 1.525l0.011-0.034c0.523-0.298 1.131-0.521 1.777-0.634l0.034-0.005c0.035-0.201 0.055-0.431 0.055-0.666 0-0.047-0.001-0.093-0.002-0.14v0.007-4.262c0-3.089-2.505-5.593-5.593-5.593s-5.593 2.505-5.593 5.593v0 4.262c0.024 3.065 2.514 5.54 5.583 5.54 0.004 0 0.008 0 0.012 0h-0.001zM8.592 31.436v-0.213c0-0.010 0-0.020 0-0.032 0-2.512 2.036-4.55 4.549-4.55 0.012 0 0.022 0 0.034 0h6.285c2.523 0.018 4.563 2.059 4.581 4.58v0.215h1.598v-0.213c-0.003-3.411-2.767-6.176-6.179-6.18h-6.287c-3.411 0.003-6.176 2.767-6.18 6.179v0.213zM11.789 20.035v-3.356c0-2.501 2.028-4.529 4.529-4.529s4.529 2.028 4.529 4.529v0 3.356c0 2.501-2.028 4.529-4.529 4.529s-4.529-2.028-4.529-4.529v0zM13.387 20.035c0 1.618 1.312 2.929 2.929 2.929s2.929-1.312 2.929-2.929v0-3.356c0-1.618-1.312-2.929-2.929-2.929s-2.929 1.312-2.929 2.929v0 0z"></path>
<path d="M25.703 31.515h-1.731v-0.277c-0.033-2.479-2.032-4.482-4.509-4.518h-6.288c-0.015 0-0.035 0-0.053 0-2.466 0-4.465 1.999-4.465 4.465 0 0.018 0 0.038 0 0.056v-0.003 0.277h-1.731v-0.277c0.003-3.45 2.799-6.246 6.249-6.249h6.287c3.447 0.006 6.24 2.8 6.243 6.249v0zM24.105 31.382h1.465v-0.143c-0.003-3.375-2.736-6.109-6.11-6.116h-6.287c-3.377 0.003-6.112 2.739-6.116 6.115v0.145h1.465v-0.143c0-0.015 0-0.035 0-0.053 0-2.539 2.059-4.597 4.597-4.597 0.018 0 0.038 0 0.056 0h6.283c2.553 0.036 4.613 2.097 4.645 4.648v0.003zM32.096 29.385h-1.731v-1.598c0-3.236-2.624-5.86-5.86-5.86v0h-3.057v-0.085c0.145-0.461 0.258-1.003 0.316-1.561l0.003-0.037v-0.047h2.738c0.002 0 0.004 0 0.006 0 4.188 0 7.583 3.393 7.586 7.58v0zM30.498 29.251h1.465v-1.476c0-4.119-3.339-7.458-7.458-7.458v0h-2.589c-0.061 0.554-0.165 1.054-0.308 1.537l0.015-0.061h2.882c0.002 0 0.004 0 0.006 0 3.305 0 5.985 2.677 5.988 5.982v0zM1.731 29.385h-1.731v-4.928c0.042-4.128 3.398-7.458 7.533-7.458 0.017 0 0.034 0 0.051 0h3.193v1.731h-3.249c-3.198 0.003-5.79 2.593-5.796 5.79v0.001zM0.133 29.251h1.465v-4.73c0.006-3.271 2.658-5.921 5.929-5.924h3.127v-1.465h-3.074c-0.015 0-0.031 0-0.048 0-4.060 0-7.357 3.271-7.399 7.321v0.004zM16.317 24.643c-2.537 0-4.594-2.055-4.597-4.591v-3.356c-0.002-0.047-0.003-0.102-0.003-0.156 0-2.539 2.059-4.597 4.597-4.597s4.597 2.059 4.597 4.597c0 0.055-0.001 0.11-0.003 0.164v-0.008 3.356c-0.003 2.535-2.057 4.589-4.591 4.591v0zM16.317 12.231c-2.463 0.003-4.459 2.001-4.459 4.465 0 0 0 0 0 0v0 3.356c0.085 2.398 2.050 4.31 4.462 4.31s4.376-1.911 4.462-4.303v-3.364c0-0.008 0-0.017 0-0.026 0-2.466-1.999-4.465-4.465-4.465 0 0 0 0 0 0v0zM16.317 23.045c-1.647-0.020-2.975-1.348-2.999-2.991v-3.358c-0.002-0.038-0.003-0.081-0.003-0.126 0-1.656 1.343-2.999 2.999-2.999s2.999 1.343 2.999 2.999c0 0.045-0.001 0.088-0.003 0.133v-0.006 3.356c-0.023 1.644-1.35 2.97-2.991 2.993h-0.002zM16.317 13.829c-1.572 0.023-2.84 1.294-2.861 2.864v3.358c0.068 1.529 1.324 2.742 2.863 2.742s2.796-1.214 2.864-2.736v-3.362c-0.006-1.585-1.282-2.871-2.864-2.893h-0.002zM28.372 19.263h-6.531v-1.731h4.794v-7.655c-0.081-2.108-1.808-3.787-3.929-3.787s-3.849 1.679-3.928 3.78v1.984l-0.101-0.053c-0.463-0.244-0.999-0.43-1.565-0.527l-0.033-0.005h-0.053v-1.385c0.097-3.052 2.594-5.489 5.66-5.489s5.563 2.437 5.66 5.48v0.009zM21.979 19.129h6.254v-9.253c-0.095-2.979-2.534-5.358-5.527-5.358s-5.431 2.379-5.526 5.349v1.271c0.551 0.102 1.042 0.267 1.499 0.49l-0.034-0.015v-1.737c0.081-2.181 1.869-3.918 4.062-3.918s3.981 1.737 4.062 3.91v7.796h-4.794zM9.925 16.014h-0.043c-3.093-0.012-5.599-2.511-5.62-5.602v-4.264c0.097-3.052 2.594-5.489 5.66-5.489s5.563 2.437 5.66 5.48v4.271c0.002 0.041 0.002 0.089 0.002 0.137 0 0.238-0.020 0.47-0.059 0.697l0.004-0.024v0.043h-0.079c-0.672 0.118-1.273 0.339-1.817 0.649l0.028-0.015-0.149 0.079 0.053-0.16c0.163-0.433 0.267-0.934 0.287-1.456v-4.271c-0.071-2.149-1.826-3.865-3.983-3.873h-0.001c-2.145 0.030-3.873 1.776-3.873 3.925 0 0.002 0 0.004 0 0.006v0 4.262c-0.001 0.035-0.002 0.077-0.002 0.118 0 0.486 0.097 0.948 0.271 1.37l-0.009-0.023c0.606 1.429 1.998 2.414 3.62 2.414 0.527 0 1.030-0.104 1.489-0.293l-0.026 0.010 0.154-0.058-0.069 0.149c-0.256 0.519-0.457 1.12-0.574 1.752l-0.007 0.044v0.053h-0.058c-0.128 0-0.277 0-0.421 0s-0.303 0.069-0.436 0.069zM9.925 0.618c-3.053 0.003-5.526 2.477-5.529 5.529v4.262c0.021 3.026 2.479 5.471 5.508 5.471 0.008 0 0.015 0 0.022 0h-0.001c0.128 0 0.277 0 0.421 0s0.256 0 0.378 0c0.122-0.616 0.306-1.161 0.551-1.672l-0.018 0.042c-0.403 0.147-0.87 0.234-1.356 0.234-1.681 0-3.123-1.024-3.737-2.481l-0.010-0.026c-0.186-0.429-0.295-0.928-0.295-1.453 0-0.040 0.001-0.079 0.002-0.119v0.006-4.262c0-0.002 0-0.004 0-0.006 0-2.224 1.787-4.029 4.003-4.059h0.003c2.231 0.011 4.044 1.784 4.117 3.999v4.269c-0.009 0.488-0.087 0.954-0.228 1.393l0.010-0.034c0.474-0.257 1.024-0.455 1.605-0.564l0.036-0.006c0.028-0.184 0.045-0.397 0.045-0.613 0-0.042-0.001-0.082-0.002-0.123v0.006-4.262c-0.003-3.051-2.474-5.523-5.523-5.529h-0.001z"></path>
</svg>
