<!-- Generated by IcoMoon.io -->
<svg version="1.1" xmlns="http://www.w3.org/2000/svg" width="32" height="32" viewBox="0 0 32 32">
<title>oferta-bez-telefonu-menu</title>
<path d="M9.643 11.429c-0.631 0-1.143 0.512-1.143 1.143v0 13.714c0 0.631 0.512 1.143 1.143 1.143v0h12.571c0.631 0 1.143-0.512 1.143-1.143v0-13.714c0-0.631-0.512-1.143-1.143-1.143v0zM18.214 12.571v4h-4.571v-4zM9.643 12.571h3.429v4h-3.429zM9.643 26.286v-4h3.429v4zM13.643 26.286v-4h4.571v4zM22.214 26.286h-3.429v-4.571h-9.143v-4.571h12.571zM22.214 12.571v4h-3.429v-4z"></path>
<path d="M20.5 0h-14.857c-0.631 0-1.143 0.512-1.143 1.143v0 29.714c0 0.631 0.512 1.143 1.143 1.143v0h20.571c0.631 0 1.143-0.512 1.143-1.143v0-24zM25.643 30.286h-19.429v-28.571h13.549l5.88 5.88z"></path>
</svg>
