<!-- Generated by IcoMoon.io -->
<svg version="1.1" xmlns="http://www.w3.org/2000/svg" width="32" height="32" viewBox="0 0 32 32">
<title>pakiet-internetu</title>
<path d="M20 2h-14.5c-0.552 0-1 0.448-1 1v0 26c0 0.552 0.448 1 1 1v0h21c0.552 0 1-0.448 1-1v0-19.5zM20 4.12l5.38 5.38h-4.88c-0.276 0-0.5-0.224-0.5-0.5v0zM26 28.5h-20v-25h13v5.5c0 0.828 0.672 1.5 1.5 1.5v0h5.5zM9.5 18c0 3.59 2.91 6.5 6.5 6.5s6.5-2.91 6.5-6.5c0-3.59-2.91-6.5-6.5-6.5v0c-3.59 0-6.5 2.91-6.5 6.5v0zM13.625 13.050c-0.337 0.483-0.639 1.034-0.879 1.617l-0.021 0.058h-1.13c0.531-0.71 1.212-1.278 1.998-1.666l0.032-0.014zM11.26 15.225h1.29c-0.255 0.741-0.416 1.597-0.445 2.486l-0 0.014h-1.605c0.049-0.931 0.326-1.788 0.774-2.529l-0.014 0.024zM11.26 20.755c-0.427-0.717-0.696-1.573-0.74-2.488l-0-0.012h1.595c0.024 0.901 0.179 1.757 0.448 2.562l-0.018-0.062zM11.59 21.255h1.135c0.258 0.643 0.557 1.196 0.909 1.71l-0.019-0.030c-0.821-0.403-1.503-0.973-2.025-1.671l-0.010-0.015zM15.75 23.5c-0.457-0.031-0.883-0.113-1.289-0.241l0.039 0.011c-0.481-0.576-0.891-1.235-1.204-1.947l-0.021-0.053h2.5zM15.75 20.775h-2.68c-0.268-0.741-0.434-1.597-0.46-2.488l-0-0.012h3.14zM15.75 17.775h-3.14c0.031-0.905 0.203-1.76 0.493-2.558l-0.018 0.058h2.665zM15.75 14.775h-2.5c0.335-0.765 0.748-1.424 1.241-2.013l-0.011 0.013c0.369-0.108 0.797-0.18 1.238-0.2l0.012-0zM18.395 22.985c0.333-0.484 0.632-1.037 0.869-1.622l0.021-0.058h1.135c-0.534 0.688-1.212 1.239-1.992 1.611l-0.033 0.014zM20.75 20.75h-1.29c0.251-0.743 0.406-1.599 0.43-2.488l0-0.012h1.61c-0.047 0.928-0.32 1.784-0.764 2.525l0.014-0.025zM20.75 15.22c0.429 0.717 0.7 1.572 0.744 2.487l0 0.013h-1.605c-0.029-0.903-0.19-1.759-0.463-2.562l0.018 0.062zM20.415 14.72h-1.145c-0.26-0.641-0.56-1.192-0.914-1.704l0.019 0.029c0.818 0.4 1.498 0.967 2.020 1.661l0.010 0.014zM16.25 12.5c0.451 0.021 0.877 0.092 1.284 0.21l-0.039-0.010c0.483 0.576 0.895 1.235 1.209 1.947l0.021 0.053h-2.5zM16.25 15.205h2.67c0.272 0.74 0.444 1.595 0.475 2.486l0 0.014h-3.145v-2.5zM16.25 18.205h3.145c-0.026 0.903-0.192 1.759-0.478 2.558l0.018-0.058h-2.685zM16.25 21.205h2.5c-0.334 0.765-0.744 1.424-1.236 2.013l0.011-0.013c-0.376 0.112-0.81 0.185-1.259 0.205l-0.011 0z"></path>
</svg>
