<!-- Generated by IcoMoon.io -->
<svg version="1.1" xmlns="http://www.w3.org/2000/svg" width="32" height="32" viewBox="0 0 32 32">
<title>producenci</title>
<path d="M29.239 1.141v26.809c0 0.63-0.511 1.141-1.141 1.141v0h-10.838v-1.711h10.267v-2.852h-10.267v-1.141h10.267v-21.676h-17.112v4.563h-1.711v-5.134c0-0.63 0.511-1.141 1.141-1.141v0h18.253c0.63 0 1.141 0.511 1.141 1.141v0zM19.713 26.809c0.003 0 0.008 0 0.012 0 0.21 0 0.381-0.167 0.388-0.376v-0.936c0-0.003 0-0.008 0-0.012 0-0.21-0.167-0.381-0.376-0.388h-0.936c-0.003 0-0.008 0-0.012 0-0.21 0-0.381 0.167-0.388 0.376v0.913c0 0.003 0 0.008 0 0.012 0 0.21 0.167 0.381 0.376 0.388h0.936zM16.119 10.096v19.394c-0.017 0.793-0.531 1.461-1.242 1.707l-0.013 0.004c-1.586 0.501-3.41 0.793-5.302 0.799h-0.003c-1.893-0.001-3.718-0.293-5.433-0.833l0.128 0.035c-0.724-0.25-1.238-0.919-1.255-1.709v-19.396s0-1.483 1.255-1.882c1.586-0.501 3.41-0.793 5.302-0.799h0.003c1.898 0.019 3.721 0.31 5.442 0.834l-0.137-0.036c0.738 0.322 1.246 1.042 1.255 1.881v0.001zM4.711 11.408h9.697v-1.278c0-0.040-0.034-0.257-0.114-0.302-1.412-0.426-3.037-0.681-4.718-0.701h-0.011c-1.705 0.007-3.347 0.267-4.893 0.745l0.119-0.032c-0.035 0.074-0.063 0.16-0.079 0.251l-0.001 0.006zM4.711 12.549v13.69h9.697v-13.69zM14.408 29.445v-2.065h-9.697v2.071c0.006 0.044 0.018 0.085 0.035 0.122l-0.001-0.002c1.431 0.456 3.076 0.719 4.783 0.719 0.001 0 0.002 0 0.003 0v0c1.708-0.008 3.351-0.271 4.899-0.75l-0.119 0.032h0.040c0.021-0.036 0.040-0.077 0.055-0.12l0.002-0.005zM10.016 27.95h-0.913c-0.003 0-0.008 0-0.012 0-0.21 0-0.381 0.167-0.388 0.376v0.913c0 0.003 0 0.008 0 0.012 0 0.21 0.167 0.381 0.376 0.388h0.936c0.003 0 0.008 0 0.012 0 0.21 0 0.381-0.167 0.388-0.376v-0.913c0-0.003 0-0.008 0-0.012 0-0.21-0.167-0.381-0.376-0.388h-0.001z"></path>
</svg>
