<!-- Generated by IcoMoon.io -->
<svg version="1.1" xmlns="http://www.w3.org/2000/svg" width="33" height="32" viewBox="0 0 33 32">
<title>przenies_numer</title>
<path d="M27.347 11.428h-12.56c-0.631 0-1.142 0.511-1.142 1.142v0 2.36c0.429 0.282 0.801 0.57 1.151 0.883l-0.009-0.008v-3.235h3.426v3.996h-2.655q0.247 0.276 0.476 0.571h11.314v9.135h-3.426v-4.567h-6.023c-0.011 0.086-0.018 0.185-0.018 0.285s0.006 0.2 0.019 0.297l-0.001-0.012h0.266l-0.086 3.939-0.704 0.057c-0.152 0.39-0.657 0.78-0.856 1.142h10.829c0.631 0 1.142-0.511 1.142-1.142v0-13.702c0-0.631-0.511-1.142-1.142-1.142v0zM23.351 26.272h-4.567v-3.996h4.567zM23.351 16.566h-4.567v-3.996h4.567zM27.347 16.566h-3.426v-3.996h3.426z"></path>
<path d="M25.635 0.009h-14.844c-0.631 0-1.142 0.511-1.142 1.142v12.37c0.642 0.075 1.222 0.202 1.779 0.38l-0.067-0.018v-12.161h13.54l5.871 5.9v22.647h-18.717c-0.987 0.761-2.155 1.343-3.426 1.67l-0.066 0.015h22.78c0.631 0 1.142-0.511 1.142-1.142v0 0-23.95z"></path>
<path d="M9.42 31.991c-5.203 0-9.42-4.218-9.42-9.42s4.218-9.42 9.42-9.42c5.203 0 9.42 4.218 9.42 9.42v0c-0.005 5.2-4.22 9.415-9.42 9.42h-0.001zM9.42 14.539c-4.435 0-8.031 3.596-8.031 8.031s3.596 8.031 8.031 8.031c4.435 0 8.031-3.596 8.031-8.031v0c0-4.435-3.596-8.031-8.031-8.031v0z"></path>
<path d="M7.955 26.814l-0.875-0.875 3.378-3.378-3.378-3.368 0.875-0.875 4.253 4.244-4.253 4.253z"></path>
</svg>
