<!-- Generated by IcoMoon.io -->
<svg version="1.1" xmlns="http://www.w3.org/2000/svg" width="32" height="32" viewBox="0 0 32 32">
<title>przedluzenie</title>
<path d="M24.143 4h-20c-0.631 0-1.143 0.512-1.143 1.143v0 25.714c0 0.631 0.512 1.143 1.143 1.143v0h20c0.631 0 1.143-0.512 1.143-1.143v0-25.714c0-0.631-0.512-1.143-1.143-1.143v0zM23.571 30.286h-18.857v-24.571h18.857z"></path>
<path d="M8.143 12.571h12v1.143h-12v-1.143z"></path>
<path d="M8.143 17.143h12v1.143h-12v-1.143z"></path>
<path d="M8.143 21.714h12v1.143h-12v-1.143z"></path>
<path d="M28.429 0h-20.571c-0.468 0.012-0.845 0.389-0.857 0.856v0.001c0.012 0.468 0.389 0.845 0.856 0.857h19.715v25.429c0 0.473 0.384 0.857 0.857 0.857s0.857-0.384 0.857-0.857v0-26.286c-0.012-0.468-0.389-0.845-0.856-0.857h-0.001z"></path>
</svg>
