<!-- Generated by IcoMoon.io -->
<svg version="1.1" xmlns="http://www.w3.org/2000/svg" width="32" height="32" viewBox="0 0 32 32">
<title>przenies-numer</title>
<path d="M26.518 11.567h-12.179c-0.612 0-1.107 0.495-1.107 1.107v0 2.288c0.416 0.273 0.777 0.553 1.116 0.856l-0.009-0.008v-3.137h3.322v3.875h-2.575q0.239 0.268 0.462 0.554h10.971v8.858h-3.322v-4.429h-5.84c-0.011 0.083-0.017 0.179-0.017 0.276s0.006 0.194 0.018 0.288l-0.001-0.012h0.258l-0.083 3.82-0.683 0.055c-0.147 0.378-0.637 0.756-0.83 1.107h10.501c0.612 0 1.107-0.495 1.107-1.107v0-13.287c0-0.612-0.495-1.107-1.107-1.107v0zM22.643 25.961h-4.429v-3.875h4.429zM22.643 16.549h-4.429v-3.875h4.429zM26.518 16.549h-3.322v-3.875h3.322z"></path>
<path d="M24.858 0.494h-14.394c-0.612 0-1.107 0.495-1.107 1.107v11.995c0.623 0.073 1.185 0.196 1.725 0.368l-0.065-0.017v-11.793h13.13l5.693 5.721v21.961h-18.15c-0.957 0.738-2.090 1.302-3.322 1.619l-0.064 0.015h22.090c0.612 0 1.107-0.495 1.107-1.107v0 0-23.224z"></path>
<path d="M9.135 31.506c-5.045 0-9.135-4.090-9.135-9.135s4.090-9.135 9.135-9.135c5.045 0 9.135 4.090 9.135 9.135v0c-0.005 5.042-4.092 9.13-9.135 9.135h-0.001zM9.135 14.583c-4.301 0-7.788 3.487-7.788 7.788s3.487 7.788 7.788 7.788c4.301 0 7.788-3.487 7.788-7.788v0c0-4.301-3.487-7.788-7.788-7.788v0z"></path>
<path d="M7.714 26.486l-0.848-0.849 3.276-3.276-3.276-3.266 0.848-0.849 4.124 4.115-4.124 4.124z"></path>
</svg>
