<svg xmlns="http://www.w3.org/2000/svg" width="64" height="64" viewBox="0 0 64 64">
  <title>sport</title>
  <path d="M44.55,36.32C62,30.89,62,11,62,11H49V6H15v5H2S2,30.89,19.47,36.33c3,4.52,6.94,7.58,10.3,8.58v.67C29.29,50.51,27.39,54,20,54v4H44V54c-7.34,0-9.25-3.45-9.76-8.34V44.9C37.61,43.91,41.57,40.85,44.55,36.32ZM58.75,14c-.67,4.76-3.13,13.86-12,18.23A27,27,0,0,0,49,21.43V14ZM5.26,14H15v7.43a27,27,0,0,0,2.24,10.8C8.39,27.86,5.93,18.75,5.26,14ZM18,21.43V9H46V21.43c0,12.75-9.84,20.83-14,20.83S18,34.18,18,21.43ZM36.19,55H27.81A10.33,10.33,0,0,0,32,49.61,10.33,10.33,0,0,0,36.19,55Z"/>
</svg>
