<!-- Generated by IcoMoon.io -->
<svg version="1.1" xmlns="http://www.w3.org/2000/svg" width="32" height="32" viewBox="0 0 32 32">
<title>roaming</title>
<path d="M32.232 13.171l-6.142-6.158v-1.576c-0.070-1.010-0.905-1.802-1.927-1.802-0.191 0-0.376 0.028-0.551 0.080l0.014-0.004v-0.236c0-0.008 0-0.018 0-0.027 0-0.941-0.763-1.704-1.704-1.704-0.424 0-0.812 0.155-1.111 0.411l0.002-0.002c-1.695-0.756-3.672-1.201-5.752-1.21h-0.004c-8.317 0-15.059 6.742-15.059 15.059s6.742 15.059 15.059 15.059v0c2.803-0.007 5.418-0.807 7.634-2.187l-0.061 0.036h-4.044c-0.896 0.299-1.931 0.493-3.005 0.537l-0.023 0.001v-17.748h1.076l1.076-1.076h-2.152v-8.067c2.198 0.104 4.224 0.754 5.972 1.817l-0.056-0.032v-1.785l1.076 0.581v3.883s-4.69 4.937-5.916 6.158v12.37c0.003 1.246 1.013 2.256 2.259 2.259h11.080c0.002 0 0.004 0 0.006 0 1.24 0 2.248-1.002 2.253-2.242v-0.001zM9.299 3.85c-1.452 1.646-2.603 4.141-3.286 6.766h-3.227c1.359-2.956 3.624-5.302 6.433-6.728l0.080-0.037zM2.366 11.698h3.399c-0.289 1.336-0.456 2.872-0.456 4.445 0 1.665 0.185 3.286 0.536 4.844l-0.027-0.147h-3.345c-0.57-1.396-0.902-3.015-0.902-4.712 0-1.592 0.291-3.114 0.823-4.519l-0.029 0.088zM2.942 21.916h3.146c0.634 2.418 1.751 4.52 3.246 6.289l-0.020-0.024c-2.786-1.337-4.992-3.509-6.338-6.187l-0.036-0.078zM14.484 29.446c-0.888-0.039-1.724-0.154-2.536-0.341l0.093 0.018c-2.152-1.274-3.878-3.894-4.84-7.207h7.282zM14.484 20.84h-7.561c-0.344-1.417-0.54-3.046-0.54-4.719 0-1.579 0.175-3.117 0.507-4.596l-0.026 0.139h7.621zM14.484 10.622h-7.357c0.941-3.448 2.721-6.4 4.916-7.707 0.712-0.179 1.547-0.307 2.403-0.359l0.039-0.002zM23.626 3.872v0c0.514 0.38 0.967 0.759 1.395 1.163l-0.008-0.007v1.29c-0.207-0.071-0.446-0.111-0.694-0.111s-0.487 0.040-0.71 0.116l0.016-0.005zM29.989 26.218h-11.084c-0.344-0.018-0.616-0.299-0.618-0.645v-11.724c2.754-2.754 5.62-5.83 5.625-5.835 0.118-0.116 0.279-0.187 0.457-0.187s0.34 0.072 0.457 0.187l0.216 0.215c0 0.872-0.452 1.119-0.904 0.947-0.232 0.098-0.392 0.324-0.392 0.586 0 0.174 0.070 0.331 0.184 0.446v0c0.312 0.312 1.662 0 2.071-1.022l4.62 4.663v11.724c-0.003 0.35-0.281 0.633-0.628 0.646h-0.001zM28.376 19.345l-0.737 0.791c-0.869-0.809-2.039-1.305-3.323-1.305s-2.455 0.497-3.327 1.308l0.003-0.003-0.737-0.791c1.064-0.997 2.497-1.608 4.074-1.608s3.011 0.612 4.077 1.611l-0.003-0.003zM27.052 20.792l-0.737 0.796c-0.516-0.479-1.209-0.774-1.971-0.774s-1.455 0.294-1.973 0.775l0.002-0.002-0.737-0.791c0.715-0.642 1.666-1.034 2.708-1.034s1.992 0.392 2.712 1.038l-0.004-0.004zM29.741 17.893l-0.737 0.796c-1.222-1.139-2.866-1.837-4.674-1.837s-3.452 0.699-4.678 1.841l0.004-0.004-0.737-0.791c1.415-1.322 3.32-2.135 5.416-2.135s4.002 0.812 5.42 2.138l-0.005-0.004zM23.626 22.454h1.613v1.613h-1.613z"></path>
</svg>
