<!-- Generated by IcoMoon.io -->
<svg version="1.1" xmlns="http://www.w3.org/2000/svg" width="32" height="32" viewBox="0 0 32 32">
<title>routery</title>
<path d="M28.807 19.561h-25.725c-1.703 0-3.083 1.38-3.083 3.083v3.455c0 0.003 0 0.007 0 0.011 0 1.652 1.328 2.995 2.974 3.019h25.834c0.007 0 0.015 0 0.022 0 1.661 0 3.013-1.323 3.061-2.972v-3.512c0-0.007 0-0.015 0-0.022 0-1.661-1.323-3.013-2.972-3.061h-0.111zM30.296 26.046c-0.006 0.783-0.609 1.424-1.377 1.488h-25.837c-0.007 0-0.016 0-0.024 0-0.78 0-1.419-0.61-1.465-1.378v-3.512c0-0.012-0.001-0.025-0.001-0.038 0-0.802 0.65-1.451 1.451-1.451 0.013 0 0.026 0 0.039 0.001h25.776c0.783 0.006 1.424 0.609 1.488 1.376v3.513zM3.774 24.291c0-0.587 0.476-1.063 1.063-1.063s1.063 0.476 1.063 1.063c0 0.587-0.476 1.063-1.063 1.063v0c-0.587 0-1.063-0.476-1.063-1.063v0z"></path>
<path d="M9.992 13.767l1.594 1.701c1.128-1.011 2.611-1.647 4.241-1.701h0.011c0.021 0 0.047-0.001 0.072-0.001 1.627 0 3.102 0.649 4.181 1.703l-0.001-0.001 1.594-1.701c-1.535-1.417-3.595-2.286-5.857-2.286-0.015 0-0.030 0-0.045 0h0.002c-0.018 0-0.039 0-0.060 0-2.223 0-4.243 0.871-5.737 2.289l0.003-0.003z"></path>
<path d="M7.069 10.631l1.594 1.701c1.882-1.754 4.417-2.831 7.202-2.831s5.319 1.076 7.208 2.836l-0.007-0.006 1.594-1.701c-2.276-2.14-5.349-3.455-8.729-3.455-0.014 0-0.029 0-0.043 0h0.002c-0.013 0-0.030 0-0.045 0-3.396 0-6.485 1.314-8.785 3.462l0.007-0.007z"></path>
<path d="M15.892 2.872c-0.002 0-0.006 0-0.008 0-4.542 0-8.672 1.759-11.748 4.633l0.010-0.009 1.594 1.701c2.592-2.469 6.107-3.988 9.978-3.988 0.061 0 0.122 0 0.183 0.001h-0.009c3.915 0.011 7.479 1.502 10.164 3.944l-0.012-0.011 1.594-1.701c-3.084-2.831-7.212-4.567-11.746-4.571h-0.001z"></path>
<path d="M8.345 25.355h5.687c0.587 0 1.063-0.476 1.063-1.063v0 0c0-0.587-0.476-1.063-1.063-1.063v0h-5.687c-0.588 0-1.063 0.476-1.063 1.063v0 0c0 0.010-0.001 0.021-0.001 0.033 0 0.569 0.462 1.031 1.031 1.031 0.011 0 0.023 0 0.034-0.001h-0.002z"></path>
<path d="M27.532 20.889l3.986-3.986c0.197-0.197 0.319-0.469 0.319-0.77s-0.122-0.574-0.319-0.77v0c-0.197-0.197-0.469-0.319-0.77-0.319s-0.574 0.122-0.77 0.319v0l-3.934 3.986c-0.425 0.425-1.169 0.957-0.744 1.382l0.744 0.159c0.425 0.425 0.798-0.159 1.488 0z"></path>
</svg>
