<!-- Generated by IcoMoon.io -->
<svg version="1.1" xmlns="http://www.w3.org/2000/svg" width="32" height="32" viewBox="0 0 32 32">
<title>search</title>
<path d="M31.094 29.485l-7.304-6.963c2.196-2.377 3.543-5.566 3.543-9.071 0-0.005 0-0.011 0-0.016v0.001c0-7.408-6.025-13.436-13.436-13.436s-13.436 6.028-13.436 13.436 6.028 13.436 13.436 13.436c0.005 0 0.010 0 0.016 0 2.881 0 5.549-0.912 7.731-2.464l-0.041 0.028 7.487 7.144c0.257 0.237 0.602 0.383 0.981 0.383 0.8 0 1.448-0.648 1.448-1.448 0-0.403-0.165-0.768-0.431-1.031v0zM3.068 13.436c0-5.982 4.85-10.832 10.832-10.832s10.832 4.85 10.832 10.832c0 5.982-4.85 10.832-10.832 10.832-0.001 0-0.001 0-0.002 0v0c-5.979-0.008-10.823-4.853-10.83-10.831v-0.001z"></path>
</svg>
