<!-- Generated by IcoMoon.io -->
<svg version="1.1" xmlns="http://www.w3.org/2000/svg" width="32" height="32" viewBox="0 0 32 32">
<title>sluchawka</title>
<path d="M31.353 25.311l-4.954-4.954c-0.987-0.982-2.621-0.953-3.641 0.068l-2.495 2.495-0.492-0.276c-1.576-0.873-3.733-2.070-6.002-4.341s-3.474-4.436-4.35-6.013c-0.092-0.167-0.184-0.328-0.268-0.481l2.499-2.498c1.023-1.023 1.050-2.656 0.066-3.641l-4.954-4.951c-0.984-0.984-2.616-0.955-3.641 0.068l-1.396 1.404 0.038 0.038c-0.457 0.583-0.844 1.252-1.131 1.973l-0.019 0.055c-0.24 0.599-0.42 1.295-0.507 2.020l-0.004 0.040c-0.654 5.422 1.823 10.377 8.548 17.102 9.294 9.293 16.782 8.592 17.108 8.555 0.767-0.093 1.464-0.276 2.12-0.539l-0.056 0.020c0.773-0.303 1.44-0.686 2.040-1.153l-0.018 0.014 0.030 0.027 1.414-1.382c1.020-1.028 1.054-2.662 0.065-3.649z"></path>
</svg>
