<!-- Generated by IcoMoon.io -->
<svg version="1.1" xmlns="http://www.w3.org/2000/svg" width="21" height="32" viewBox="0 0 21 32">
<title>tablet-nav</title>
<path d="M9.87 29.49h1.029c0.010 0.001 0.021 0.001 0.032 0.001 0.215 0 0.391-0.166 0.407-0.376l0-0.001v-1.042c0-0.004 0-0.008 0-0.013 0-0.231-0.184-0.42-0.414-0.426h-1.030c-0.004-0-0.008-0-0.013-0-0.231 0-0.42 0.184-0.426 0.414v1.005c-0 0.004-0 0.008-0 0.013 0 0.231 0.184 0.42 0.414 0.426h0.001z"></path>
<path d="M19.558 0h-18.303c-0.693 0-1.255 0.562-1.255 1.255v0 29.49c0 0.693 0.562 1.255 1.255 1.255v0h18.303c0.693 0 1.255-0.562 1.255-1.255v0-29.49c0-0.693-0.562-1.255-1.255-1.255v0zM18.93 30.118h-17.048v-3.137h17.048zM18.93 25.726h-17.048v-23.699h17.048z"></path>
</svg>


