<!-- Generated by IcoMoon.io -->
<svg version="1.1" xmlns="http://www.w3.org/2000/svg" width="32" height="32" viewBox="0 0 32 32">
<title>telefony</title>
<path d="M24.577 3.49v25.244c-0.023 1.032-0.691 1.901-1.617 2.222l-0.017 0.005c-2.064 0.652-4.439 1.032-6.901 1.039h-0.004c-2.464-0.001-4.84-0.381-7.071-1.085l0.167 0.045c-0.942-0.326-1.611-1.196-1.633-2.225v-25.247s0-1.93 1.633-2.45c2.064-0.653 4.439-1.032 6.901-1.039h0.004c2.47 0.025 4.843 0.403 7.083 1.086l-0.178-0.047c0.961 0.419 1.622 1.356 1.633 2.449v0.001zM9.727 5.197h12.622v-1.663c0-0.052-0.045-0.334-0.149-0.393-1.838-0.555-3.952-0.887-6.141-0.913h-0.014c-2.219 0.009-4.356 0.348-6.369 0.969l0.155-0.041c-0.046 0.097-0.082 0.209-0.103 0.326l-0.001 0.008zM9.727 6.682v17.819h12.622v-17.819zM22.349 28.674v-2.688h-12.622v2.695c0.007 0.058 0.023 0.111 0.046 0.159l-0.001-0.003c1.862 0.593 4.004 0.936 6.226 0.936 0.001 0 0.003 0 0.004 0v0c2.223-0.011 4.362-0.352 6.377-0.977l-0.155 0.041h0.052c0.027-0.046 0.052-0.1 0.072-0.157l0.002-0.007zM16.632 26.729h-1.188c-0.005 0-0.010 0-0.015 0-0.274 0-0.497 0.218-0.505 0.489v1.189c0 0.005 0 0.010 0 0.015 0 0.274 0.218 0.497 0.489 0.505h1.219c0.005 0 0.010 0 0.015 0 0.274 0 0.497-0.218 0.505-0.489v-1.189c0-0.005 0-0.010 0-0.015 0-0.274-0.218-0.497-0.489-0.505h-0.001z"></path>
</svg>
