<svg xmlns="http://www.w3.org/2000/svg" width="54" height="54" viewBox="0 0 54 54"><title>user</title><g id="Layer_2" data-name="Layer 2"><g id="Layer_1-2" data-name="Layer 1"><path d="M1,53V48.9A10.84,10.84,0,0,1,11.8,38H42.1A10.93,10.93,0,0,1,53,48.9h0V53H50V48.9A7.83,7.83,0,0,0,42.2,41H11.9A7.85,7.85,0,0,0,4,48.9H4V53ZM15,22V13A12.17,12.17,0,0,1,27,1,12.17,12.17,0,0,1,39,13v9A12.17,12.17,0,0,1,27,34,12.17,12.17,0,0,1,15,22Zm3,0a9,9,0,1,0,18,0V13a9,9,0,0,0-18,0Z"/><path d="M54,54H49V48.9A6.86,6.86,0,0,0,42.2,42H11.9A6.83,6.83,0,0,0,5,48.9V54H0V48.9A11.86,11.86,0,0,1,11.8,37H42.1A11.91,11.91,0,0,1,54,48.9Zm-3-2h1V48.9A9.91,9.91,0,0,0,42.1,39H11.8A9.86,9.86,0,0,0,2,48.9V52H3V48.9A8.81,8.81,0,0,1,11.9,40H42.2A8.86,8.86,0,0,1,51,48.9ZM27,35A13.13,13.13,0,0,1,14,22V13a13,13,0,0,1,26,0v9A13.13,13.13,0,0,1,27,35ZM16,22a11,11,0,1,0,22,0V13a11,11,0,1,0-22,0ZM27,32A10,10,0,0,1,17,22V13a10,10,0,0,1,20,0v9A10,10,0,0,1,27,32ZM27,5a8,8,0,0,0-8,8v9a8,8,0,0,0,16,0V13A8,8,0,0,0,27,5Z"/></g></g></svg>