<!-- Generated by IcoMoon.io -->
<svg version="1.1" xmlns="http://www.w3.org/2000/svg" width="32" height="32" viewBox="0 0 32 32">
<title>uslugi</title>
<path d="M13.714 21.143l0.804 0.804-9.121 9.121c-0.589 0.563-1.39 0.91-2.271 0.91-0.001 0-0.002 0-0.003 0v0c-0.004 0-0.009 0-0.013 0-0.861 0-1.64-0.348-2.206-0.91v0c-0.561-0.583-0.907-1.378-0.907-2.252s0.346-1.669 0.908-2.253l-0.001 0.001 11.434-11.456 1.182 1.176-11.451 11.456c-0.264 0.283-0.427 0.665-0.427 1.085s0.162 0.801 0.427 1.086l-0.001-0.001c0.285 0.236 0.654 0.378 1.057 0.378 0.421 0 0.805-0.156 1.098-0.413l-0.002 0.002 9.171-9.159c0.094 0.162 0.201 0.302 0.322 0.428l-0.001-0.001zM16.255 13.531l3.162-3.19c0.162-0.152 0.262-0.368 0.262-0.607 0-0.109-0.021-0.213-0.059-0.309l0.002 0.006c-0.274-0.643-0.433-1.392-0.433-2.177 0-0.015 0-0.029 0-0.044v0.002c0-3.064 2.484-5.548 5.548-5.548v0c0.006 0 0.013 0 0.019 0 1.361 0 2.61 0.482 3.585 1.284l-0.010-0.008h-2.94c0 0 0 0 0 0-1.040 0-1.883 0.841-1.886 1.88v4.66c0 1.042 0.845 1.886 1.886 1.886v0h2.968c-0.973 0.825-2.243 1.327-3.631 1.327-0.782 0-1.527-0.159-2.204-0.447l0.037 0.014c-0.096-0.042-0.209-0.067-0.326-0.067-0.23 0-0.438 0.093-0.589 0.244v0l-0.976 0.976c0.166 0.097 0.31 0.207 0.439 0.333l0.793 0.793 0.555-0.555c0.679 0.229 1.46 0.361 2.272 0.361 0.024 0 0.048 0 0.072 0h-0.004c2.562-0.005 4.809-1.344 6.085-3.36l0.017-0.030c0.072-0.121 0.115-0.266 0.115-0.422s-0.043-0.301-0.117-0.425l0.002 0.004c-0.157-0.252-0.432-0.417-0.747-0.417-0.016 0-0.033 0-0.049 0.001h-4.714c-0.123 0-0.222-0.099-0.222-0.222v0-4.66c0-0.123 0.099-0.222 0.222-0.222h4.771c0 0 0.001 0 0.001 0 0.46 0 0.832-0.373 0.832-0.832 0-0.213-0.080-0.408-0.213-0.556l0.001 0.001c-1.32-1.946-3.523-3.208-6.020-3.208-3.992 0-7.23 3.225-7.251 7.212v0.002c0 0.005 0 0.011 0 0.017 0 0.831 0.134 1.63 0.381 2.378l-0.015-0.053-2.774 2.813zM30.635 30.669c-0.746 0.745-1.775 1.205-2.913 1.205s-2.167-0.461-2.913-1.205l-10.313-10.313c-0.201-0.201-0.325-0.478-0.325-0.785s0.124-0.584 0.325-0.785v0l1.548-1.548-9.675-9.67-1.931-0.588-3.551-3.551 2.497-2.497 3.551 3.551 0.555 1.886 9.709 9.72 1.553-1.553c0.201-0.201 0.478-0.325 0.785-0.325s0.584 0.124 0.785 0.325v0l10.313 10.308c0.744 0.745 1.205 1.774 1.205 2.91s-0.46 2.165-1.205 2.91v0zM30.164 27.739c0-0.002 0-0.004 0-0.006 0-0.676-0.276-1.288-0.721-1.73v0l-9.903-9.914-3.451 3.484 9.897 9.92c0.443 0.434 1.050 0.702 1.72 0.702 1.356 0 2.456-1.099 2.458-2.455v0z"></path>
</svg>
