<!-- Generated by IcoMoon.io -->
<svg version="1.1" xmlns="http://www.w3.org/2000/svg" width="32" height="32" viewBox="0 0 32 32">
<title>uslugi-bankowe</title>
<path d="M30 15v-5c0-0.552-0.448-1-1-1v0h-26c-0.552 0-1 0.448-1 1v0 18c0 0.552 0.448 1 1 1v0h26c0.552 0 1-0.448 1-1v0-5c0.552 0 1-0.448 1-1v0-6c0-0.552-0.448-1-1-1v0zM28.5 27.5h-25v-17h25v4.5h-6c-2.209 0-4 1.791-4 4s1.791 4 4 4v0h6zM30 22h-7.5c-1.657 0-3-1.343-3-3s1.343-3 3-3v0h7.5zM22.5 17.5c0.828 0 1.5 0.672 1.5 1.5s-0.672 1.5-1.5 1.5c-0.828 0-1.5-0.672-1.5-1.5v0c0-0.828 0.672-1.5 1.5-1.5v0zM26.97 8h1l-0.34-2.775c-0.062-0.498-0.483-0.88-0.993-0.88-0.003 0-0.005 0-0.008 0h-0.13l-0.72 0.090-0.855-2.75c-0.137-0.399-0.51-0.681-0.948-0.681-0.101 0-0.198 0.015-0.289 0.043l0.007-0.002-19.395 6.145c-0.399 0.138-0.68 0.51-0.68 0.947 0 0.003 0 0.005 0 0.008v-0l23.030-2.8zM10.335 6.325l13.665-4.325 0.81 2.56z"></path>
</svg>
