<svg xmlns="http://www.w3.org/2000/svg" width="64" height="64" viewBox="0 0 64 64">
  <defs>
    <style>
      .a {
        fill: none;
      }
    </style>
  </defs>
  <title>fernassistent-v3_outline</title>
  <rect class="a" width="64" height="64"/>
  <path d="M19,33.2V12H45v2.7l1.3-3.79L48,9.2V8.5S48,5,45,4A45.12,45.12,0,0,0,32,2,44.1,44.1,0,0,0,19,4c-3,1-3,4.5-3,4.5V36.2l2.6-2.6ZM19,8.5s.1-1.4,1-1.7A41.38,41.38,0,0,1,32,5,44.28,44.28,0,0,1,44.1,6.8c.8.3.9,1.7.9,1.7V10H19ZM33,57a1.08,1.08,0,0,0,1-1V54a1.08,1.08,0,0,0-1-1H31a1.08,1.08,0,0,0-1,1v2a1.08,1.08,0,0,0,1,1Zm12-8H26.7l-2,2H45v4.9a1.41,1.41,0,0,1-.9,1.3,41.37,41.37,0,0,1-12,1.8A43.68,43.68,0,0,1,20,57.2a2,2,0,0,1-.87-.65,23.23,23.23,0,0,1-2.13,2A3.81,3.81,0,0,0,19,60a43.09,43.09,0,0,0,13,2,44.1,44.1,0,0,0,13-2,4.47,4.47,0,0,0,3-4.1V20.65l-3,3ZM54,6l-6,6-1,2.87L31.12,30.73l-2.4-2.4A1.67,1.67,0,0,0,27,28.06l-1.06,1.07c-.4,3.59-2.26,5.46-5.86,5.86l-12,12c-.78.78-4.62,3.87.18,8.67s7.89,1,8.67.18l12-12c.4-3.59,2.26-5.46,5.85-5.86l1.07-1.06a1.68,1.68,0,0,0-.27-1.73l-2.4-2.4L49.1,16.84l2.87-1,6-6Z"/>
</svg>
