<!-- Generated by IcoMoon.io -->
<svg version="1.1" xmlns="http://www.w3.org/2000/svg" width="32" height="32" viewBox="0 0 32 32">
<title>wsparcie-techniczne-menu</title>
<path d="M9.5 16.6v-10.6h13v1.35l0.65-1.895 0.85-0.855v-0.35s0-1.75-1.5-2.25c-1.941-0.62-4.175-0.985-6.492-1l-0.008-0c-2.323 0.007-4.558 0.372-6.656 1.043l0.156-0.043c-1.5 0.5-1.5 2.25-1.5 2.25v13.85l1.3-1.3zM9.5 4.25s0.050-0.7 0.5-0.85c1.794-0.567 3.858-0.896 5.998-0.9h0.002c2.163 0.020 4.243 0.348 6.207 0.941l-0.157-0.041c0.4 0.15 0.45 0.85 0.45 0.85v0.75h-13zM16.5 28.5c0.268-0.020 0.48-0.232 0.5-0.498l0-0.002v-1c-0.020-0.268-0.232-0.48-0.498-0.5l-0.002-0h-1c-0.268 0.020-0.48 0.232-0.5 0.498l-0 0.002v1c0.020 0.268 0.232 0.48 0.498 0.5l0.002 0zM22.5 24.5h-9.15l-1 1h10.15v2.45c-0.003 0.295-0.187 0.546-0.445 0.648l-0.005 0.002c-1.794 0.567-3.858 0.896-5.998 0.9h-0.002c-2.162-0.016-4.242-0.344-6.205-0.94l0.155 0.040c-0.177-0.069-0.324-0.181-0.433-0.323l-0.002-0.002c-0.332 0.353-0.68 0.68-1.046 0.985l-0.019 0.015c0.242 0.341 0.586 0.596 0.986 0.721l0.014 0.004c1.939 0.634 4.171 1 6.488 1 0.004 0 0.009 0 0.013 0h-0.001c2.323-0.007 4.558-0.372 6.656-1.043l-0.156 0.043c0.862-0.306 1.473-1.103 1.5-2.047l0-0.003v-17.625l-1.5 1.5zM27 3l-3 3-0.5 1.435-7.94 7.93-1.2-1.2c-0.145-0.123-0.334-0.199-0.54-0.199-0.115 0-0.225 0.023-0.325 0.066l0.005-0.002-0.53 0.535c-0.2 1.795-1.13 2.73-2.93 2.93l-6 6c-0.39 0.39-2.31 1.935 0.090 4.335s3.945 0.5 4.335 0.090l6-6c0.2-1.795 1.13-2.73 2.925-2.93l0.535-0.53c0.041-0.095 0.064-0.206 0.064-0.322 0-0.208-0.075-0.398-0.2-0.544l0.001 0.001-1.2-1.2 7.96-7.975 1.435-0.5 3-3z"></path>
</svg>
