<?xml version="1.0" encoding="UTF-8"?>
<svg width="11px" height="11px" viewBox="0 0 11 11" version="1.1" xmlns="http://www.w3.org/2000/svg" xmlns:xlink="http://www.w3.org/1999/xlink">
    <!-- Generator: sketchtool 51 (57462) - http://www.bohemiancoding.com/sketch -->
    <title>431455FF-EAA0-4156-9D19-B69A090B579B</title>
    <desc>Created with sketchtool.</desc>
    <defs></defs>
    <g id="Page-1" stroke="none" stroke-width="1" fill="none" fill-rule="evenodd">
        <g id="galaxy-alert" transform="translate(-626.000000, -302.000000)" fill="#FFFFFF" fill-rule="nonzero">
            <path d="M633.504366,307.484272 C635.239518,309.17314 636.352885,310.229456 636.844465,310.653218 C637.024475,310.808394 637.077525,311.235805 636.844465,311.493549 C636.689092,311.665379 636.235421,312.122745 635.483453,312.865649 C635.306484,313.044784 635.017394,313.044784 634.839819,312.865649 L631.5,309.502587 L628.160181,312.865649 C627.982606,313.044784 627.693516,313.044784 627.516547,312.865649 C626.764579,312.122745 626.310908,311.665379 626.155535,311.493549 C625.922475,311.235805 625.975525,310.808394 626.155535,310.653218 C626.647115,310.229456 627.760482,309.17314 629.495634,307.484272 L626.133181,304.098419 C625.955606,303.918672 625.955606,303.623374 626.133181,303.443628 L627.421056,302.135268 C627.598631,301.954911 627.887721,301.954911 628.064084,302.135268 C629.345045,303.402757 630.49035,304.532242 631.5,305.523722 C632.50965,304.532242 633.654955,303.402757 634.935916,302.135268 C635.112279,301.954911 635.401369,301.954911 635.578944,302.135268 L636.866819,303.443628 C637.044394,303.623374 637.044394,303.918672 636.866819,304.098419 L633.504366,307.484272 Z" id="Combined-Shape-Copy"></path>
        </g>
    </g>
</svg>