<?xml version="1.0" encoding="UTF-8"?>
<svg width="14px" height="15px" viewBox="0 0 14 15" version="1.1" xmlns="http://www.w3.org/2000/svg" xmlns:xlink="http://www.w3.org/1999/xlink">
    <!-- Generator: sketchtool 51 (57462) - http://www.bohemiancoding.com/sketch -->
    <title>63B7CDC8-D330-438C-A181-A9E4E2DEA11F</title>
    <desc>Created with sketchtool.</desc>
    <defs></defs>
    <g id="Page-1" stroke="none" stroke-width="1" fill="none" fill-rule="evenodd">
        <g id="galaxy-alert" transform="translate(-363.000000, -300.000000)" fill="#FF5D5D" fill-rule="nonzero">
            <path d="M372.551011,307.478553 C374.759387,309.781555 376.176399,311.221985 376.802047,311.799843 C377.03115,312.011447 377.098669,312.59428 376.802047,312.945749 C376.604298,313.180062 376.0269,313.803743 375.06985,314.816794 C374.844616,315.061069 374.476684,315.061069 374.250679,314.816794 L370,310.2308 L365.749321,314.816794 C365.523316,315.061069 365.155384,315.061069 364.93015,314.816794 C363.9731,313.803743 363.395702,313.180062 363.197953,312.945749 C362.901331,312.59428 362.96885,312.011447 363.197953,311.799843 C363.823601,311.221985 365.240613,309.781555 367.448989,307.478553 L363.169504,302.86148 C362.943499,302.616371 362.943499,302.213692 363.169504,301.968583 L364.808617,300.184457 C365.034621,299.938514 365.402554,299.938514 365.627016,300.184457 C367.257329,301.912851 368.714991,303.453057 370,304.805076 C371.285009,303.453057 372.742671,301.912851 374.372984,300.184457 C374.597446,299.938514 374.965379,299.938514 375.191383,300.184457 L376.830496,301.968583 C377.056501,302.213692 377.056501,302.616371 376.830496,302.86148 L372.551011,307.478553 Z" id="Combined-Shape"></path>
        </g>
    </g>
</svg>