<!-- Generated by IcoMoon.io -->
<svg version="1.1" xmlns="http://www.w3.org/2000/svg" width="21" height="32" viewBox="0 0 21 32">
<title>xperia</title>
<path d="M20.789 3.49v25.244c-0.023 1.032-0.691 1.901-1.617 2.222l-0.017 0.005c-2.227 0.683-6.793 1.032-9.132 1.039-2.98-0-5.871-0.38-8.629-1.092l0.239 0.052c-0.942-0.326-1.611-1.196-1.633-2.225l-0-0.003v-25.244s0-1.93 1.633-2.45c2.517-0.654 5.408-1.033 8.386-1.039h0.004c2.339 0 6.89 0.371 9.132 1.039 0.961 0.419 1.622 1.356 1.633 2.449v0.001zM2.227 5.197h16.334v-1.663c0-0.052-0.045-0.334-0.148-0.393-2.509-0.556-5.4-0.887-8.363-0.913l-0.019-0c-2.736 0.009-5.39 0.347-7.928 0.976l0.229-0.048c-0.046 0.097-0.082 0.209-0.103 0.326l-0.001 0.008zM2.227 6.682v17.819h16.334v-17.819zM18.561 28.674v-2.688h-16.334v2.695c0.007 0.058 0.023 0.111 0.046 0.159l-0.001-0.003c2.313 0.594 4.968 0.936 7.704 0.936 0.004 0 0.007 0 0.011 0h-0.001c2.109 0 6.43-0.327 8.449-0.936h0.052c0.027-0.046 0.052-0.1 0.072-0.157l0.002-0.007zM10.617 26.729h-1.188c-0.005-0-0.010-0-0.015-0-0.274 0-0.497 0.218-0.505 0.489l-0 0.001v1.188c-0 0.005-0 0.010-0 0.015 0 0.274 0.218 0.497 0.489 0.505l0.001 0h1.218c0.005 0 0.010 0 0.015 0 0.274 0 0.497-0.218 0.505-0.489l0-0.001v-1.188c0-0.005 0-0.010 0-0.015 0-0.274-0.218-0.497-0.489-0.505l-0.001-0z"></path>
<path d="M9.578 13.461l-2.851-3.341h-1.975l3.831 4.499 0.995-1.158z"></path>
<path d="M16.097 10.12h-1.975l-9.526 11.063h2.005l3.816-4.462 3.787 4.462h1.982l-4.804-5.591 4.715-5.472z"></path>
</svg>
