<!-- Generated by IcoMoon.io -->
<svg version="1.1" xmlns="http://www.w3.org/2000/svg" width="32" height="32" viewBox="0 0 32 32">
<title>zarejestruj-na-karte-service</title>
<path d="M10.5 12c-0.552 0-1 0.448-1 1v0 12c0 0.552 0.448 1 1 1v0h11c0.552 0 1-0.448 1-1v0-12c0-0.552-0.448-1-1-1v0zM18 13v3.5h-4v-3.5zM10.5 13h3v3.5h-3zM10.5 25v-3.5h3v3.5zM14 25v-3.5h4v3.5zM21.5 25h-3v-4h-8v-4h11zM21.5 13v3.5h-3v-3.5z"></path>
<path d="M20 2h-13c-0.552 0-1 0.448-1 1v0 26c0 0.552 0.448 1 1 1v0h18c0.552 0 1-0.448 1-1v0-21zM24.5 28.5h-17v-25h11.855l5.145 5.145z"></path>
</svg>
