<!-- Generated by IcoMoon.io -->
<svg version="1.1" xmlns="http://www.w3.org/2000/svg" width="32" height="32" viewBox="0 0 32 32">
<title>zarzadzaj_kontem</title>
<path d="M27.496 16c-0.003-0.718-0.071-1.418-0.199-2.096l0.011 0.071 3.867-3.217c-0.708-2.003-1.728-3.73-3.017-5.216l0.017 0.020-4.717 1.711c-0.997-0.847-2.163-1.533-3.435-2l-0.079-0.025-0.856-4.963c-0.902-0.181-1.939-0.285-3-0.285s-2.098 0.104-3.101 0.302l0.101-0.017-0.856 4.957c-1.351 0.491-2.517 1.178-3.53 2.038l0.016-0.013-4.717-1.711c-1.274 1.466-2.294 3.193-2.966 5.085l-0.035 0.111 3.867 3.217c-0.12 0.609-0.189 1.309-0.189 2.025s0.069 1.416 0.2 2.094l-0.011-0.069-3.867 3.229c0.708 2.003 1.728 3.73 3.017 5.216l-0.017-0.020 4.717-1.711c0.997 0.847 2.163 1.533 3.435 2l0.079 0.025 0.856 4.957c0.902 0.181 1.939 0.285 3 0.285s2.098-0.104 3.101-0.302l-0.101 0.017 0.856-4.957c1.351-0.491 2.517-1.177 3.53-2.038l-0.016 0.013 4.717 1.711c1.274-1.466 2.294-3.193 2.966-5.085l0.035-0.111-3.867-3.217c0.117-0.609 0.186-1.311 0.188-2.028v-0.002zM29.127 21.773c-0.449 1.007-0.958 1.873-1.55 2.674l0.027-0.038-3.531-1.312-0.935-0.342-0.776 0.662c-0.846 0.717-1.836 1.297-2.916 1.69l-0.067 0.021-0.935 0.337-0.171 0.981-0.645 3.742c-0.457 0.053-0.986 0.083-1.523 0.083s-1.066-0.030-1.587-0.089l0.064 0.006-0.662-3.748-0.171-0.981-0.935-0.331c-1.153-0.412-2.149-0.993-3.015-1.723l0.014 0.012-0.764-0.645-0.935 0.342-3.559 1.312c-0.566-0.763-1.077-1.628-1.493-2.546l-0.036-0.089 3.679-3.069-0.148-1.010c-0.102-0.514-0.16-1.106-0.16-1.711s0.058-1.197 0.169-1.769l-0.009 0.058 0.177-0.981-3.685-3.080c0.452-1.007 0.962-1.873 1.556-2.673l-0.027 0.038 4.495 1.654 0.742-0.662c0.846-0.717 1.836-1.297 2.916-1.69l0.067-0.021 0.935-0.337 0.171-0.981 0.645-3.742c0.459-0.049 0.992-0.077 1.532-0.077s1.072 0.028 1.597 0.083l-0.066-0.006 0.645 3.742 0.171 0.981 0.935 0.337c1.154 0.412 2.149 0.993 3.015 1.723l-0.014-0.012 0.759 0.645 0.935-0.342 3.559-1.312c0.565 0.762 1.073 1.628 1.487 2.546l0.036 0.089-3.679 3.069 0.165 1.010c0.102 0.514 0.161 1.106 0.161 1.711s-0.059 1.197-0.17 1.769l0.009-0.058-0.177 0.981 0.764 0.639zM16.087 8.864c-3.937 0.010-7.124 3.203-7.124 7.142 0 3.944 3.197 7.142 7.142 7.142s7.142-3.197 7.142-7.142v0c0 0 0 0 0 0 0-3.944-3.197-7.142-7.142-7.142-0.006 0-0.012 0-0.018 0h0.001zM16.087 21.413c-2.992-0.010-5.413-2.437-5.413-5.43 0-2.999 2.431-5.43 5.43-5.43 2.995 0 5.424 2.425 5.43 5.418v0.001c-0.003 2.998-2.433 5.427-5.43 5.43v0z"></path>
</svg>
