<!-- Generated by IcoMoon.io -->
<svg version="1.1" xmlns="http://www.w3.org/2000/svg" width="32" height="32" viewBox="0 0 32 32">
<title>zdalny-serwis-service</title>
<path d="M14.025 18.445l10.075-10.075 1.5-0.77 3.155-3.155-2.2-2.205-3.155 3.16-0.77 1.5-10.075 10.1-0.905-0.905c-0.167-0.166-0.398-0.269-0.652-0.269s-0.485 0.103-0.653 0.269l0-0-8.070 8.050c-0.585 0.585-0.948 1.394-0.948 2.288s0.362 1.702 0.948 2.288v0c0.563 0.622 1.365 1.018 2.261 1.040l0.004 0c0.955-0.052 1.812-0.438 2.462-1.042l-0.002 0.002 7.93-8.065c0.166-0.167 0.269-0.398 0.269-0.652s-0.103-0.485-0.269-0.653l0 0zM5.95 27.65c-0.376 0.34-0.863 0.563-1.401 0.609l-0.009 0.001c-0.484-0.029-0.91-0.255-1.203-0.598l-0.002-0.002c-0.314-0.314-0.509-0.748-0.509-1.227s0.194-0.913 0.509-1.227v0l7.665-7.665 2.465 2.46zM30.415 25.545l-11.040-11.045-1.060 1.060 10.86 10.87-1.675 1.675-10.86-10.86-1.060 1.060 11.045 11.035c0.226 0.225 0.538 0.365 0.883 0.365s0.656-0.139 0.883-0.365l-0 0 2-2.025c0.225-0.226 0.365-0.538 0.365-0.883s-0.139-0.656-0.365-0.883l0 0zM4.135 14c0.181 0.181 0.431 0.293 0.707 0.293s0.527-0.112 0.707-0.293v0l2.87-2.87 4.275 4.275 1.060-1.060-4.255-4.26 1.67-1.67 4.28 4.275 1.050-1.060-4.28-4.275 4.37-4.355c0.39-0.39 0.255-0.705-0.295-0.705h-6.65l-7.925 7.89c-0.181 0.181-0.293 0.431-0.293 0.707s0.112 0.527 0.293 0.707v0zM10.27 3.77h3.405l-8.83 8.83-1.71-1.705z"></path>
</svg>
