<!-- Generated by IcoMoon.io -->
<svg version="1.1" xmlns="http://www.w3.org/2000/svg" width="53" height="32" viewBox="0 0 53 32">
<title>zestawy-biznesowe-menu</title>
<path d="M35.387 11.429c-0.002 0-0.005-0-0.007-0-0.632 0-1.144 0.512-1.144 1.144 0 0 0 0 0 0v0 13.709c0 0.632 0.512 1.144 1.144 1.144h12.58c0.632 0 1.144-0.512 1.144-1.144v0-13.709c0-0.632-0.512-1.144-1.144-1.144v0zM43.961 12.573v3.999h-4.575v-3.999zM35.387 12.573h3.431v3.999h-3.431zM35.387 26.282v-3.999h3.431v3.999zM39.386 26.282v-3.999h4.567v3.999zM47.96 26.282h-3.431v-4.567h-9.142v-4.575h12.573zM47.96 12.573v3.999h-3.431v-3.999z"></path>
<path d="M46.248 0h-14.86c-0.632 0-1.144 0.512-1.144 1.144v29.713c0 0.632 0.512 1.144 1.144 1.144v0h20.571c0.632 0 1.144-0.512 1.144-1.144v0-24.002zM51.391 30.281h-19.427v-28.569h13.549l5.878 5.878z"></path>
<path d="M24.264 26.282v-3.999h4.516v-0.568h-8.515v-4.575h8.515v-0.568h-4.516v-3.999h4.516v-1.144h-8.515c-0.632 0-1.144 0.512-1.144 1.144v0 13.709c0 0.632 0.512 1.144 1.144 1.144v0h8.515v-1.144zM20.265 12.573h3.431v3.999h-3.431zM23.696 26.289h-3.431v-4.006h3.431z"></path>
<path d="M16.834 30.281v-28.569h11.946v-1.712h-12.514c-0.632 0-1.144 0.512-1.144 1.144v29.713c0 0.632 0.512 1.144 1.144 1.144v0h12.514v-1.719z"></path>
<path d="M9.142 26.282v-3.999h4.516v-0.568h-8.515v-4.575h8.515v-0.568h-4.516v-3.999h4.516v-1.144h-8.515c-0.632 0-1.144 0.512-1.144 1.144v0 13.709c0 0.632 0.512 1.144 1.144 1.144v0h8.515v-1.144zM5.143 12.573h3.431v3.999h-3.431zM8.574 26.289h-3.431v-4.006h3.431z"></path>
<path d="M1.712 30.281v-28.569h11.946v-1.712h-12.514c-0.632 0-1.144 0.512-1.144 1.144v0 29.713c0 0.632 0.512 1.144 1.144 1.144h12.514v-1.719z"></path>
</svg>
