<svg aria-hidden="true" style="position: absolute; width: 0; height: 0; overflow: hidden;" version="1.1" xmlns="http://www.w3.org/2000/svg" xmlns:xlink="http://www.w3.org/1999/xlink">
<defs>
<symbol id="box-1" viewBox="0 0 40 32">
<title>1</title>
<path d="M0.843 9.712c-0.018 0.001-0.040 0.002-0.062 0.002-0.466 0-0.843-0.378-0.843-0.843 0-0.262 0.119-0.496 0.306-0.65l0.001-0.001c5.096-5.084 12.13-8.228 19.898-8.228s14.802 3.144 19.899 8.228l-0.001-0.001c0.153 0.153 0.247 0.364 0.247 0.597 0 0.466-0.378 0.844-0.844 0.844-0.233 0-0.444-0.095-0.597-0.247v0c-4.79-4.78-11.402-7.735-18.704-7.735s-13.914 2.956-18.704 7.736l0-0c-0.151 0.152-0.361 0.246-0.593 0.246-0.002 0-0.003 0-0.005 0h0z"></path>
<path d="M6.516 15.354c-0 0-0.001 0-0.001 0-0.466 0-0.843-0.378-0.843-0.843 0-0.233 0.095-0.444 0.248-0.597l0-0c3.623-3.647 8.641-5.904 14.186-5.904 0.017 0 0.033 0 0.050 0h-0.003c0.018-0 0.039-0 0.061-0 5.536 0 10.546 2.251 14.164 5.888l0.001 0.001c0.153 0.153 0.247 0.364 0.247 0.597 0 0.466-0.378 0.844-0.844 0.844-0.233 0-0.444-0.095-0.597-0.247v0c-3.314-3.324-7.898-5.381-12.962-5.381-0.024 0-0.049 0-0.073 0h0.004c-0.019-0-0.041-0-0.064-0-5.070 0-9.659 2.060-12.975 5.388l-0.001 0.001c-0.153 0.152-0.363 0.246-0.596 0.246-0 0-0.001 0-0.002 0h0z"></path>
<path d="M12.487 21.325c-0 0-0.001 0-0.001 0-0.466 0-0.843-0.378-0.843-0.843 0-0.233 0.095-0.444 0.248-0.597l0-0c2.114-2.109 5.032-3.413 8.255-3.413s6.141 1.304 8.255 3.414l-0-0c0.153 0.153 0.247 0.364 0.247 0.597 0 0.466-0.378 0.844-0.844 0.844-0.233 0-0.444-0.095-0.597-0.247v0c-1.808-1.805-4.304-2.921-7.061-2.921s-5.253 1.116-7.061 2.921l0-0c-0.153 0.152-0.363 0.246-0.596 0.246-0.001 0-0.001 0-0.002 0h0z"></path>
<path d="M20.152 25.818v0c1.234 0.003 2.234 1.004 2.234 2.239 0 1.237-1.002 2.239-2.239 2.239s-2.239-1.002-2.239-2.239c0-0.618 0.25-1.177 0.655-1.582l-0 0c0.405-0.406 0.965-0.657 1.584-0.657 0.002 0 0.004 0 0.006 0h-0zM20.152 24.132c-2.168 0.001-3.925 1.758-3.925 3.926s1.758 3.926 3.926 3.926 3.926-1.758 3.926-3.926c0-1.084-0.44-2.066-1.15-2.776v0c-0.709-0.71-1.69-1.149-2.772-1.149-0.001 0-0.003 0-0.004 0h0z"></path>
</symbol>
<symbol id="box-2" viewBox="0 0 31 32">
<title>2</title>
<path d="M16.508 32.015h-13.998c-1.385-0.003-2.507-1.126-2.507-2.512 0-0.005 0-0.010 0-0.016v0.001-26.981c0.003-1.383 1.124-2.504 2.507-2.507h13.998c1.383 0.003 2.504 1.124 2.507 2.507v10.235h-3.137v-8.999h-12.737v21.632h7.856l0.148 0.222c0.456 0.698 1.234 1.153 2.118 1.153 0.002 0 0.004 0 0.005 0h5.748v2.739c0 0.004 0 0.010 0 0.015 0 1.386-1.122 2.509-2.507 2.512h-0zM2.51 0.985c-0.839 0.003-1.519 0.683-1.522 1.522v26.981c-0 0.004-0 0.010-0 0.015 0 0.842 0.681 1.524 1.522 1.527h13.998c0.839-0.003 1.519-0.683 1.522-1.522v-1.768h-4.768c-0.001 0-0.002 0-0.003 0-1.132 0-2.139-0.537-2.779-1.371l-0.006-0.008h-8.319v-23.602h14.707v8.999h1.167v-9.25c-0.003-0.839-0.683-1.519-1.522-1.522h-0zM9.509 30.759c-0.001 0-0.003 0-0.005 0-1.074 0-1.946-0.871-1.946-1.945s0.871-1.945 1.946-1.945c1.074 0 1.946 0.871 1.946 1.945 0 0.002 0 0.003 0 0.005v-0c-0.003 1.071-0.87 1.938-1.94 1.941h-0zM9.509 27.858c-0.001 0-0.003 0-0.005 0-0.53 0-0.96 0.43-0.96 0.96s0.43 0.96 0.96 0.96c0.53 0 0.96-0.43 0.96-0.96v0c0 0 0 0 0 0 0-0.529-0.427-0.958-0.955-0.96h-0z"></path>
<path d="M10.238 22.913v1.31c0 1.67 1.354 3.024 3.024 3.024v0h14.323c1.67 0 3.024-1.354 3.024-3.024v0-8.954c-0.003-1.668-1.356-3.019-3.024-3.019 0 0 0 0 0 0h-14.323c0 0 0 0 0 0-1.668 0-3.021 1.351-3.024 3.019v7.644zM11.223 15.766h18.406v1.803h-18.406zM29.555 14.776h-18.263c0.228-0.892 1.022-1.542 1.97-1.547h14.323c0.948 0.004 1.743 0.654 1.967 1.532l0.003 0.014zM27.585 26.262h-14.323c-1.126 0-2.039-0.913-2.039-2.039v0-5.674h18.406v5.674c0 0 0 0 0 0 0 1.126-0.913 2.039-2.039 2.039-0.002 0-0.003 0-0.005 0h0z"></path>
<path d="M26.886 19.79c-0.044-0.017-0.095-0.026-0.148-0.026-0.141 0-0.266 0.068-0.344 0.173l-0.001 0.001-2.182 2.891c-0.053 0.071-0.085 0.16-0.085 0.256 0 0.235 0.19 0.426 0.425 0.428h1.754v0.867c0 0.235 0.191 0.426 0.426 0.426s0.426-0.191 0.426-0.426v0-0.872h0.192c0.235 0 0.426-0.191 0.426-0.426s-0.191-0.426-0.426-0.426v0h-0.192v-2.463c0-0.003 0-0.006 0-0.009 0-0.179-0.111-0.332-0.268-0.394l-0.003-0.001zM26.324 22.657h-0.896l0.901-1.192z"></path>
<path d="M20.355 24.134c-0.080 0.077-0.13 0.186-0.13 0.305 0 0.234 0.19 0.424 0.424 0.424 0.002 0 0.005-0 0.007-0h2.521c0.235 0 0.426-0.191 0.426-0.426s-0.191-0.426-0.426-0.426v0h-1.502l1.374-1.354c0.308-0.308 0.498-0.732 0.498-1.202 0-0.939-0.761-1.7-1.7-1.7-0.469 0-0.894 0.19-1.202 0.498v0l-0.222 0.222c-0.077 0.077-0.124 0.183-0.124 0.3 0 0.235 0.19 0.425 0.425 0.425 0.117 0 0.224-0.048 0.3-0.124l0.222-0.222c0.155-0.17 0.378-0.276 0.625-0.276 0.468 0 0.847 0.379 0.847 0.847 0 0.247-0.106 0.47-0.275 0.625l-0.001 0.001z"></path>
</symbol>
<symbol id="box-3" viewBox="0 0 25 32">
<title>3</title>
<path d="M16.509 32.015h-13.998c-1.385-0.003-2.507-1.126-2.507-2.512 0-0.003 0-0.007 0-0.010v0.001-26.986c0.003-1.383 1.124-2.504 2.507-2.507h13.998c1.383 0.003 2.504 1.124 2.507 2.507v14.648h-3.137v-13.412h-12.737v21.632h8.831l0.148 0.217 3.448 2.561c0.010 0.003 0.022 0.005 0.034 0.005s0.024-0.002 0.035-0.006l-0.001 0h0.049c0.037-0.018 0.063-0.055 0.064-0.098v-1.207h3.265v2.645c0 0.003 0 0.006 0 0.010 0 1.386-1.122 2.509-2.507 2.512h-0zM2.511 0.985c-0.841 0-1.522 0.681-1.522 1.522v0 26.986c-0 0.004-0 0.010-0 0.015 0 0.841 0.681 1.522 1.522 1.522 0 0 0 0 0 0h13.998c0.839-0.003 1.519-0.683 1.522-1.522v-1.675h-1.31v0.241c0 0.002 0 0.004 0 0.006 0 0.426-0.244 0.795-0.6 0.976l-0.006 0.003c-0.144 0.072-0.313 0.114-0.492 0.114-0.246 0-0.474-0.080-0.659-0.215l0.003 0.002-3.482-2.581h-9.329v-23.622h14.707v13.412h1.167v-13.663c-0.003-0.839-0.683-1.519-1.522-1.522h-0zM9.51 30.764c-1.074 0-1.946-0.871-1.946-1.945s0.871-1.945 1.946-1.945c1.074 0 1.946 0.871 1.946 1.945v0c0 1.074-0.871 1.945-1.945 1.945v0zM9.51 27.863c-0.53 0-0.96 0.43-0.96 0.96s0.43 0.96 0.96 0.96c0.53 0 0.96-0.43 0.96-0.96v0c0-0.001 0-0.003 0-0.005 0-0.53-0.43-0.96-0.96-0.96 0 0 0 0 0 0v0z"></path>
<path d="M19.016 24.218h-3.137v-4.433h3.137zM16.864 23.233h1.167v-2.463h-1.167z"></path>
<path d="M15.622 29.158c-0.001 0-0.002 0-0.003 0-0.246 0-0.472-0.081-0.655-0.219l0.003 0.002-3.413-2.527c-0.27-0.202-0.443-0.522-0.443-0.882s0.173-0.679 0.44-0.88l0.003-0.002 3.413-2.532c0.182-0.133 0.409-0.212 0.656-0.212 0.179 0 0.348 0.042 0.498 0.117l-0.006-0.003c0.359 0.184 0.601 0.552 0.601 0.976 0 0.003 0 0.006-0 0.009v-0 0.232h6.871c0.603 0.003 1.091 0.491 1.093 1.093v2.404c0 0.607-0.492 1.098-1.098 1.098v0h-6.861v0.241c0 0.607-0.492 1.098-1.098 1.098v0zM15.622 22.888c-0.010-0.003-0.022-0.005-0.034-0.005s-0.024 0.002-0.035 0.006l0.001-0-3.413 2.532c-0.027 0.021-0.044 0.053-0.044 0.089v0c0.001 0.038 0.020 0.072 0.049 0.093l0 0 3.413 2.527c0.010 0.003 0.022 0.005 0.034 0.005s0.024-0.002 0.035-0.006l-0.001 0h0.049c0.037-0.018 0.063-0.055 0.064-0.098v-1.182h7.846c0.063 0 0.113-0.051 0.113-0.113v0-2.404c0-0.063-0.051-0.113-0.113-0.113v0h-7.851v-1.217c-0.001-0.043-0.027-0.080-0.063-0.098l-0.001-0z"></path>
<path d="M20.168 22.095c-0.607 0-1.098-0.492-1.098-1.098v0-0.232h-6.861c-0.607 0-1.098-0.492-1.098-1.098v0-2.399c0-0.607 0.492-1.098 1.098-1.098v0h6.861v-0.232c0-0.002-0-0.004-0-0.006 0-0.426 0.244-0.795 0.6-0.976l0.006-0.003c0.144-0.072 0.313-0.114 0.492-0.114 0.246 0 0.474 0.080 0.659 0.215l-0.003-0.002 3.413 2.532c0.27 0.202 0.443 0.522 0.443 0.882s-0.173 0.679-0.44 0.88l-0.003 0.002-3.413 2.532c-0.179 0.135-0.406 0.217-0.652 0.217-0.001 0-0.002 0-0.003 0h0zM12.209 17.17c-0.063 0-0.113 0.051-0.113 0.113v0 2.404c0 0.063 0.051 0.113 0.113 0.113v0h7.846v1.217c0.001 0.043 0.027 0.080 0.063 0.098l0.001 0c0.016 0.012 0.037 0.020 0.059 0.020s0.043-0.007 0.059-0.020l3.408-2.556c0.028-0.021 0.046-0.054 0.046-0.091s-0.018-0.070-0.046-0.091l-0-0-3.413-2.527c-0.016-0.012-0.037-0.020-0.059-0.020s-0.043 0.007-0.059 0.020l0-0c-0.038 0.019-0.064 0.057-0.064 0.102 0 0.001 0 0.001 0 0.002v-0 1.217z"></path>
</symbol>
<symbol id="box-4" viewBox="0 0 21 32">
<title>4</title>
<path d="M16.632 11.78c-0.637-0.652-1.522-1.059-2.502-1.068h-7.192c-1.955 0.006-3.538 1.589-3.544 3.544v10.964c0.006 1.955 1.589 3.538 3.544 3.544h7.207c1.955-0.006 3.538-1.589 3.544-3.544v-10.938c-0.006-0.98-0.409-1.865-1.056-2.503l-0-0zM15.837 12.576c0.438 0.437 0.71 1.041 0.71 1.708v3.107h-1.959v-0.801c0-0.003 0-0.007 0-0.011 0-0.313-0.253-0.566-0.566-0.566-0 0-0 0-0 0h-2.669v-4.147h2.786c0.664 0.003 1.263 0.274 1.697 0.71l0 0zM12.811 22.344h-5.22v-5.183h5.872v5.183zM4.505 14.284c0.006-1.337 1.091-2.418 2.429-2.418 0.002 0 0.004 0 0.006 0h3.293v4.147h-3.203c-0.313 0-0.566 0.253-0.566 0.566v0 2.503h-1.959zM5.215 26.929c-0.438-0.437-0.71-1.041-0.71-1.708v-4.991h1.964v2.669c-0 0.006-0 0.014-0 0.021 0 0.311 0.25 0.563 0.561 0.566h0.534v4.169h-0.625c-0.675-0-1.286-0.278-1.724-0.726l-0-0zM12.154 27.639h-3.47v-4.153h3.47zM16.547 25.221c-0.006 1.333-1.085 2.412-2.417 2.418h-0.748v-4.153h0.641c0.31 0 0.56-0.251 0.56-0.56v0-4.404h1.964z"></path>
<path d="M17.652 32.027h-14.449c-1.769 0-3.203-1.434-3.203-3.203v0-21.655c-0.011-0.070-0.017-0.15-0.017-0.232 0-0.493 0.229-0.932 0.585-1.218l0.003-0.002 5.108-5.108 0.123-0.128c0.132-0.154 0.293-0.279 0.477-0.365l0.009-0.004c0.168-0.072 0.363-0.114 0.568-0.114 0.029 0 0.058 0.001 0.087 0.003l-0.004-0h10.676c0.882 0.002 1.68 0.361 2.258 0.939l0 0c0.593 0.574 0.965 1.374 0.977 2.261l0 0.002v25.621c0 1.769-1.434 3.203-3.203 3.203v0zM6.912 1.068c-0.144 0-0.16 0-0.192 0s-0.037 0-0.149 0.133l-0.133 0.139-5.13 5.14c-0.24 0.23-0.24 0.23-0.24 0.689v21.655c0 1.179 0.956 2.135 2.135 2.135v0h14.449c1.179 0 2.135-0.956 2.135-2.135v0-25.621c0-0.002 0-0.005 0-0.007 0-0.589-0.239-1.123-0.625-1.509l0 0c-0.386-0.383-0.917-0.619-1.504-0.619-0.002 0-0.005 0-0.007 0h-10.739z"></path>
</symbol>
<symbol id="box-5" viewBox="0 0 32 32">
<title>5</title>
<path d="M0.558 31.439v-4.842h3.232v-17.363h3.098v-3.831h-3.098v-4.847h16.658v4.342h3.098v4.847h-3.093v2.471c-0.019 0.124-0.125 0.218-0.253 0.218s-0.234-0.094-0.252-0.216l-0-0.001v-2.476h-15.653v3.837h12.027c0.124 0.019 0.218 0.125 0.218 0.253s-0.094 0.234-0.216 0.252l-0.001 0h-12.027v3.837h8.529c0.011-0.002 0.024-0.003 0.038-0.003 0.141 0 0.255 0.114 0.255 0.255s-0.114 0.255-0.255 0.255c-0.013 0-0.026-0.001-0.039-0.003l0.001 0h-8.529v3.837h7.274c0.124 0.019 0.218 0.125 0.218 0.253s-0.094 0.234-0.216 0.252l-0.001 0h-7.274v3.831h7.707c0.011-0.002 0.024-0.003 0.038-0.003 0.141 0 0.255 0.114 0.255 0.255s-0.114 0.255-0.255 0.255c-0.013 0-0.026-0.001-0.039-0.003l0.001 0h-10.939v3.837h18.701l-1.438-1.016c-2.151-1.527-3.538-4.008-3.538-6.813 0-4.6 3.729-8.329 8.329-8.329s8.329 3.729 8.329 8.329c0 4.6-3.729 8.329-8.329 8.329-0.004 0-0.007 0-0.011 0h-0.344zM23.113 15.281c-4.324 0-7.829 3.505-7.829 7.829s3.505 7.829 7.829 7.829c4.324 0 7.829-3.505 7.829-7.829v0c-0.003-4.323-3.507-7.826-7.829-7.829h-0zM7.393 9.234h15.659v-3.831h-15.659zM4.295 4.897h15.653v-3.837h-15.653z"></path>
<path d="M22.769 32h-22.766v-5.958h3.232v-17.363h3.098v-2.721h-3.098v-5.958h17.769v4.342h3.098v5.952h-3.093v1.921c-0.036 0.418-0.384 0.744-0.808 0.744s-0.772-0.326-0.808-0.741l-0-0.003v-1.921h-14.542v2.726h11.472c0.418 0.036 0.744 0.384 0.744 0.808s-0.326 0.772-0.741 0.808l-0.003 0h-11.472v2.726h7.974c0.020-0.002 0.043-0.003 0.067-0.003 0.448 0 0.811 0.363 0.811 0.811s-0.363 0.811-0.811 0.811c-0.024 0-0.047-0.001-0.070-0.003l0.003 0h-7.974v2.726h6.719c0.418 0.036 0.744 0.384 0.744 0.808s-0.326 0.772-0.741 0.808l-0.003 0h-6.719v2.721h7.152c0.020-0.002 0.043-0.003 0.067-0.003 0.448 0 0.811 0.363 0.811 0.811s-0.363 0.811-0.811 0.811c-0.024 0-0.047-0.001-0.070-0.003l0.003 0h-10.383v2.726h16.391c-2.296-1.628-3.775-4.276-3.775-7.268 0-4.907 3.978-8.884 8.884-8.884s8.884 3.978 8.884 8.884c0 4.907-3.978 8.884-8.884 8.884-0.002 0-0.004 0-0.006 0h-0.344zM23.085 15.836c-4.017 0-7.274 3.257-7.274 7.274s3.257 7.274 7.274 7.274c4.017 0 7.274-3.257 7.274-7.274v0c-0.003-4.006-3.242-7.255-7.244-7.274h-0.002zM7.949 8.679h14.548v-2.721h-14.548zM4.85 4.342h14.542v-2.726h-14.542z"></path>
<path d="M21.658 19.134h3.332v0.627h-2.854l-0.461 2.776c0.312-0.436 0.816-0.717 1.387-0.717 0.020 0 0.040 0 0.060 0.001l-0.003-0c0.019-0.001 0.041-0.001 0.063-0.001 0.598 0 1.134 0.266 1.495 0.687l0.002 0.003c0.413 0.506 0.664 1.158 0.664 1.87 0 0.047-0.001 0.095-0.003 0.141l0-0.007c0.002 0.039 0.003 0.084 0.003 0.129 0 0.786-0.287 1.504-0.761 2.057l0.004-0.004c-0.383 0.432-0.94 0.702-1.559 0.702-0.037 0-0.075-0.001-0.112-0.003l0.005 0c-0.030 0.002-0.066 0.003-0.102 0.003-0.629 0-1.191-0.287-1.561-0.738l-0.003-0.003c-0.291-0.385-0.466-0.872-0.466-1.399v-0h0.65c0.016 0.366 0.138 0.701 0.337 0.977l-0.004-0.005c0.262 0.34 0.67 0.557 1.129 0.557 0.027 0 0.053-0.001 0.080-0.002l-0.004 0c0.006 0 0.013 0 0.020 0 0.474 0 0.894-0.235 1.148-0.595l0.003-0.004c0.307-0.427 0.49-0.961 0.49-1.537 0-0.032-0.001-0.063-0.002-0.095l0 0.005c0.002-0.033 0.002-0.073 0.002-0.112 0-0.535-0.165-1.031-0.447-1.44l0.006 0.009c-0.262-0.363-0.684-0.596-1.16-0.596-0.024 0-0.047 0.001-0.071 0.002l0.003-0c-0.631 0.012-1.17 0.392-1.412 0.934l-0.004 0.010-0.555-0.089z"></path>
<path d="M22.941 27.674c-0.036 0.002-0.077 0.003-0.119 0.003-0.716 0-1.356-0.328-1.777-0.843l-0.003-0.004c-0.335-0.427-0.542-0.968-0.555-1.557l-0-0.003v-0.289h1.199v0.255c0.012 0.311 0.114 0.596 0.281 0.832l-0.003-0.005c0.212 0.279 0.544 0.457 0.918 0.457 0.023 0 0.046-0.001 0.068-0.002l-0.003 0c0.009 0 0.019 0 0.029 0 0.381 0 0.718-0.192 0.918-0.485l0.002-0.004c0.269-0.381 0.429-0.856 0.429-1.368 0-0.033-0.001-0.065-0.002-0.097l0 0.005c0.002-0.032 0.003-0.070 0.003-0.108 0-0.473-0.144-0.913-0.391-1.278l0.005 0.008c-0.212-0.292-0.553-0.48-0.937-0.48-0.024 0-0.048 0.001-0.071 0.002l0.003-0c-0.525 0.015-0.972 0.336-1.168 0.791l-0.003 0.009-0.094 0.172-0.466-0.072-0.028 0.039v-0.056l-0.555-0.083 0.772-4.636h3.887v1.183h-2.91l-0.294 1.766c0.29-0.164 0.636-0.261 1.006-0.261 0.013 0 0.027 0 0.040 0l-0.002-0c0.021-0.001 0.047-0.001 0.072-0.001 0.677 0 1.284 0.303 1.691 0.781l0.003 0.003c0.455 0.554 0.73 1.27 0.73 2.050 0 0.048-0.001 0.097-0.003 0.144l0-0.007c0.002 0.039 0.002 0.084 0.002 0.13 0 0.855-0.312 1.638-0.828 2.24l0.004-0.005c-0.432 0.476-1.054 0.774-1.745 0.774-0.037 0-0.073-0.001-0.109-0.002l0.005 0zM21.103 25.542c0.043 0.362 0.181 0.686 0.387 0.954l-0.003-0.005c0.322 0.39 0.806 0.637 1.347 0.637 0.042 0 0.083-0.001 0.124-0.004l-0.006 0c0.025 0.001 0.055 0.002 0.085 0.002 0.536 0 1.016-0.234 1.346-0.605l0.002-0.002c0.427-0.498 0.686-1.15 0.686-1.863 0-0.048-0.001-0.096-0.003-0.143l0 0.007c0.002-0.039 0.003-0.085 0.003-0.131 0-0.642-0.223-1.231-0.596-1.695l0.004 0.005c-0.308-0.362-0.763-0.59-1.272-0.59-0.027 0-0.054 0.001-0.081 0.002l0.004-0c-0.199 0-0.39 0.037-0.566 0.104l0.011-0.004c0.127-0.032 0.272-0.050 0.422-0.050 0.004 0 0.008 0 0.012 0h-0.001c0.017-0.001 0.037-0.001 0.056-0.001 0.561 0 1.058 0.272 1.367 0.69l0.003 0.005c0.311 0.447 0.496 1.001 0.496 1.598 0 0.038-0.001 0.075-0.002 0.112l0-0.005c0.001 0.022 0.001 0.048 0.001 0.074 0 0.646-0.209 1.243-0.562 1.728l0.006-0.008c-0.305 0.432-0.802 0.711-1.365 0.711-0.010 0-0.020-0-0.030-0l0.002 0c-0.026 0.002-0.057 0.002-0.088 0.002-0.547 0-1.032-0.263-1.335-0.67l-0.003-0.004c-0.177-0.238-0.303-0.526-0.354-0.838l-0.002-0.011zM21.88 19.434l-0.555 3.543 0.555-3.47h2.821v-0.072z"></path>
</symbol>
</defs>
</svg>