<?xml version="1.0" standalone="no"?>
<!DOCTYPE svg PUBLIC "-//W3C//DTD SVG 1.1//EN" "http://www.w3.org/Graphics/SVG/1.1/DTD/svg11.dtd" >
<svg xmlns="http://www.w3.org/2000/svg" xmlns:xlink="http://www.w3.org/1999/xlink" version="1.1">
<metadata>
Created by FontForge 20170731 at Tue Jun 12 18:49:23 2012
 By Aleksey,,,
Copyright (c) 2011 by HEYAH. All rights reserved.
</metadata>
<defs>
<font id="HEYAH-Light" horiz-adv-x="611" >
  <font-face 
    font-family="HEYAH"
    font-weight="300"
    font-stretch="normal"
    units-per-em="1000"
    panose-1="2 0 0 0 0 0 0 0 0 0"
    ascent="750"
    descent="-250"
    x-height="539"
    cap-height="700"
    bbox="-84 -266 3217 962"
    underline-thickness="50"
    underline-position="-200"
    unicode-range="U+000D-FB06"
  />
<missing-glyph horiz-adv-x="205" 
 />
    <glyph glyph-name="fi" unicode="fi" horiz-adv-x="422" 
d="M109 540h263v-540h-59v480h-204v-480h-59v557q1 91 65.5 155.5t155.5 64.5v-59q-67 0 -114.5 -47.5t-47.5 -114.5v-16z" />
    <glyph glyph-name="st" unicode="st" horiz-adv-x="730" 
d="M226 491q-76 -2 -110 -47q-19 -25 -16 -60q2 -23 14 -39t35.5 -23.5t40 -10.5t46.5 -6q75 -10 123.5 -34t61.5 -78q4 -24 4 -34q0 -71 -60 -115.5t-138 -44.5q-82 0 -142 57.5t-60 143.5h60q0 -60 41.5 -101t102.5 -41q55 1 100 35t31 88q-4 18 -16.5 30.5t-34.5 19
t-37 8.5t-43 5q-40 4 -67 10t-57 20t-46.5 40.5t-19.5 65.5q-4 55 28 98q57 73 159 73h258v169h59v-169h162v-70h-162v-259q0 -67 47.5 -114.5t114.5 -47.5v-59q-91 0 -155.5 64t-65.5 156v270h-258z" />
    <glyph glyph-name="rz" unicode="rz" horiz-adv-x="670" 
d="M246 539h399v-57l-306 -423h306v-59h-379v59l305 421h-325q-67 0 -114.5 -47.5t-47.5 -114.5v-318h-59v319q1 91 65.5 155.5t155.5 64.5z" />
    <glyph glyph-name=".notdef" horiz-adv-x="205" 
 />
    <glyph glyph-name=".null" horiz-adv-x="0" 
 />
    <glyph glyph-name="nonmarkingreturn" horiz-adv-x="333" 
 />
    <glyph glyph-name="NULL" horiz-adv-x="0" 
 />
    <glyph glyph-name="NULL" horiz-adv-x="0" 
 />
    <glyph glyph-name="CR" unicode="&#xd;" horiz-adv-x="205" 
 />
    <glyph glyph-name="space" unicode=" " horiz-adv-x="205" 
 />
    <glyph glyph-name="exclam" unicode="!" horiz-adv-x="181" 
d="M120 725v-513h-59v513h59zM125 70v-70h-70v70h70z" />
    <glyph glyph-name="numbersign" unicode="#" horiz-adv-x="564" 
d="M72 305h83l25 108h-84l13 54h84l38 163h60l-38 -163h109l38 163h60l-38 -163h88l-13 -54h-88l-25 -108h89l-12 -55h-90l-43 -180h-60l43 180h-109l-43 -180h-60l43 180h-82zM240 413l-26 -108h110l25 108h-109z" />
    <glyph glyph-name="percent" unicode="%" horiz-adv-x="665" 
d="M292 599q0 -52 -37 -89t-89 -37t-89 37t-37 89q0 53 37 89.5t89 36.5t89 -36.5t37 -89.5zM166 532q28 0 47.5 19.5t19.5 47.5t-19.5 47.5t-47.5 19.5t-47.5 -19.5t-19.5 -47.5t19.5 -47.5t47.5 -19.5zM499 253q52 0 89 -37t37 -89t-37 -89.5t-89 -37.5q-53 0 -90 37
t-37 90q0 52 37.5 89t89.5 37zM499 60q28 0 47.5 19.5t19.5 47.5q0 27 -19.5 47t-47.5 20t-47.5 -20t-19.5 -47q0 -28 19.5 -47.5t47.5 -19.5zM430 725h62l-259 -725h-62z" />
    <glyph glyph-name="quotesingle" unicode="'" horiz-adv-x="150" 
d="M61 723v59h59v-59q0 -79 -53 -142l-42 42q36 44 36 100z" />
    <glyph glyph-name="parenleft" unicode="(" horiz-adv-x="341" 
d="M60 36v557q0 91 65 156t156 65v-59q-67 0 -114.5 -47.5t-47.5 -114.5v-556q0 -67 47.5 -114.5t114.5 -47.5v-58q-91 0 -155.5 64t-65.5 155z" />
    <glyph glyph-name="parenright" unicode=")" horiz-adv-x="341" 
d="M281 593v-557q-1 -91 -65.5 -155t-155.5 -64v58q67 0 114.5 47.5t47.5 114.5v556q0 67 -47.5 114.5t-114.5 47.5v59q91 0 156 -65t65 -156z" />
    <glyph glyph-name="asterisk" unicode="*" horiz-adv-x="362" 
d="M302 667v-60h-79q25 -55 79 -80v-63q-80 26 -123 99q-40 -71 -119 -99v64q51 26 76 79h-76v60h90v91h60v-91h92z" />
    <glyph glyph-name="plus" unicode="+" horiz-adv-x="362" 
d="M322 325v-62h-109v-111h-63v111h-109v62h109v108h63v-108h109z" />
    <glyph glyph-name="comma" unicode="," horiz-adv-x="125" 
d="M41 41v59h59v-59q0 -79 -53 -142l-42 42q36 44 36 100z" />
    <glyph glyph-name="hyphen" unicode="-" horiz-adv-x="312" 
d="M252 325v-62h-192v62h192z" />
    <glyph glyph-name="period" unicode="." horiz-adv-x="160" 
d="M110 70v-70h-70v70h70z" />
    <glyph glyph-name="slash" unicode="/" horiz-adv-x="348" 
d="M226 725h62l-166 -725h-62z" />
    <glyph glyph-name="zero" unicode="0" horiz-adv-x="779" 
d="M389 729q151 0 258 -107t107 -258q0 -150 -107 -257t-258 -107t-257.5 107t-106.5 257q0 151 106.5 258t257.5 107zM389 59q127 0 216.5 89.5t89.5 215.5q0 127 -89.5 216.5t-216.5 89.5q-126 0 -215.5 -89.5t-89.5 -216.5q0 -126 89.5 -215.5t215.5 -89.5z" />
    <glyph glyph-name="one" unicode="1" horiz-adv-x="296" 
d="M25 502v59q66 0 113 45.5t49 111.5h59v-718h-59v573q-66 -71 -162 -71z" />
    <glyph glyph-name="two" unicode="2" horiz-adv-x="486" 
d="M407 360l-298 -300h352v-59h-436v59l331 332q46 46 46 111q0 66 -46.5 112.5t-112.5 46.5q-65 0 -112 -46.5t-47 -112.5v-1h-59v1q0 90 64 154t154 64t154 -64t64 -154q0 -81 -54 -143z" />
    <glyph glyph-name="three" unicode="3" horiz-adv-x="498" 
d="M281 445q82 -12 137 -75t55 -147q0 -92 -66 -157.5t-158 -65.5q-93 0 -158.5 65.5t-65.5 157.5h59q0 -68 48.5 -116t116.5 -48t116 48t48 116t-48 116.5t-116 48.5h-12l-61 -80l-47 36l245 318h-326v59h401v-59h-1z" />
    <glyph glyph-name="four" unicode="4" horiz-adv-x="471" 
d="M25 204l337 514h59v-718h-59v145h-337v59zM96 204h266v406z" />
    <glyph glyph-name="five" unicode="5" horiz-adv-x="556" 
d="M287 488q101 0 172.5 -71.5t71.5 -172.5t-71.5 -172.5t-172.5 -71.5q-85 0 -151 52.5t-86 132.5h61q19 -56 67 -91t109 -35q77 0 131 54.5t54 130.5t-54 130.5t-131 54.5q-61 0 -109 -35t-67 -91h-61v422h450v-59h-391v-255q72 77 178 77z" />
    <glyph glyph-name="six" unicode="6" horiz-adv-x="539" 
d="M270 488q101 0 172.5 -71.5t71.5 -172.5t-71.5 -172.5t-172.5 -71.5t-173 71.5t-72 172.5q0 48 20 96l168 385h65l-114 -261q51 24 106 24zM270 59q76 0 130.5 54.5t54.5 130.5t-54.5 130.5t-130.5 54.5t-130.5 -54.5t-54.5 -130.5t54.5 -130.5t130.5 -54.5z" />
    <glyph glyph-name="seven" unicode="7" horiz-adv-x="456" 
d="M25 718h416v-60l-288 -658h-65l289 658h-352v60z" />
    <glyph glyph-name="eight" unicode="8" horiz-adv-x="482" 
d="M344 405q51 -28 82 -79t31 -111q0 -89 -63.5 -152t-152.5 -63t-152.5 63t-63.5 152q0 60 31 111t82 79q-74 53 -74 144q0 73 52 125t125 52t125 -52t52 -125q0 -91 -74 -144zM123 549q0 -48 33.5 -82t80.5 -36h4h4q47 2 80.5 36t33.5 82q0 49 -34.5 83.5t-83.5 34.5
t-83.5 -34.5t-34.5 -83.5zM241 59q65 0 110.5 45.5t45.5 110.5q0 63 -43.5 108.5t-106.5 48.5q-2 -1 -6 -1t-6 1q-63 -3 -107 -48.5t-44 -108.5q0 -64 46 -110t111 -46z" />
    <glyph glyph-name="nine" unicode="9" horiz-adv-x="538" 
d="M513 480q0 -52 -19 -96l-169 -384h-64l114 261q-50 -25 -106 -25q-101 0 -172.5 71.5t-71.5 172.5t71.5 173t172.5 72t172.5 -72t71.5 -173zM84 480q0 -76 54 -130.5t131 -54.5t131 54.5t54 130.5q0 77 -54 131.5t-131 54.5t-131 -54.5t-54 -131.5z" />
    <glyph glyph-name="colon" unicode=":" horiz-adv-x="180" 
d="M125 70v-70h-70v70h70zM125 325v-70h-70v70h70z" />
    <glyph glyph-name="semicolon" unicode=";" horiz-adv-x="161" 
d="M41 41v59h59v-59q0 -79 -53 -142l-42 42q36 44 36 100zM104 326v-70h-70v70h70z" />
    <glyph glyph-name="equal" unicode="=" horiz-adv-x="402" 
d="M342 334h-282v69h282v-69zM342 164h-282v69h282v-69z" />
    <glyph glyph-name="question" unicode="?" horiz-adv-x="609" 
d="M304 732q101 0 173 -71.5t72 -172.5t-72 -172.5t-173 -71.5v59q76 0 130.5 54.5t54.5 130.5t-54.5 130.5t-130.5 54.5t-130.5 -54.5t-54.5 -130.5h-59q0 101 71.5 172.5t172.5 71.5zM374 70v-70h-70v70h70z" />
    <glyph glyph-name="at" unicode="@" horiz-adv-x="779" 
d="M389 638q151 0 258 -106.5t107 -257.5q0 -112 -64 -206q-27 12 -51 30v1q-34 28 -55 64q-30 -51 -82 -82t-113 -31q-92 0 -157.5 66t-65.5 158t65.5 158t157.5 66q93 0 158.5 -66t65.5 -158q0 -74 56 -123q26 62 26 123q0 126 -89.5 215.5t-216.5 89.5
q-126 0 -215.5 -89.5t-89.5 -215.5t89.5 -215.5t215.5 -89.5v-59q-151 0 -257.5 106.5t-106.5 257.5t106.5 257.5t257.5 106.5zM389 109q68 0 116.5 48.5t48.5 116.5t-48.5 116.5t-116.5 48.5t-116 -48.5t-48 -116.5t48 -116.5t116 -48.5z" />
    <glyph glyph-name="A" unicode="A" horiz-adv-x="522" 
d="M482 486v-486h-59v260h-324v-260h-59v486q0 91 64.5 155t156.5 64q91 0 155.5 -64t65.5 -155zM99 484v-163h324v164q-1 67 -48 113.5t-114 46.5t-114.5 -47t-47.5 -114z" />
    <glyph glyph-name="B" unicode="B" horiz-adv-x="547" 
d="M483 512q-3 -99 -75 -152q51 -22 82.5 -68t31.5 -103q-1 -76 -54.5 -129.5t-131.5 -58.5q-4 -1 -296 -1v701q82 0 171 -0.5t92 -0.5q77 -4 128.5 -58t51.5 -130zM335 58v-1q53 2 91 41t38 91q0 54 -40.5 93t-91.5 39h-231v-263h234zM296 643h-195v-263h195q51 0 91 38.5
t40 93.5q0 53 -38 91t-93 40z" />
    <glyph glyph-name="C" unicode="C" horiz-adv-x="714" 
d="M617 173h72q-48 -81 -130 -129.5t-178 -48.5q-147 0 -251.5 104.5t-104.5 250.5q0 147 104.5 251.5t251.5 104.5q96 0 178 -48.5t130 -129.5h-72q-83 114 -236 114q-125 0 -209 -84t-84 -208t84.5 -208.5t208.5 -84.5q151 0 236 116z" />
    <glyph glyph-name="D" unicode="D" horiz-adv-x="570" 
d="M299 700q96 0 165 -66.5t70 -161.5v-244q-1 -95 -70 -161.5t-164 -66.5h-258v700h257zM475 234v232q0 73 -51.5 124t-123.5 51h-200v-582h200q72 0 123.5 51.5t51.5 123.5z" />
    <glyph glyph-name="E" unicode="E" horiz-adv-x="491" 
d="M458 640h-188q-72 0 -124 -51t-52 -123v-86h252v-60h-252v-86q0 -72 52 -123t124 -51h188v-60h-188q-95 0 -164 66.5t-71 161.5v244q2 95 71 161.5t164 66.5h188v-60z" />
    <glyph glyph-name="F" unicode="F" horiz-adv-x="493" 
d="M97 0h-61v472q2 95 71 161.5t165 66.5h187v-60h-187q-73 0 -124 -50.5t-51 -123.5v-86h250v-60h-250v-320z" />
    <glyph glyph-name="G" unicode="G" horiz-adv-x="762" 
d="M433 375h303q4 -47 -6 -94q-25 -123 -123 -204.5t-226 -81.5q-147 0 -251.5 104.5t-104.5 251.5q0 146 104.5 251t251.5 105q85 0 158.5 -37.5t123.5 -102.5h-81q-76 76 -201 76q-124 0 -208.5 -84t-84.5 -208q0 -125 84.5 -210t208.5 -85q119 0 199 77.5t93 180.5h-240
v61z" />
    <glyph glyph-name="H" unicode="H" horiz-adv-x="575" 
d="M475 700h60v-700h-60v326h-374v-326h-60v700h60v-313h374v313z" />
    <glyph glyph-name="I" unicode="I" horiz-adv-x="144" 
d="M42 0v700h62v-700h-62z" />
    <glyph glyph-name="J" unicode="J" horiz-adv-x="182" 
d="M137 700v-702q-1 -91 -65.5 -155.5t-155.5 -64.5v59q67 0 113.5 47.5t46.5 114.5v701h61z" />
    <glyph glyph-name="K" unicode="K" horiz-adv-x="498" 
d="M38 0v700h60v-427l307 427h69l-230 -321l238 -379h-67l-209 326l-108 -150v-176h-60z" />
    <glyph glyph-name="L" unicode="L" horiz-adv-x="364" 
d="M42 0v700h60v-639h239v-61h-299z" />
    <glyph glyph-name="M" unicode="M" horiz-adv-x="836" 
d="M794 700v-700h-59v597l-287 -597h-60l-286 597v-597h-60v700h79l297 -617l298 617h78z" />
    <glyph glyph-name="N" unicode="N" horiz-adv-x="554" 
d="M452 700h61v-700h-80l-331 612v-612h-60v700h80l330 -611v611z" />
    <glyph glyph-name="O" unicode="O" horiz-adv-x="763" 
d="M381 -6q-146 0 -250.5 105t-104.5 251q0 147 104.5 251.5t250.5 104.5q147 0 251.5 -104.5t104.5 -251.5q0 -146 -104.5 -251t-251.5 -105zM381 643q-124 0 -209 -84.5t-85 -208.5t85 -209t209 -85t209 85t85 209t-84.5 208.5t-209.5 84.5z" />
    <glyph glyph-name="P" unicode="P" horiz-adv-x="560" 
d="M465 630q67 -67 69 -163v-3q-2 -95 -68 -163q-67 -67 -166 -69h-199v-232h-59v700h258q98 -2 165 -70zM101 292h197q71 0 122 51t53 123q-2 71 -53 121.5t-122 50.5h-197v-346z" />
    <glyph glyph-name="Q" unicode="Q" horiz-adv-x="763" 
d="M381 -6q-146 0 -250.5 105t-104.5 251q0 147 104.5 251.5t250.5 104.5q147 0 251.5 -104.5t104.5 -251.5q0 -91 -50 -173.5t-135 -139.5q6 -63 38 -93.5t93 -48.5v-62q-153 36 -192 176q-78 -15 -110 -15zM381 644q-124 0 -209 -85t-85 -209t85 -209t209 -85t208.5 85
t84.5 209q0 125 -84.5 209.5t-208.5 84.5z" />
    <glyph glyph-name="R" unicode="R" horiz-adv-x="551" 
d="M519 0h-70l-137 232h-208v-232h-61v700h259q97 -2 164 -70q67 -67 70 -163v-3q-3 -97 -70 -164v1q-21 -24 -91 -62q23 -39 76 -126.5t68 -112.5zM104 638v-346h195q71 0 123 51t54 123q-2 71 -54 121.5t-123 50.5h-195z" />
    <glyph glyph-name="S" unicode="S" horiz-adv-x="503" 
d="M248 316q-42 3 -76 11.5t-67 26t-52.5 51t-22.5 81.5q-5 90 52 156t153 66q85 0 146.5 -47.5t74.5 -132.5h-65q-12 55 -56 88t-100 33q-57 0 -101.5 -47.5t-40.5 -110.5q2 -30 17.5 -51.5t42.5 -33t49.5 -16.5t53.5 -8q45 -6 78.5 -15.5t66.5 -28t51.5 -51.5t21.5 -79
q5 -90 -55.5 -154t-159.5 -64q-87 0 -152.5 48t-78.5 135h66q12 -56 59 -89t106 -33q68 0 111 41.5t43 109.5q0 27 -11.5 47t-25.5 31t-40.5 19t-42.5 10.5t-45 6.5z" />
    <glyph glyph-name="T" unicode="T" horiz-adv-x="469" 
d="M440 700v-61h-175v-639h-63v639h-173v61h411z" />
    <glyph glyph-name="U" unicode="U" horiz-adv-x="538" 
d="M96 700v-476q3 -71 52.5 -119.5t120.5 -48.5q72 0 122 50t50 122v472h62v-477q-1 -96 -69.5 -162.5t-164.5 -66.5t-164.5 66.5t-69.5 162.5v477h61z" />
    <glyph glyph-name="V" unicode="V" horiz-adv-x="525" 
d="M452 701h62q-5 -17 -213 -701h-78q-42 137 -113 373t-99 328h64l187 -621q65 214 190 621z" />
    <glyph glyph-name="W" unicode="W" horiz-adv-x="1010" 
d="M225 0l-214 701h62l191 -617l200 616h84l201 -617l191 618h60q-35 -113 -69.5 -227t-76 -250.5t-67.5 -223.5h-78l-203 636l-204 -635q-19 0 -43 -0.5t-34 -0.5z" />
    <glyph glyph-name="X" unicode="X" horiz-adv-x="552" 
d="M451 0l-176 296l-174 -296h-80l213 356q-13 22 -86.5 149.5t-113.5 194.5h78l163 -286l166 286h77l-200 -344q210 -352 213 -356h-80z" />
    <glyph glyph-name="Y" unicode="Y" horiz-adv-x="526" 
d="M42 479v222h61v-219q2 -52 26.5 -89.5t60 -53.5t76.5 -15t76 18.5t58 54.5t23 86v218h61v-222q0 -83 -54 -144.5t-135 -72.5v-262h-64l1 262q-81 11 -135 72.5t-55 144.5z" />
    <glyph glyph-name="Z" unicode="Z" horiz-adv-x="537" 
d="M44 701h449v-73l-375 -568h383v-59q-87 0 -235.5 -0.5t-229.5 -0.5v50l395 591h-387v60z" />
    <glyph glyph-name="bracketleft" unicode="[" horiz-adv-x="341" 
d="M60 814h221v-59h-162v-879h162v-59h-221v997z" />
    <glyph glyph-name="backslash" unicode="\" horiz-adv-x="348" 
d="M60 725h62l166 -725h-62z" />
    <glyph glyph-name="bracketright" unicode="]" horiz-adv-x="341" 
d="M60 814h221v-997h-221v59h162v879h-162v59z" />
    <glyph glyph-name="underscore" unicode="_" horiz-adv-x="618" 
d="M417 -89v-60h-382v60h382z" />
    <glyph glyph-name="grave" unicode="`" horiz-adv-x="341" 
d="M281 585q-91 0 -156 64.5t-65 156.5h59q0 -67 47.5 -114.5t114.5 -47.5v-59z" />
    <glyph glyph-name="a" unicode="a" 
d="M301 551q114 0 194.5 -81t80.5 -195v-275h-59v105q-38 -49 -94.5 -77t-121.5 -28q-114 0 -195 80.5t-81 194.5t81 195t195 81zM301 59q89 0 152.5 63.5t63.5 152.5t-63.5 152.5t-152.5 63.5t-152.5 -63.5t-63.5 -152.5t63.5 -152.5t152.5 -63.5z" />
    <glyph glyph-name="b" unicode="b" horiz-adv-x="610" 
d="M310 551q114 0 194.5 -80.5t80.5 -194.5t-80.5 -195t-194.5 -81t-194.5 81t-80.5 195v433h59v-263q38 49 94.5 77t121.5 28zM310 60q89 0 152.5 63.5t63.5 152.5t-63.5 152.5t-152.5 63.5t-152.5 -63.5t-63.5 -152.5t63.5 -152.5t152.5 -63.5z" />
    <glyph glyph-name="c" unicode="c" horiz-adv-x="595" 
d="M301 59q73 0 130.5 44.5t77.5 112.5h61q-20 -93 -96 -154.5t-173 -61.5q-114 0 -195 81t-81 195q0 113 81 194t195 81q97 0 173 -61.5t96 -154.5h-61q-20 68 -77.5 112.5t-130.5 44.5q-90 0 -153.5 -63.5t-63.5 -152.5q0 -90 63.5 -153.5t153.5 -63.5z" />
    <glyph glyph-name="d" unicode="d" 
d="M576 709v-433v0q0 -114 -81 -195t-195 -81t-194.5 81t-80.5 195q0 113 80.5 194t194.5 81q133 0 217 -105v263h59zM300 59q89 0 153 63.5t64 153.5q0 89 -64 152.5t-153 63.5t-152.5 -63.5t-63.5 -152.5q0 -90 63.5 -153.5t152.5 -63.5z" />
    <glyph glyph-name="e" unicode="e" horiz-adv-x="601" 
d="M574 246h-488q11 -79 72 -133t142 -54q65 0 118.5 35.5t79.5 92.5h63q-28 -83 -99.5 -135t-161.5 -52q-114 0 -194.5 81t-80.5 195q0 113 80.5 194t194.5 81t195 -81t81 -194q0 -10 -2 -30zM300 492q-81 0 -142 -54t-72 -133h429q-11 80 -72 133.5t-143 53.5z" />
    <glyph glyph-name="f" unicode="f" horiz-adv-x="296" 
d="M271 718q-67 0 -114.5 -47.5t-47.5 -114.5v-17h162v-59h-162v-480h-59v557q1 91 65.5 155.5t155.5 64.5v-59z" />
    <glyph glyph-name="g" unicode="g" 
d="M576 276v-276q-1 -91 -65.5 -155.5t-155.5 -64.5v59q67 0 114 47t48 114v105q-38 -49 -95 -77t-121 -28q-114 0 -195 81t-81 195q0 113 81 194t195 81t194.5 -81t80.5 -194zM301 59q89 0 152.5 63.5t63.5 153.5q0 89 -63.5 152.5t-152.5 63.5q-90 0 -153.5 -63.5
t-63.5 -152.5q0 -90 63.5 -153.5t153.5 -63.5z" />
    <glyph glyph-name="h" unicode="h" horiz-adv-x="527" 
d="M492 331v-331h-59v330q0 67 -47.5 114.5t-114.5 47.5t-114.5 -47.5t-47.5 -114.5v-330h-59v709h59v-229q68 71 162 71q91 0 155.5 -64.5t65.5 -155.5z" />
    <glyph glyph-name="i" unicode="i" horiz-adv-x="160" 
d="M50 539v-539h59v539h-59zM115 671v-70h-70v70h70z" />
    <glyph glyph-name="j" unicode="j" horiz-adv-x="286" 
d="M236 539v-539q-1 -91 -65.5 -155.5t-155.5 -64.5v59q67 0 114.5 47.5t47.5 114.5v538h59zM241 671v-70h-70v70h70z" />
    <glyph glyph-name="k" unicode="k" horiz-adv-x="443" 
d="M355 0l-163 222l-83 -110v-112h-59v709h59v-498l245 328h74l-199 -267l199 -272h-73z" />
    <glyph glyph-name="l" unicode="l" horiz-adv-x="159" 
d="M50 709h59v-709h-59v709z" />
    <glyph glyph-name="m" unicode="m" horiz-adv-x="895" 
d="M860 332v-332h-59v331q0 67 -47.5 114t-114.5 47t-114.5 -47.5t-47.5 -114.5v-330h-59v330q0 67 -47.5 114.5t-114.5 47.5t-114.5 -47.5t-47.5 -114.5v-330h-59v332q1 91 65.5 155t155.5 64q60 0 111 -30t81 -81q29 51 80 81t111 30q91 0 155.5 -64t65.5 -155z" />
    <glyph glyph-name="n" unicode="n" horiz-adv-x="512" 
d="M477 332v-332h-59v331q-1 67 -48 114t-114 47t-114.5 -47.5t-47.5 -114.5v-330h-59v332q0 91 64.5 155t156.5 64q91 0 155.5 -64t65.5 -155z" />
    <glyph glyph-name="o" unicode="o" horiz-adv-x="601" 
d="M300 0q-114 0 -194.5 81t-80.5 194q0 114 80.5 195t194.5 81t195 -81t81 -195q0 -113 -81 -194t-195 -81zM300 492q-89 0 -152.5 -63.5t-63.5 -153.5q0 -89 63.5 -152.5t152.5 -63.5t153 63.5t64 152.5q0 90 -64 153.5t-153 63.5z" />
    <glyph glyph-name="p" unicode="p" 
d="M310 551q114 0 195 -81t81 -195q0 -113 -81 -194t-195 -81q-64 0 -120.5 28t-95.5 77v-263h-59v433q0 114 81 195t194 81zM310 59q90 0 153.5 63.5t63.5 152.5q0 90 -63.5 153.5t-153.5 63.5q-89 0 -152.5 -63.5t-63.5 -153.5q0 -89 63.5 -152.5t152.5 -63.5z" />
    <glyph glyph-name="q" unicode="q" 
d="M301 551q113 0 194 -81t81 -195v-433h-59v263q-39 -49 -95.5 -77t-120.5 -28q-114 0 -195 81t-81 194q0 114 81 195t195 81zM301 59q89 0 152.5 63.5t63.5 152.5q0 90 -63.5 153.5t-152.5 63.5q-90 0 -153.5 -63.5t-63.5 -153.5q0 -89 63.5 -152.5t153.5 -63.5z" />
    <glyph glyph-name="r" unicode="r" horiz-adv-x="281" 
d="M35 332q1 91 65.5 155t155.5 64v-59q-67 0 -114.5 -47.5t-47.5 -114.5v-330h-59v332z" />
    <glyph glyph-name="s" unicode="s" horiz-adv-x="452" 
d="M236 305q75 -10 123.5 -34t61.5 -78q4 -24 4 -34q0 -71 -60 -115.5t-138 -44.5q-82 0 -142 57.5t-60 143.5h60q0 -60 41.5 -101t102.5 -41q55 1 100 35t31 88q-4 18 -16.5 30.5t-34.5 19t-37 8.5t-43 5q-40 4 -67 10t-57 20t-46.5 40.5t-19.5 65.5q-4 55 28 98
q57 73 159 73q83 0 142 -59t59 -142h-61q0 59 -41 100.5t-99 40.5q-76 -2 -110 -47q-19 -25 -16 -60q2 -23 14 -39t35.5 -23.5t40 -10.5t46.5 -6z" />
    <glyph glyph-name="t" unicode="t" horiz-adv-x="286" 
d="M261 481h-162v-259q0 -67 47.5 -114.5t114.5 -47.5v-59q-91 0 -155.5 64t-65.5 156v499h59v-179h162v-60z" />
    <glyph glyph-name="u" unicode="u" horiz-adv-x="512" 
d="M477 539v-319q-1 -92 -65.5 -156t-155.5 -64t-155.5 64.5t-65.5 155.5v319h59v-318q0 -67 47.5 -114.5t114.5 -47.5t114.5 47.5t47.5 114.5v318h59z" />
    <glyph glyph-name="v" unicode="v" horiz-adv-x="447" 
d="M370 539h62l-177 -538h-63l-177 538h62l147 -444z" />
    <glyph glyph-name="w" unicode="w" horiz-adv-x="801" 
d="M786 539l-177 -538l1 -1h-63v1l-146 445l-147 -445v-1h-62v1l-177 538h62l146 -444l146 444h63l146 -444l146 444h62z" />
    <glyph glyph-name="x" unicode="x" horiz-adv-x="457" 
d="M447 0h-72l-146 224l-147 -224h-72l184 274l-184 265h72l147 -214l146 214h72l-185 -265z" />
    <glyph glyph-name="y" unicode="y" horiz-adv-x="512" 
d="M477 540v-540q-1 -91 -65.5 -155.5t-155.5 -64.5v59q67 0 114.5 47.5t47.5 114.5v70q-65 -71 -162 -71q-89 0 -153.5 62t-67.5 151v327h59v-319q1 -67 48 -114.5t114 -47.5t114.5 47.5t47.5 114.5v319h59z" />
    <glyph glyph-name="z" unicode="z" horiz-adv-x="429" 
d="M404 540v-58l-306 -423h306v-59h-379v59l305 422h-305v59h379z" />
    <glyph glyph-name="braceleft" unicode="{" horiz-adv-x="503" 
d="M222 506v88q1 92 65.5 156t155.5 64v-59q-67 0 -114.5 -47.5t-47.5 -114.5v-86q-3 -64 -32.5 -113.5t-78.5 -77.5q49 -28 79 -78.5t32 -112.5v-1v-86q0 -67 47.5 -114.5t114.5 -47.5v-59q-89 0 -153 61.5t-68 149.5v97q0 67 -47.5 114t-114.5 47v59q67 0 114.5 47
t47.5 114z" />
    <glyph glyph-name="bar" unicode="|" horiz-adv-x="179" 
d="M60 700h59v-888h-59v888z" />
    <glyph glyph-name="braceright" unicode="}" horiz-adv-x="503" 
d="M281 594v-88q0 -67 47.5 -114t114.5 -47v-59q-67 0 -114.5 -47t-47.5 -114v-97q-4 -88 -68 -149.5t-153 -61.5v59q67 0 114.5 47.5t47.5 114.5v86v1q2 62 32 112.5t79 78.5q-49 28 -78.5 77.5t-32.5 113.5v86q0 67 -47.5 114.5t-114.5 47.5v59q91 0 155.5 -64t65.5 -156z
" />
    <glyph glyph-name="acute" unicode="&#xb4;" horiz-adv-x="271" 
d="M25 585v59q67 0 114.5 47.5t47.5 114.5h59q0 -92 -65 -156.5t-156 -64.5z" />
    <glyph glyph-name="Oacute" unicode="&#xd3;" horiz-adv-x="763" 
d="M381 -6q-146 0 -250.5 105t-104.5 251q0 147 104.5 251.5t250.5 104.5q147 0 251.5 -104.5t104.5 -251.5q0 -146 -104.5 -251t-251.5 -105zM381 643q-124 0 -209 -84.5t-85 -208.5t85 -209t209 -85t209 85t85 209t-84.5 208.5t-209.5 84.5zM247 741v59q67 0 114.5 47.5
t47.5 114.5h59q0 -92 -65 -156.5t-156 -64.5z" />
    <glyph glyph-name="oacute" unicode="&#xf3;" horiz-adv-x="601" 
d="M164 585v59q67 0 114.5 47.5t47.5 114.5h59q0 -92 -64.5 -156.5t-156.5 -64.5zM300 0q-114 0 -194.5 81t-80.5 194q0 114 80.5 195t194.5 81t195 -81t81 -195q0 -113 -81 -194t-195 -81zM300 492q-89 0 -152.5 -63.5t-63.5 -153.5q0 -89 63.5 -152.5t152.5 -63.5
t153 63.5t64 152.5q0 90 -64 153.5t-153 63.5z" />
    <glyph glyph-name="Aogonek" unicode="&#x104;" horiz-adv-x="526" 
d="M484 486v-486h-59v260h-324v-260h-59v486q0 91 64.5 155t156.5 64q91 0 155.5 -64t65.5 -155zM101 484v-163h324v164q-1 67 -48 113.5t-114 46.5t-114.5 -47t-47.5 -114zM484 -26q-92 0 -156.5 -65t-64.5 -156h59q0 67 47.5 114.5t114.5 47.5v59z" />
    <glyph glyph-name="aogonek" unicode="&#x105;" 
d="M301 551q114 0 194.5 -81t80.5 -195v-275h-59v105q-38 -49 -94.5 -77t-121.5 -28q-114 0 -195 80.5t-81 194.5t81 195t195 81zM301 59q89 0 152.5 63.5t63.5 152.5t-63.5 152.5t-152.5 63.5t-152.5 -63.5t-63.5 -152.5t63.5 -152.5t152.5 -63.5zM576 -26
q-92 0 -156.5 -65t-64.5 -156h59q0 67 47.5 114.5t114.5 47.5v59z" />
    <glyph glyph-name="Cacute" unicode="&#x106;" horiz-adv-x="714" 
d="M617 173h72q-48 -81 -130 -129.5t-178 -48.5q-147 0 -251.5 104.5t-104.5 250.5q0 147 104.5 251.5t251.5 104.5q96 0 178 -48.5t130 -129.5h-72q-83 114 -236 114q-125 0 -209 -84t-84 -208t84.5 -208.5t208.5 -84.5q151 0 236 116zM247 741v59q67 0 114.5 47.5
t47.5 114.5h59q0 -92 -65 -156.5t-156 -64.5z" />
    <glyph glyph-name="cacute" unicode="&#x107;" horiz-adv-x="594" 
d="M159 585v59q67 0 114.5 47.5t47.5 114.5h59q0 -92 -65 -156.5t-156 -64.5zM301 59q73 0 130.5 44.5t77.5 112.5h61q-20 -93 -96 -154.5t-173 -61.5q-114 0 -195 81t-81 195q0 113 81 194t195 81q97 0 173 -61.5t96 -154.5h-61q-20 68 -77.5 112.5t-130.5 44.5
q-90 0 -153.5 -63.5t-63.5 -152.5q0 -90 63.5 -153.5t153.5 -63.5z" />
    <glyph glyph-name="Eogonek" unicode="&#x118;" horiz-adv-x="492" 
d="M458 640h-188q-72 0 -124 -51t-52 -123v-86h252v-60h-252v-86q0 -72 52 -123t124 -51h188v-60h-188q-95 0 -164 66.5t-71 161.5v244q2 95 71 161.5t164 66.5h188v-60zM457 -26q-91 0 -156 -65t-65 -156h59q0 67 47.5 114.5t114.5 47.5v59z" />
    <glyph glyph-name="eogonek" unicode="&#x119;" horiz-adv-x="601" 
d="M414 -26q-92 0 -156.5 -65t-64.5 -156h59q0 67 47.5 114.5t114.5 47.5v59zM574 246h-488q11 -79 72 -133t142 -54q65 0 118.5 35.5t79.5 92.5h63q-28 -83 -99.5 -135t-161.5 -52q-114 0 -194.5 81t-80.5 195q0 113 80.5 194t194.5 81t195 -81t81 -194q0 -10 -2 -30z
M300 492q-81 0 -142 -54t-72 -133h429q-11 80 -72 133.5t-143 53.5z" />
    <glyph glyph-name="Lslash" unicode="&#x141;" horiz-adv-x="405" 
d="M81 0v285l-68 -49v77l68 49v338h58v-296l124 89v-77l-124 -90v-267h241v-59h-299z" />
    <glyph glyph-name="lslash" unicode="&#x142;" horiz-adv-x="253" 
d="M228 452v-77l-66 -48v-327h-59v285l-68 -49v77l68 49v347h59v-305z" />
    <glyph glyph-name="Nacute" unicode="&#x143;" horiz-adv-x="555" 
d="M452 700h61v-700h-80l-331 612v-612h-60v700h80l330 -611v611zM207 741v59q67 0 114.5 47.5t47.5 114.5h59q0 -92 -65 -156.5t-156 -64.5z" />
    <glyph glyph-name="nacute" unicode="&#x144;" horiz-adv-x="512" 
d="M130 585v59q67 0 114.5 47.5t47.5 114.5h59q0 -92 -64.5 -156.5t-156.5 -64.5zM477 332v-332h-59v331q-1 67 -48 114t-114 47t-114.5 -47.5t-47.5 -114.5v-330h-59v332q0 91 64.5 155t156.5 64q91 0 155.5 -64t65.5 -155z" />
    <glyph glyph-name="Sacute" unicode="&#x15a;" horiz-adv-x="499" 
d="M249 316q-42 3 -76 11.5t-67 26t-52.5 51t-22.5 81.5q-5 90 52 156t153 66q85 0 146.5 -47.5t74.5 -132.5h-65q-12 55 -56 88t-100 33q-57 0 -101.5 -47.5t-40.5 -110.5q2 -30 17.5 -51.5t42.5 -33t49.5 -16.5t53.5 -8q45 -6 78.5 -15.5t66.5 -28t51.5 -51.5t21.5 -79
q5 -90 -55.5 -154t-159.5 -64q-87 0 -152.5 48t-78.5 135h66q12 -56 59 -89t106 -33q68 0 111 41.5t43 109.5q0 27 -11.5 47t-25.5 31t-40.5 19t-42.5 10.5t-45 6.5zM135 741v59q67 0 114.5 47.5t47.5 114.5h59q0 -92 -65 -156.5t-156 -64.5z" />
    <glyph glyph-name="sacute" unicode="&#x15b;" horiz-adv-x="452" 
d="M94 585v59q67 0 114.5 47.5t47.5 114.5h59q0 -92 -64.5 -156.5t-156.5 -64.5zM236 305q75 -10 123.5 -34t61.5 -78q4 -24 4 -34q0 -71 -60 -115.5t-138 -44.5q-82 0 -142 57.5t-60 143.5h60q0 -60 41.5 -101t102.5 -41q55 1 100 35t31 88q-4 18 -16.5 30.5t-34.5 19
t-37 8.5t-43 5q-40 4 -67 10t-57 20t-46.5 40.5t-19.5 65.5q-4 55 28 98q57 73 159 73q83 0 142 -59t59 -142h-61q0 59 -41 100.5t-99 40.5q-76 -2 -110 -47q-19 -25 -16 -60q2 -23 14 -39t35.5 -23.5t40 -10.5t46.5 -6z" />
    <glyph glyph-name="Zacute" unicode="&#x179;" horiz-adv-x="536" 
d="M43 701h449v-73l-375 -568h383v-59q-87 0 -235.5 -0.5t-229.5 -0.5v50l395 591h-387v60zM131 741v59q67 0 114.5 47.5t47.5 114.5h59q0 -92 -65 -156.5t-156 -64.5z" />
    <glyph glyph-name="zacute" unicode="&#x17a;" horiz-adv-x="429" 
d="M77 585v59q67 0 114.5 47.5t47.5 114.5h59q0 -92 -65 -156.5t-156 -64.5zM404 540v-58l-306 -423h306v-59h-379v59l305 422h-305v59h379z" />
    <glyph glyph-name="Zdotaccent" unicode="&#x17b;" horiz-adv-x="526" 
d="M308 845v-70h-70v70h70zM43 701h449v-73l-375 -568h383v-59q-87 0 -235.5 -0.5t-229.5 -0.5v50l395 591h-387v60z" />
    <glyph glyph-name="zdotaccent" unicode="&#x17c;" horiz-adv-x="429" 
d="M251 662v-70h-70v70h70zM404 540v-58l-306 -423h306v-59h-379v59l305 422h-305v59h379z" />
    <glyph glyph-name="ogonek" unicode="&#x2db;" horiz-adv-x="341" 
d="M281 -26v-59q-67 0 -114.5 -47.5t-47.5 -114.5h-59q0 91 65 156t156 65z" />
    <glyph glyph-name="endash" unicode="&#x2013;" horiz-adv-x="481" 
d="M421 325v-62h-362v62h362z" />
    <glyph glyph-name="emdash" unicode="&#x2014;" horiz-adv-x="651" 
d="M591 325v-62h-532v62h532z" />
    <glyph glyph-name="quotedblright" unicode="&#x201d;" horiz-adv-x="284" 
d="M61 723v59h59v-59q0 -79 -53 -142l-42 42q36 44 36 100zM165 723v59h59v-60q0 -78 -53 -141l-42 42q36 44 36 100z" />
    <glyph glyph-name="quotedblbase" unicode="&#x201e;" horiz-adv-x="259" 
d="M61 40v59h59v-59q0 -79 -53 -142l-42 42q36 44 36 100zM165 40v59h59v-60q0 -78 -53 -141l-42 42q36 44 36 100z" />
    <glyph glyph-name="zero.alt1" horiz-adv-x="556" 
d="M279 732q101 0 172.5 -71.5t71.5 -172.5v-244q0 -101 -71.5 -172.5t-172.5 -71.5t-172.5 71.5t-71.5 172.5v244q0 100 71.5 172t172.5 72zM279 59q77 0 131 54.5t54 130.5v244q0 76 -54 130.5t-131 54.5t-131 -54.5t-54 -130.5v-244q0 -76 54 -130.5t131 -54.5z" />
    <glyph glyph-name="lapa" horiz-adv-x="673" 
d="M607 190q7 -36 5 -51q-7 -39 -49 -60q-8 -4 -24 -10.5t-24 -10.5q-13 -9 -36 -30q-18 -18 -36 -23q-22 -9 -48 -4q-45 9 -87 54q-9 10 -31 37.5t-37 41.5q-30 29 -90 45q-2 1 -13 3.5t-15 3.5t-13 4t-13.5 6t-10.5 7.5t-10 9.5q-20 26 -12 51q10 33 47 28q16 -4 36 -18
q12 -8 36 -28q27 -22 37 -26q9 -6 21 -4t13 15q3 16 -23 35q-18 15 -36 23q-22 14 -33 18q-34 16 -37 18q-17 13 -23.5 31.5t2.5 38.5q13 26 37 26q18 0 41 -16q11 -8 24 -26q11 -16 35 -44q27 -33 47 -41q15 -6 21 -1q8 7 -5 25q-35 45 -82 86q-41 41 -37 74q1 15 12.5 27
t26.5 16q35 12 60 -35q9 -14 41 -92q1 -1 5.5 -11.5t8.5 -18t11 -17.5t12 -10.5t11 3.5q10 12 -2 42q-1 4 -19 37l-10.5 14t-11.5 16t-9 15t-7.5 17.5t-3.5 17.5q0 21 10 35q10 16 37 18q31 -1 51 -37q5 -9 7.5 -20.5t3.5 -20t2 -22t2 -19.5q7 -48 26 -94q4 -10 14 -30
q1 -2 5 -7.5t6.5 -8.5t6.5 -6t9 -4q15 -2 26 11q7 11 0 31q-15 38 -15 41q-12 75 24 85q38 10 58 -20q4 -6 6.5 -12t3.5 -14t1.5 -13t0 -15t-1 -13t-2 -15t-1.5 -13q-4 -36 -4 -54q0 -14 6 -42q8 -22 16 -50z" />
    <glyph glyph-name="minus" horiz-adv-x="402" 
d="M342 325v-62h-282v62h282z" />
    <glyph glyph-name="heyah" horiz-adv-x="3277" 
d="M880 547q114 0 192.5 -80t78.5 -199q0 -20 -7 -41h-385q5 -45 36.5 -72t77.5 -27q29 0 54 11t35 23l11 11h159q-35 -80 -101.5 -126.5t-150.5 -46.5q-111 0 -191.5 80t-80.5 195q0 114 78.5 193t193.5 79zM766 340h227q-10 34 -42.5 57t-70.5 23q-44 0 -74 -22t-40 -58z
M3051 68q-40 0 -70 29.5t-30 68.5q0 41 30 71.5t70 30.5q34 0 61.5 -22t37.5 -54h-47q-21 35 -52 35q-25 0 -42.5 -17.5t-17.5 -43.5q0 -25 17 -42t43 -17q29 0 52 32h47q-10 -30 -37.5 -50.5t-61.5 -20.5zM313 547q101 0 174 -70.5t73 -169.5v-307h-140v300q0 44 -31 75.5
t-76 31.5t-76 -31.5t-31 -75.5v-300h-139h-7v699h146v-173q48 21 107 21zM3051 0q-70 0 -119 48.5t-49 117.5q0 70 48.5 119t119.5 49q70 0 118 -48.5t48 -119.5q0 -69 -48.5 -117.5t-117.5 -48.5zM3051 307q-60 0 -100 -40.5t-40 -100.5q0 -59 40 -99.5t100 -40.5
q55 0 97 41t42 99q0 59 -42 100t-97 41zM1553 246v287h146l-6 -560q0 -99 -73.5 -169t-174.5 -70v139q46 0 77 31t31 76v40q-52 -20 -108 -20q-100 0 -173 70.5t-73 169.5v293h140v-287q0 -45 30.5 -76t75.5 -31q46 0 77 31t31 76zM2013 0q-115 0 -195 80t-80 195
q0 114 80 193t195 79q113 0 192.5 -78t79.5 -188v-281h-134v33q-69 -33 -138 -33zM2013 413q-61 0 -101 -39.5t-40 -98.5q0 -62 40 -102.5t101 -40.5q54 0 93.5 39.5t44.5 96.5v13q0 53 -41.5 92.5t-96.5 39.5zM2830 0h-139v300q0 44 -31 75.5t-76 31.5t-76 -31.5t-31 -75.5
v-300h-139v699h139v-173q51 21 107 21q100 0 173 -70.5t73 -169.5v-307z" />
    </font>
</defs>
</svg>
