<?xml version="1.0" standalone="no"?>
<!DOCTYPE svg PUBLIC "-//W3C//DTD SVG 1.1//EN" "http://www.w3.org/Graphics/SVG/1.1/DTD/svg11.dtd" >
<svg xmlns="http://www.w3.org/2000/svg">
<metadata>
Created by FontForge 20120702 at Mon Aug 20 12:33:38 2012

URW++, Copyright 2004 by URW++, Design and Development GmbH
</metadata>
<defs>
<font id="TeleLogo" horiz-adv-x="314" vert-adv-y="2048" >
  <font-face 
    font-family="TeleLogo"
    font-weight="400"
    font-stretch="normal"
    units-per-em="2048"
    panose-1="0 0 0 0 0 0 0 0 0 0"
    ascent="1679"
    descent="-369"
    x-height="942"
    cap-height="1365"
    bbox="-287 -369 1610 1701"
    underline-thickness="92"
    underline-position="-138"
    unicode-range="U+0020-F002"
  />
<missing-glyph vert-adv-y="2458" 
d="M31 0v1365h252v-1365h-252zM252 31v1303h-190v-1303h190z" />
    <glyph glyph-name=".notdef" vert-adv-y="2458" 
d="M31 0v1365h252v-1365h-252zM252 31v1303h-190v-1303h190z" />
    <glyph glyph-name="glyph1" horiz-adv-x="0" vert-adv-y="0" 
 />
    <glyph glyph-name="glyph2" vert-adv-y="2458" 
 />
    <glyph glyph-name="space" unicode=" " vert-adv-y="2458" 
 />
    <glyph glyph-name="exclam" unicode="!" horiz-adv-x="573" vert-adv-y="2458" 
d="M287 478v287h287v-287h-287z" />
    <glyph glyph-name="quotedbl" unicode="&#x22;" horiz-adv-x="584" vert-adv-y="2458" 
d="M402 1349v-1046q0 -137 40 -178q34 -35 115 -43q24 -2 82 -2v-80h-695v80q84 0 124 8q81 17 102 94q11 40 11 121v1046q-177 -5 -277 -117q-95 -107 -116 -328l-75 13l14 500h1129l14 -500l-75 -13q-21 221 -116 328q-100 112 -277 117v0z" />
    <glyph glyph-name="numbersign" unicode="#" vert-adv-y="2458" 
 />
    <glyph glyph-name="dollar" unicode="$" vert-adv-y="2458" 
 />
    <glyph glyph-name="percent" unicode="%" vert-adv-y="2458" 
 />
    <glyph glyph-name="ampersand" unicode="&#x26;" vert-adv-y="2458" 
 />
    <glyph glyph-name="quotesingle" unicode="'" vert-adv-y="2458" 
 />
    <glyph glyph-name="parenleft" unicode="(" vert-adv-y="2458" 
 />
    <glyph glyph-name="parenright" unicode=")" vert-adv-y="2458" 
 />
    <glyph glyph-name="asterisk" unicode="*" vert-adv-y="2458" 
 />
    <glyph glyph-name="plus" unicode="+" vert-adv-y="2458" 
 />
    <glyph glyph-name="comma" unicode="," vert-adv-y="2458" 
 />
    <glyph glyph-name="hyphen" unicode="-" vert-adv-y="2458" 
 />
    <glyph glyph-name="period" unicode="." vert-adv-y="2458" 
 />
    <glyph glyph-name="slash" unicode="/" vert-adv-y="2458" 
 />
    <glyph glyph-name="zero" unicode="0" horiz-adv-x="980" vert-adv-y="2458" 
d="M490 1395q164 0 277 -168q61 -91 99 -231q41 -148 41 -313q0 -219 -70 -402q-118 -310 -347 -310q-163 0 -276 168q-63 93 -100 231q-41 149 -41 321q0 210 70 394q118 310 347 310zM490 1321q-108 0 -164 -129q-58 -133 -58 -500q0 -411 69 -540q56 -107 153 -107
q108 0 164 130q58 132 58 508q0 403 -69 531q-56 107 -153 107z" />
    <glyph glyph-name="one" unicode="1" horiz-adv-x="697" vert-adv-y="2458" 
d="M447 1384v-1117q0 -104 11 -136q22 -63 128 -63h79v-68h-612v68h78q77 0 108 31q21 20 25 56q6 43 6 112v733q0 105 -11 138q-22 63 -128 63h-49v65q123 11 175 30q86 30 134 88h56z" />
    <glyph glyph-name="two" unicode="2" horiz-adv-x="966" vert-adv-y="2458" 
d="M854 427l-15 -427h-765q19 153 70 277q48 118 117 198q52 59 159 140q115 87 154 135q90 112 90 268q0 135 -64 219q-61 79 -172 79q-132 0 -202 -99q-42 -61 -52 -156q32 21 60 21q52 0 85 -39q27 -33 27 -80q0 -52 -35 -86q-33 -32 -81 -32q-64 0 -98 53
q-32 49 -32 124q0 134 80 238q102 134 289 134q148 0 252 -83q131 -105 131 -291q0 -160 -121 -283q-54 -54 -130 -105q-12 -8 -113 -73q-133 -83 -210 -205q-46 -71 -81 -184h259q171 0 231 31q86 44 106 226h61z" />
    <glyph glyph-name="three" unicode="3" horiz-adv-x="950" vert-adv-y="2458" 
d="M587 718q103 -21 182 -92q100 -92 100 -248q0 -184 -138 -301q-125 -106 -308 -106q-169 0 -269 90q-89 80 -89 211q0 82 39 131q35 43 95 43q49 0 80 -30q33 -32 33 -84q0 -54 -36 -87q-32 -28 -82 -28q-26 0 -55 15q9 -84 75 -134q68 -51 182 -51q141 0 214 90
q68 83 68 226q0 216 -130 284q-56 29 -166 29h-17v65h19q103 0 154 31q119 70 119 256q0 145 -67 219q-63 69 -167 69q-97 0 -170 -54q-51 -37 -71 -108q22 10 43 10q48 0 80 -33q31 -31 31 -78q0 -58 -43 -92q-33 -25 -72 -25q-66 0 -102 61q-21 37 -21 88q0 121 87 209
q100 100 269 100q146 0 254 -79q136 -99 136 -263q0 -138 -110 -243q-59 -57 -147 -91z" />
    <glyph glyph-name="four" unicode="4" horiz-adv-x="954" vert-adv-y="2458" 
d="M722 1384v-920h199v-87h-199v-110q0 -106 11 -139q22 -63 128 -63h23v-65h-534v65h54q77 0 108 31q21 20 25 57q6 44 6 114v110h-495v89l565 918h109zM543 464v648l-400 -648h400z" />
    <glyph glyph-name="five" unicode="5" horiz-adv-x="951" vert-adv-y="2458" 
d="M238 1170l-27 -400q103 99 251 99q158 0 278 -114q133 -126 133 -316q0 -157 -90 -283q-132 -185 -364 -185q-182 0 -275 119q-63 81 -63 186q0 74 35 123q33 45 93 45q55 0 88 -39q26 -31 26 -75q0 -54 -39 -88q-31 -27 -71 -27q-28 0 -57 14q9 -60 40 -99
q71 -87 210 -87q137 0 204 93q72 100 72 280q0 197 -87 294q-69 77 -174 77q-98 0 -170 -64q-53 -47 -61 -131l-62 4l53 796q169 -56 334 -56q156 0 266 53l18 -16q-75 -234 -364 -234q-98 0 -197 31z" />
    <glyph glyph-name="six" unicode="6" horiz-adv-x="958" vert-adv-y="2458" 
d="M685 1275q-53 47 -133 47q-119 0 -187 -102q-66 -98 -86 -289q-12 -106 -12 -250q42 77 83 116q78 74 188 74q136 0 237 -102q122 -123 122 -327q0 -171 -92 -302q-119 -169 -303 -169q-179 0 -295 162q-133 185 -133 479q0 254 90 461q96 220 251 290q68 31 141 31
q111 0 188 -66q66 -57 66 -140q0 -51 -29 -88q-34 -43 -91 -43q-49 0 -81 36q-29 31 -29 74q0 51 34 83q23 22 71 25zM491 795q-77 0 -127 -65q-85 -111 -85 -308q0 -204 85 -314q50 -65 128 -65q82 0 132 65q86 110 86 312q0 204 -86 310q-52 65 -133 65z" />
    <glyph glyph-name="seven" unicode="7" horiz-adv-x="905" vert-adv-y="2458" 
d="M860 1365v-83q-128 -184 -212 -340q-156 -286 -156 -603q0 -76 9 -159q6 -55 6 -80q0 -70 -39 -105q-28 -24 -60 -24q-51 0 -80 52q-35 63 -35 160q0 237 152 539q40 80 289 482h-217q-191 0 -263 -30q-81 -33 -111 -131q-14 -44 -23 -109l-59 5l34 426h765z" />
    <glyph glyph-name="eight" unicode="8" horiz-adv-x="966" vert-adv-y="2458" 
d="M639 748q108 -62 164 -123q101 -108 101 -255q0 -144 -94 -253q-125 -146 -344 -146q-203 0 -319 131q-85 96 -85 224q0 219 270 350q-224 115 -224 341q0 148 90 250q110 127 296 127q162 0 261 -95q95 -92 95 -233q0 -119 -78 -210q-45 -53 -133 -108zM416 636
q-7 -3 -16 -7q-191 -86 -191 -298q0 -140 80 -217q73 -71 186 -71q112 0 184 75q74 76 74 197q0 142 -133 228q-40 26 -184 93zM571 778q6 4 13 9q135 92 135 268q0 132 -76 207q-62 60 -163 60q-93 0 -151 -52q-74 -67 -74 -191q0 -80 32 -129q41 -63 170 -124
q34 -16 76 -33z" />
    <glyph glyph-name="nine" unicode="9" horiz-adv-x="973" vert-adv-y="2458" 
d="M706 659q-97 -176 -276 -176q-171 0 -273 140q-92 127 -92 301q0 206 129 345q116 125 267 125q180 0 306 -175q133 -186 133 -502q0 -403 -199 -615q-121 -131 -284 -131q-134 0 -219 83q-78 76 -78 172q0 51 29 89q35 46 94 46q52 0 86 -38q29 -33 29 -78t-30 -76
q-32 -33 -75 -33q-14 0 -30 5q61 -98 189 -98q160 0 236 153q35 71 51 209q10 79 10 160q0 30 -3 94zM467 1320q-97 0 -152 -88q-63 -102 -63 -277q0 -178 57 -290q51 -101 155 -101q111 0 170 105q54 97 54 247q0 213 -79 326q-53 78 -142 78z" />
    <glyph glyph-name="colon" unicode=":" vert-adv-y="2458" 
 />
    <glyph glyph-name="semicolon" unicode=";" vert-adv-y="2458" 
 />
    <glyph glyph-name="less" unicode="&#x3c;" vert-adv-y="2458" 
 />
    <glyph glyph-name="equal" unicode="=" horiz-adv-x="860" vert-adv-y="2458" 
d="M287 478v287h287v-287h-287z" />
    <glyph glyph-name="greater" unicode="&#x3e;" vert-adv-y="2458" 
 />
    <glyph glyph-name="question" unicode="?" vert-adv-y="2458" 
 />
    <glyph glyph-name="at" unicode="@" vert-adv-y="2458" 
 />
    <glyph glyph-name="A" unicode="A" horiz-adv-x="1296" vert-adv-y="2458" 
d="M1283 0h-516v66h23q52 0 80 8q43 12 43 55q0 33 -37 136l-69 194h-421l-48 -141q-37 -109 -37 -159q0 -93 156 -93h34v-66h-479v66h23q39 0 80 24q44 26 76 90q19 40 48 124l371 1089h70l417 -1167q38 -107 79 -136q37 -24 90 -24h17v-66zM779 537l-188 527l-179 -527
h367z" />
    <glyph glyph-name="B" unicode="B" horiz-adv-x="1217" vert-adv-y="2458" 
d="M776 729q130 -19 212 -74q149 -99 149 -282q0 -181 -138 -282q-83 -60 -186 -77q-82 -14 -177 -14h-583v65h27q77 0 109 32q20 20 25 56q6 45 6 114v831q0 105 -12 138q-21 64 -128 64h-27v65h519q160 0 246 -25q122 -37 188 -119q65 -81 65 -187q0 -113 -73 -194
q-65 -73 -222 -111zM409 754h178q138 0 208 59q74 64 74 205q0 142 -76 216q-68 66 -220 66q-113 0 -144 -42q-20 -29 -20 -141v-363zM409 684v-458q0 -102 24 -130q28 -31 121 -31h56q144 0 218 54q102 74 102 248q0 187 -114 269q-44 31 -110 41q-45 7 -146 7h-151z" />
    <glyph glyph-name="C" unicode="C" horiz-adv-x="1196" vert-adv-y="2458" 
d="M1083 1365v-477l-68 -3q-28 151 -75 245q-44 87 -124 140q-76 50 -172 50q-138 0 -225 -101q-128 -148 -128 -519q0 -655 380 -655q215 0 313 218q44 97 56 262h74q-10 -204 -84 -334q-126 -224 -388 -224q-278 0 -433 234q-137 207 -137 481q0 301 169 510
q83 103 199 160q91 44 193 44q88 0 178 -37q30 -12 110 -56q29 -17 49 -17q36 0 61 79h52z" />
    <glyph glyph-name="D" unicode="D" horiz-adv-x="1276" vert-adv-y="2458" 
d="M53 0v66h27q78 0 109 31q20 20 25 56q6 45 6 114v831q0 105 -12 138q-21 64 -128 64h-27v65h487q179 0 302 -56q200 -91 297 -305q65 -143 65 -318q0 -315 -187 -508q-173 -178 -477 -178h-487zM409 1117v-859q0 -122 33 -154q31 -30 135 -30q197 0 297 114
q112 128 112 498q0 248 -50 381q-86 226 -354 226q-113 0 -149 -42q-18 -20 -21 -51q-3 -30 -3 -83z" />
    <glyph glyph-name="E" unicode="E" horiz-adv-x="1159" vert-adv-y="2458" 
d="M1066 0h-1013v66h27q77 0 109 31q20 20 25 57q6 44 6 113v832q0 104 -12 137q-22 64 -128 64h-27v65h982l15 -476l-55 -2q-37 237 -129 324q-95 91 -273 91q-115 0 -151 -33q-33 -29 -33 -133v-381h30q146 0 196 77q34 54 47 165h57v-549h-57q-22 120 -61 170
q-33 43 -84 57q-35 10 -94 10h-34v-442q0 -94 26 -129q34 -47 147 -47q255 0 362 168q60 93 80 266l57 -1z" />
    <glyph glyph-name="F" unicode="F" horiz-adv-x="1070" vert-adv-y="2458" 
d="M1044 882l-60 -4q-16 151 -62 241q-88 176 -330 176q-124 0 -160 -49q-23 -31 -23 -131v-361h30q150 0 201 82q35 57 48 174h57v-583h-57q-23 130 -62 184q-34 47 -87 63q-35 11 -96 11h-34v-418q0 -105 11 -138q22 -63 128 -63h47v-66h-542v66h28q76 0 108 31
q20 20 25 56q6 45 6 114v831q0 104 -12 138q-21 63 -127 63h-28v66h983z" />
    <glyph glyph-name="G" unicode="G" horiz-adv-x="1254" vert-adv-y="2458" 
d="M1055 0h-70q-16 84 -56 84q-15 0 -50 -27q-120 -90 -261 -90q-242 0 -405 233q-141 201 -141 460q0 290 159 509q79 109 191 172q97 55 212 55q79 0 151 -29q32 -12 88 -45q43 -26 59 -26q37 0 65 69h53v-468l-69 -6q-30 183 -82 273q-92 156 -255 156q-105 0 -186 -66
q-93 -77 -136 -254q-31 -129 -31 -312q0 -291 87 -468q86 -175 264 -175q127 0 187 95q43 69 43 199v72q0 99 -34 140q-31 39 -115 39h-56v65h555v-65h-29q-77 0 -110 -30q-28 -26 -28 -124v-436z" />
    <glyph glyph-name="H" unicode="H" horiz-adv-x="1325" vert-adv-y="2458" 
d="M917 686h-508v-419q0 -105 11 -138q22 -63 128 -63h24v-66h-519v66h27q77 0 109 31q21 20 25 57q6 44 6 113v831q0 105 -11 138q-22 64 -129 64h-27v65h519v-65h-24q-77 0 -108 -32q-21 -20 -26 -56q-5 -44 -5 -114v-334h508v334q0 105 -11 138q-22 64 -128 64h-24v65
h519v-65h-28q-76 0 -108 -32q-21 -20 -25 -56q-6 -45 -6 -114v-831q0 -105 11 -138q22 -63 128 -63h28v-66h-519v66h24q76 0 108 31q21 20 25 57q6 44 6 113v419z" />
    <glyph glyph-name="I" unicode="I" horiz-adv-x="644" vert-adv-y="2458" 
d="M586 66v-66h-527v66h29q78 0 109 31q20 19 25 56q6 46 6 114v831q0 104 -12 138q-21 64 -128 64h-29v65h527v-65h-30q-77 0 -108 -32q-21 -20 -25 -57q-6 -44 -6 -113v-831q0 -105 11 -138q22 -63 128 -63h30z" />
    <glyph glyph-name="J" unicode="J" horiz-adv-x="888" vert-adv-y="2458" 
d="M109 185q13 -56 50 -91q55 -53 136 -53q98 0 153 85q41 64 41 199v773q0 105 -11 138q-22 64 -129 64h-47v65h555v-65h-40q-77 0 -108 -32q-21 -20 -25 -57q-6 -44 -6 -113v-713q0 -125 -23 -194q-41 -122 -146 -177q-88 -47 -192 -47q-130 0 -213 79q-87 83 -87 205
q0 70 34 115q38 51 105 51q59 0 95 -43q27 -34 27 -80q0 -53 -35 -89q-33 -34 -83 -34q-25 0 -51 14z" />
    <glyph glyph-name="K" unicode="K" horiz-adv-x="1248" vert-adv-y="2458" 
d="M627 796l419 -620q75 -110 165 -110h18v-66h-508v66h34q85 0 85 59q0 32 -30 74l-315 450l-86 -96v-286q0 -105 11 -138q22 -63 129 -63h35v-66h-531v66h27q77 0 109 31q21 20 25 56q6 44 6 114v832q0 105 -12 137q-21 64 -128 64h-27v65h531v-65h-35q-77 0 -109 -32
q-21 -20 -26 -56q-5 -44 -5 -113v-431l390 431q82 91 82 142q0 59 -116 59h-36v65h472v-65q-74 -7 -108 -21q-54 -21 -96 -68z" />
    <glyph glyph-name="L" unicode="L" horiz-adv-x="1089" vert-adv-y="2458" 
d="M1034 0h-981v65h27q77 0 109 32q20 20 25 56q6 45 6 114v831q0 105 -12 138q-22 64 -128 64h-27v65h529v-65h-34q-77 0 -108 -32q-21 -20 -26 -57q-5 -43 -5 -113v-827q0 -117 17 -149q27 -49 143 -49q220 0 321 154q62 96 95 297l60 -3z" />
    <glyph glyph-name="M" unicode="M" horiz-adv-x="1482" vert-adv-y="2458" 
d="M712 0h-63l-360 1241v-895q0 -134 10 -173q30 -107 141 -107h27v-66h-423v66h33q47 0 83 32q34 30 44 91q7 46 7 157v791q0 71 -6 93q-12 49 -53 62q-24 8 -70 8h-38v65h396l292 -1004l298 1004h399v-65h-28q-77 0 -108 -32q-21 -20 -25 -56q-6 -45 -6 -114v-831
q0 -104 11 -138q22 -63 128 -63h28v-66h-513v66h17q77 0 109 31q21 20 25 57q6 44 6 113v974z" />
    <glyph glyph-name="N" unicode="N" horiz-adv-x="1273" vert-adv-y="2458" 
d="M1072 -14h-81l-700 1102v-795q0 -85 9 -117q31 -110 148 -110h39v-66h-455v66h42q83 0 117 66q22 43 22 161v916q-24 44 -50 66q-29 25 -89 25h-42v65h311l652 -1016v730q0 101 -20 152q-27 69 -118 69h-37v65h421v-65h-35q-84 0 -113 -56q-21 -41 -21 -165v-1093z" />
    <glyph glyph-name="O" unicode="O" horiz-adv-x="1250" vert-adv-y="2458" 
d="M624 1396q227 0 384 -202q169 -217 169 -521q0 -191 -85 -367q-85 -175 -219 -264q-114 -75 -248 -75q-229 0 -383 202q-169 221 -169 512q0 200 85 377q82 172 219 263q114 75 247 75zM628 1320q-176 0 -256 -172q-80 -171 -80 -465q0 -323 93 -492q81 -146 243 -146
q173 0 256 162q75 149 75 467q0 358 -87 506q-83 140 -244 140z" />
    <glyph glyph-name="P" unicode="P" horiz-adv-x="1090" vert-adv-y="2458" 
d="M409 627v-360q0 -105 11 -138q22 -64 128 -64h32v-65h-527v65h27q77 0 109 31q20 20 25 57q6 45 6 114v831q0 105 -12 138q-21 64 -128 64h-27v65h553q191 0 310 -79q143 -94 143 -279q0 -166 -115 -272q-79 -73 -216 -96q-74 -12 -227 -12h-92zM409 697h72q125 0 165 8
q211 40 211 285q0 155 -78 236q-67 70 -215 70q-112 0 -138 -42q-11 -18 -14 -43q-3 -20 -3 -113v-401z" />
    <glyph glyph-name="Q" unicode="Q" horiz-adv-x="1250" vert-adv-y="2458" 
d="M1043 0h69q-5 -314 -186 -314q-77 0 -126 67q-15 21 -62 111q-29 56 -53 77t-59 21q-59 0 -77 -55q-8 -22 -9 -67h-106q6 54 20 86q12 28 42 60h1q-108 34 -193 114q-105 99 -168 255q-63 157 -63 327q0 291 169 512q154 202 383 202q228 0 383 -202q169 -221 169 -513
q0 -228 -108 -421q-117 -210 -309 -271q18 -18 50 -52q73 -75 126 -75q63 0 88 58q12 29 19 80zM628 1320q-176 0 -256 -172q-80 -171 -80 -465q0 -323 93 -492q81 -146 243 -146q173 0 256 162q75 149 75 467q0 358 -87 506q-83 140 -244 140z" />
    <glyph glyph-name="R" unicode="R" horiz-adv-x="1190" vert-adv-y="2458" 
d="M409 668v-401q0 -105 11 -138q22 -64 128 -64h32v-65h-527v65h27q77 0 109 31q20 20 25 57q6 45 6 114v831q0 105 -12 138q-21 64 -128 64h-27v65h553q191 0 310 -75q143 -89 143 -264q0 -155 -115 -252q-86 -73 -216 -87q-11 -2 -54 -5q115 -16 189 -77q60 -50 88 -126
q16 -45 29 -131q20 -126 44 -175q44 -87 157 -108v-65h-39q-135 0 -203 26q-106 41 -138 164q-12 48 -32 216q-23 190 -161 243q-42 17 -111 18q-20 0 -88 1zM409 733h72q124 0 164 7q211 36 211 263q0 147 -78 226q-67 67 -214 67q-112 0 -138 -42q-11 -18 -14 -43
q-3 -20 -3 -113v-365z" />
    <glyph glyph-name="S" unicode="S" horiz-adv-x="1014" vert-adv-y="2458" 
d="M809 915q-37 183 -96 270q-94 139 -240 139q-89 0 -150 -54q-74 -66 -74 -174q0 -114 80 -180q49 -41 189 -89q204 -71 275 -123q149 -110 149 -307q0 -187 -122 -313q-113 -117 -277 -117q-88 0 -163 32q-32 13 -105 59q-24 15 -45 15q-29 0 -51 -28q-10 -14 -27 -45
h-63v494h65q36 -188 99 -286q106 -167 279 -167q101 0 168 59q85 76 85 208q0 158 -132 234q-43 25 -231 88q-133 45 -210 113q-112 98 -112 270q0 186 122 294q99 89 241 89q77 0 152 -30q31 -13 97 -53q21 -12 37 -12q32 0 63 64h56v-450h-59z" />
    <glyph glyph-name="T" unicode="T" horiz-adv-x="1099" vert-adv-y="2458" 
d="M642 1300v-1033q0 -105 11 -138q22 -63 128 -63h47v-66h-562v66h47q77 0 109 31q20 20 25 57q6 43 6 113v1033h-43q-100 0 -178 -59q-85 -64 -118 -213q-12 -52 -19 -140l-60 4l11 473h1009l8 -473l-61 -4q-23 172 -70 261q-44 84 -110 119q-60 32 -149 32h-31z" />
    <glyph glyph-name="U" unicode="U" horiz-adv-x="1293" vert-adv-y="2458" 
d="M1268 1365v-65h-35q-35 0 -67 -18.5t-47 -46.5q-22 -43 -22 -160v-585q0 -154 -25 -236q-41 -141 -160 -221q-99 -66 -242 -66q-156 0 -271 67q-130 77 -172 224q-25 89 -25 232v608q0 105 -12 138q-21 64 -128 64h-35v65h536v-65h-33q-77 0 -109 -32q-20 -20 -25 -57
q-5 -43 -5 -113v-665q0 -194 72 -291t224 -97q115 0 195 61q97 74 123 212q12 66 12 172v585q0 131 -36 179q-33 46 -114 46h-33v65h434z" />
    <glyph glyph-name="V" unicode="V" horiz-adv-x="1141" vert-adv-y="2458" 
d="M633 294l214 690q47 150 47 212q0 104 -112 104h-35v65h381v-65h-12q-67 0 -100 -55q-18 -31 -61 -167l-345 -1092h-79l-356 1156q-28 89 -51 123q-25 35 -88 35h-24v65h501v-65h-35q-76 0 -103 -24q-24 -21 -24 -61q0 -31 21 -96z" />
    <glyph glyph-name="W" unicode="W" horiz-adv-x="1622" vert-adv-y="2458" 
d="M797 887l-256 -901h-58l-326 1151q-25 89 -45 120q-27 43 -87 43h-13v65h460v-65h-32q-101 0 -101 -74q0 -24 23 -103l209 -755l187 662l-30 107q-26 93 -47 124q-26 39 -84 39h-30v65h475v-65h-45q-97 0 -97 -77q0 -27 21 -100l216 -774l201 722q22 79 22 126
q0 62 -40 87q-26 16 -82 16h-38v65h410v-65h-20q-59 0 -95 -46q-40 -48 -77 -178l-311 -1090h-55z" />
    <glyph glyph-name="X" unicode="X" horiz-adv-x="1253" vert-adv-y="2458" 
d="M713 782l312 -565q84 -151 185 -151h26v-66h-573v66h46q111 0 111 77q0 40 -38 107l-190 341l-195 -315q-53 -87 -53 -133q0 -77 111 -77h53v-66h-492v66h17q63 0 129 46q43 30 71 68q24 32 58 86l257 408l-230 415q-78 141 -117 175q-41 36 -122 36h-39v65h571v-65h-46
q-87 0 -87 -52q0 -39 47 -124l142 -258l174 283q33 53 33 92q0 59 -92 59h-46v65h464v-65h-34q-59 0 -111 -31q-46 -28 -98 -109z" />
    <glyph glyph-name="Y" unicode="Y" horiz-adv-x="1107" vert-adv-y="2458" 
d="M637 592v-325q0 -105 11 -138q22 -63 128 -63h54v-66h-575v66h54q77 0 108 31q21 20 25 57q6 44 6 113v322l-266 561q-40 84 -62 110q-33 40 -91 40h-17v65h504v-65h-48q-101 0 -101 -64q0 -36 32 -107l201 -437l175 352q34 69 55 120q14 34 14 68q0 68 -106 68h-47v65
h403v-65h-17q-67 0 -105 -51q-39 -51 -93 -162z" />
    <glyph glyph-name="Z" unicode="Z" horiz-adv-x="1000" vert-adv-y="2458" 
d="M928 1293l-654 -1215h92q166 0 256 32q154 56 211 237q19 63 33 171l59 -3l-17 -515h-854v61l656 1226h-123q-187 0 -273 -41q-108 -52 -145 -200q-13 -52 -21 -144l-61 4l17 459h824v-72z" />
    <glyph glyph-name="bracketleft" unicode="[" vert-adv-y="2458" 
 />
    <glyph glyph-name="backslash" unicode="\" vert-adv-y="2458" 
 />
    <glyph glyph-name="bracketright" unicode="]" vert-adv-y="2458" 
 />
    <glyph glyph-name="asciicircum" unicode="^" vert-adv-y="2458" 
 />
    <glyph glyph-name="underscore" unicode="_" vert-adv-y="2458" 
 />
    <glyph glyph-name="grave" unicode="`" vert-adv-y="2458" 
 />
    <glyph glyph-name="a" unicode="a" horiz-adv-x="933" vert-adv-y="2458" 
d="M929 248q-3 -95 -20 -144q-42 -118 -149 -118q-77 0 -125 60q-27 34 -41 110q-107 -185 -289 -185q-98 0 -166 61q-82 74 -82 196q0 118 82 195q135 128 445 130v112q0 115 -33 165q-47 69 -160 69q-88 0 -135 -48q82 -25 82 -111q0 -52 -33 -84q-33 -31 -84 -31
q-49 0 -79 30q-33 32 -33 84q0 100 104 173q85 59 215 59q201 0 283 -121q46 -67 46 -230v-398q0 -79 17 -101q12 -15 30 -15q31 0 46 46q7 24 13 96h66zM584 484q-149 -1 -220 -41q-64 -36 -96 -101q-24 -51 -24 -109q0 -76 36 -119t95 -43q109 0 168 117q29 58 36 119
q5 50 5 119v58z" />
    <glyph glyph-name="b" unicode="b" horiz-adv-x="993" vert-adv-y="2458" 
d="M319 809q26 59 67 92q76 61 176 61q148 0 243 -105q123 -137 123 -369q0 -221 -110 -370q-103 -139 -271 -139q-91 0 -167 49q-16 10 -68 53q-20 16 -35 16q-18 0 -40 -32q-20 -28 -43 -65h-68q10 29 11 35q9 41 9 167v937q0 111 -25 138q-21 25 -79 25h-15v63l292 14
v-570zM535 890q-67 0 -125 -52q-108 -99 -108 -358q0 -200 51 -309q27 -58 78 -92q42 -28 95 -28q203 0 203 433q0 198 -51 306q-48 100 -143 100z" />
    <glyph glyph-name="c" unicode="c" horiz-adv-x="844" vert-adv-y="2458" 
d="M733 267l65 -27q-106 -269 -335 -269q-179 0 -289 143q-109 140 -109 360q0 225 124 363q119 134 294 134q158 0 245 -109q58 -71 58 -153q0 -53 -27 -88q-34 -43 -89 -43q-52 0 -82 39q-24 31 -24 70q0 44 28 75q27 30 68 30q11 0 22 -5q-14 30 -36 53q-59 59 -144 59
q-238 0 -238 -425q0 -174 31 -265q56 -161 200 -161q152 0 238 219z" />
    <glyph glyph-name="d" unicode="d" horiz-adv-x="1034" vert-adv-y="2458" 
d="M696 150q-35 -56 -69 -91q-79 -80 -199 -80q-143 0 -239 106q-124 135 -124 375q0 242 128 384q106 119 255 119q155 0 242 -139v315q0 110 -25 138q-21 25 -78 25h-38v63l314 14v-1150q0 -112 25 -141q22 -25 79 -25h23v-63l-294 -14v164zM467 891q-203 0 -203 -430
q0 -410 195 -410q109 0 172 112q60 109 60 302q0 200 -51 306q-57 120 -173 120z" />
    <glyph glyph-name="e" unicode="e" horiz-adv-x="892" vert-adv-y="2458" 
d="M816 478h-560q1 -198 41 -293q56 -134 192 -134q106 0 177 84q39 46 78 127l61 -32q-129 -259 -348 -259q-161 0 -264 110q-128 137 -128 396q0 238 128 381q101 113 243 113q211 0 317 -212q57 -113 63 -281zM627 550q0 125 -27 206q-49 143 -154 143q-118 0 -167 -176
q-20 -71 -21 -173h369z" />
    <glyph glyph-name="f" unicode="f" horiz-adv-x="585" vert-adv-y="2458" 
d="M365 872v-644q0 -112 25 -140q21 -25 78 -25h75v-63h-516v63h61q58 0 79 25q25 28 25 140v644h-165v70h165v32q0 149 32 228q43 105 136 156q69 38 154 38q103 0 171 -50q62 -46 62 -114q0 -48 -32 -80q-28 -28 -71 -28q-46 0 -77 32q-24 27 -24 63q0 55 56 90
q-42 24 -90 24q-90 0 -126 -84q-18 -44 -18 -168v-139h206v-70h-206z" />
    <glyph glyph-name="g" unicode="g" horiz-adv-x="847" vert-adv-y="2458" 
d="M281 386q-67 25 -115 66q-99 84 -99 208q0 109 74 195q99 116 263 116q97 0 164 -36q9 56 36 87q43 49 111 49q49 0 79 -29q29 -29 29 -69q0 -38 -26 -63q-21 -20 -54 -20q-36 0 -56 22q-19 22 -19 52q0 17 10 36h-5q-20 0 -32 -17q-18 -26 -18 -64q0 -5 1 -17
q45 -38 66 -68q51 -71 51 -161q0 -99 -58 -177q-64 -86 -175 -119q-39 -11 -113 -17q-96 -8 -124 -28q-23 -16 -23 -39q0 -22 16 -36q29 -26 159 -46q219 -32 292 -74q109 -64 109 -186q0 -139 -122 -226q-132 -94 -320 -94q-163 0 -265 68q-87 58 -87 157q0 105 113 166
q62 34 137 48q-77 17 -114 44q-57 42 -57 114q0 112 172 158zM377 57q-193 -60 -193 -187q0 -61 41 -105q63 -67 188 -67q134 0 204 75q49 52 49 121q0 71 -52 107q-48 34 -167 48q-25 3 -70 8zM403 911q-70 0 -105 -49q-52 -71 -52 -201q0 -140 65 -205q33 -34 96 -34
q155 0 155 238q0 251 -159 251z" />
    <glyph glyph-name="h" unicode="h" horiz-adv-x="1031" vert-adv-y="2458" 
d="M694 0v610q0 152 -28 200q-37 64 -105 64q-107 0 -169 -124q-31 -62 -40 -127q-11 -74 -11 -168v-226q0 -113 25 -141q21 -25 79 -25h33v-63h-447v63h33q58 0 79 25q25 29 25 141v910q0 110 -25 138q-21 25 -79 25h-23v63l300 14v-606q92 189 263 189q132 0 197 -89
q49 -67 58 -149q8 -68 8 -164v-331q0 -112 25 -141q21 -25 79 -25h23v-63h-300z" />
    <glyph glyph-name="i" unicode="i" horiz-adv-x="536" vert-adv-y="2458" 
d="M356 956v-727q0 -113 25 -141q21 -25 79 -25h33v-63h-447v63h33q58 0 79 25q25 29 25 141v486q0 111 -25 139q-21 24 -79 24h-23v64zM256 1375q45 0 77 -33q33 -33 33 -79t-32 -79q-33 -33 -80 -33t-79 33q-33 33 -33 79q0 48 34 80q33 32 80 32z" />
    <glyph glyph-name="j" unicode="j" horiz-adv-x="467" vert-adv-y="2458" 
d="M329 956v-912q0 -121 -10 -171q-26 -120 -109 -186q-72 -56 -181 -56q-122 0 -192 75q-44 48 -44 105q0 49 29 81q29 33 76 33q49 0 78 -36q24 -28 24 -66q0 -71 -81 -101q43 -27 94 -27q72 0 107 44q25 31 32 87q4 25 4 105v784q0 111 -25 139q-21 24 -79 24h-23v64z
M230 1375q44 0 77 -33q33 -32 33 -79q0 -46 -32 -79q-33 -33 -81 -33q-46 0 -78 33q-33 33 -33 79q0 48 33 80q34 32 81 32z" />
    <glyph glyph-name="k" unicode="k" horiz-adv-x="1002" vert-adv-y="2458" 
d="M976 0h-259l-295 476l-81 -73v-174q0 -113 25 -141q22 -25 80 -25h38v-63h-453v63h33q58 0 79 25q25 29 25 141v910q0 110 -25 138q-21 25 -79 25h-23v63l300 14v-878l275 239q60 52 60 93q0 45 -88 45h-31v64h404v-64h-22q-41 0 -71 -15q-35 -17 -98 -75l-224 -201
l246 -394q39 -63 68 -92q38 -38 98 -38h18v-63z" />
    <glyph glyph-name="l" unicode="l" horiz-adv-x="513" vert-adv-y="2458" 
d="M341 1379v-1150q0 -112 25 -141q22 -25 79 -25h33v-63h-447v63h33q58 0 79 25q25 29 25 141v909q0 111 -25 139q-21 25 -79 25h-23v63z" />
    <glyph glyph-name="m" unicode="m" horiz-adv-x="1489" vert-adv-y="2458" 
d="M1152 0v576q0 178 -25 230q-34 68 -106 68q-86 0 -139 -97q-29 -52 -38 -116q-7 -45 -7 -175v-257q0 -112 25 -141q21 -25 78 -25h30v-63h-306v544q0 139 -6 182q-21 148 -129 148q-87 0 -137 -99q-25 -48 -34 -100q-10 -55 -10 -189v-257q0 -114 23 -141q22 -25 81 -25
h29v-63h-443v63h33q56 0 78 25q26 29 26 141v486q0 110 -26 139q-22 24 -78 24h-23v64l287 14v-167q20 51 56 90q77 83 184 83q165 0 239 -186q90 186 253 186q138 0 207 -108q36 -56 44 -128q7 -57 7 -127v-370q0 -112 25 -141q21 -25 79 -25h23v-63h-300z" />
    <glyph glyph-name="n" unicode="n" horiz-adv-x="1038" vert-adv-y="2458" 
d="M701 0v610q0 149 -29 199q-36 65 -105 65q-106 0 -167 -124q-52 -103 -52 -296v-225q0 -113 25 -141q21 -25 78 -25h34v-63h-447v63h33q58 0 79 25q25 29 25 141v486q0 111 -25 139q-21 24 -79 24h-23v64l293 14v-206q88 212 268 212q131 0 199 -89q49 -64 58 -149
q8 -68 8 -164v-331q0 -112 25 -141q21 -25 79 -25h23v-63h-300z" />
    <glyph glyph-name="o" unicode="o" horiz-adv-x="958" vert-adv-y="2458" 
d="M480 971q191 0 310 -151q104 -132 104 -347q0 -218 -104 -351q-118 -151 -316 -151q-187 0 -305 151q-104 133 -104 349q0 217 104 349q119 151 311 151zM480 905q-70 0 -125 -57q-91 -94 -91 -367q0 -226 56 -342q50 -102 160 -102q215 0 215 438q0 202 -47 307
q-29 65 -85 100q-38 23 -83 23z" />
    <glyph glyph-name="p" unicode="p" horiz-adv-x="1026" vert-adv-y="2458" 
d="M334 124v-252q0 -108 28 -139q21 -24 80 -24h57v-64h-487v64h45q58 0 79 24q25 28 25 139v843q0 111 -25 139q-21 24 -79 24h-23v64l292 14v-177q43 82 85 120q70 64 178 64q125 0 218 -82q155 -136 155 -390q0 -234 -135 -392q-102 -120 -250 -120q-164 0 -243 145z
M555 885q-55 0 -100 -33.5t-72 -95.5q-49 -110 -49 -300q0 -152 26 -231q30 -94 91 -138q46 -32 100 -32q65 0 116 47q96 87 96 359q0 207 -59 319q-54 105 -149 105z" />
    <glyph glyph-name="q" unicode="q" horiz-adv-x="961" vert-adv-y="2458" 
d="M799 942h68q-9 -27 -11 -35q-9 -42 -9 -167v-868q0 -112 24 -139q22 -24 79 -24h46v-64h-477v64h51q58 0 79 24q25 28 25 139v245q-34 -49 -67 -76q-73 -61 -176 -61q-148 0 -243 105q-123 137 -123 369q0 221 110 370q103 139 271 139q92 0 167 -49q16 -11 68 -53
q21 -16 35 -16q19 0 40 32q19 27 43 65zM467 891q-203 0 -203 -428q0 -411 194 -411q68 0 125 52q108 98 108 362q0 199 -51 306q-57 119 -173 119z" />
    <glyph glyph-name="r" unicode="r" horiz-adv-x="750" vert-adv-y="2458" 
d="M341 956l-7 -264q86 271 256 271q71 0 115 -41q39 -37 39 -95q0 -55 -36 -88q-30 -26 -70 -26q-45 0 -75 31q-25 27 -25 67q0 48 51 82q-22 3 -28 3q-52 0 -98 -65q-115 -165 -115 -534v-68q0 -102 5 -116q16 -50 93 -50h69v-63h-477v63h33q58 0 79 25q25 28 25 141v486
q0 111 -25 139q-21 24 -79 24h-23v64z" />
    <glyph glyph-name="s" unicode="s" horiz-adv-x="766" vert-adv-y="2458" 
d="M661 942v-298h-62q-50 259 -239 259q-68 0 -110 -41q-44 -42 -44 -103q0 -70 61 -111q30 -20 109 -45q171 -55 228 -98q112 -85 112 -223q0 -140 -97 -229q-82 -74 -210 -74q-74 0 -136 26q-25 10 -93 50q-15 9 -26 9q-19 0 -37 -64h-58v347h58q35 -127 76 -186
q36 -53 91 -83q59 -33 123 -33q78 0 123 52q43 50 43 115q0 94 -84 145q-45 28 -181 73q-90 29 -149 75q-90 70 -90 199q0 119 84 192q76 66 192 66q101 0 194 -55q19 -11 30 -11q20 0 30 46h62z" />
    <glyph glyph-name="t" unicode="t" horiz-adv-x="651" vert-adv-y="2458" 
d="M333 872v-567q0 -109 15 -161q23 -79 97 -79q68 0 97 69q28 66 28 161v28h68v-38q0 -142 -59 -225q-58 -81 -183 -81q-120 0 -178 69q-43 52 -52 125q-6 55 -6 132v567h-148v58q142 35 193 112q52 79 69 255h59v-355h275v-70h-275z" />
    <glyph glyph-name="u" unicode="u" horiz-adv-x="1038" vert-adv-y="2458" 
d="M709 -14v226q-99 -232 -296 -232q-138 0 -199 101q-38 62 -45 136q-6 63 -6 146v352q0 111 -25 139q-21 24 -79 24h-23v64l300 14v-646q0 -116 24 -170q29 -66 103 -66q108 0 177 127q53 97 53 259v255q0 111 -25 139q-21 24 -79 24h-31v64l308 14v-727q0 -112 25 -141
q21 -25 79 -25h23v-63z" />
    <glyph glyph-name="v" unicode="v" horiz-adv-x="945" vert-adv-y="2458" 
d="M513 -14h-87l-281 771q-25 69 -47 92q-27 29 -68 29h-18v64h426v-64h-37q-94 0 -94 -54q0 -26 22 -87l191 -529l191 516q17 47 17 80q0 74 -88 74h-34v64h327v-64q-36 -1 -57 -10q-45 -22 -78 -110z" />
    <glyph glyph-name="w" unicode="w" horiz-adv-x="1398" vert-adv-y="2458" 
d="M982 -14h-76l-207 666l-215 -666h-80l-246 793q-21 65 -44 83q-22 16 -69 16h-33v64h421v-64h-39q-70 0 -70 -45q0 -16 21 -82l151 -490l165 518q-15 56 -31 74q-24 25 -76 25h-35v64h418v-64h-42q-52 0 -65 -10q-11 -10 -11 -26q0 -9 25 -91l151 -490l144 446
q24 72 24 111q0 60 -87 60h-38v64h347v-64h-24q-54 0 -83 -36q-28 -36 -58 -126z" />
    <glyph glyph-name="x" unicode="x" horiz-adv-x="1000" vert-adv-y="2458" 
d="M987 0h-457v63h25q53 0 70 12q13 9 13 30t-30 65l-138 202l-117 -163q-45 -63 -45 -92q0 -54 76 -54h26v-63h-391v63h23q64 0 123 43q45 33 114 129l146 203l-243 347q-38 53 -52 66q-33 27 -88 27h-17v64h445v-64h-41q-46 -2 -57 -5.5t-11 -17.5q0 -18 49 -90l124 -180
l102 148q49 71 49 99q0 46 -84 46h-30v64h396v-64h-29q-75 0 -128 -49q-40 -37 -111 -138l-121 -172l229 -342q38 -58 67 -81q40 -33 89 -33h24v-63z" />
    <glyph glyph-name="y" unicode="y" horiz-adv-x="948" vert-adv-y="2458" 
d="M12 942h427v-64h-37q-83 0 -83 -44q0 -19 14 -56l205 -535l178 496q19 52 19 80q0 59 -90 59h-45v64h336v-64h-22q-37 0 -60 -28q-17 -20 -34 -67l-339 -911q-48 -127 -106 -183q-60 -58 -148 -58q-74 0 -126 43q-62 53 -62 132q0 49 28 82q30 37 82 37q57 0 87 -42
q18 -25 18 -58q0 -45 -33 -76q-20 -19 -53 -24q23 -26 63 -26q59 0 103 47q41 44 89 181l22 64l-281 755q-32 87 -56 108q-27 24 -79 24h-17v64z" />
    <glyph glyph-name="z" unicode="z" horiz-adv-x="860" vert-adv-y="2458" 
d="M780 889l-524 -819h91q127 0 189 25q124 51 176 250h50l-12 -345h-691v72l511 800h-70q-114 0 -155 -8q-102 -20 -151 -106q-21 -36 -37 -106h-49l10 290h662v-53z" />
    <glyph glyph-name="braceleft" unicode="{" vert-adv-y="2458" 
 />
    <glyph glyph-name="bar" unicode="|" vert-adv-y="2458" 
 />
    <glyph glyph-name="braceright" unicode="}" vert-adv-y="2458" 
 />
    <glyph glyph-name="asciitilde" unicode="~" vert-adv-y="2458" 
 />
    <glyph glyph-name="Adieresis" unicode="&#xc4;" horiz-adv-x="1296" vert-adv-y="2458" 
d="M1283 0h-516v66h23q52 0 80 8q43 12 43 55q0 33 -37 136l-69 194h-421l-48 -141q-37 -109 -37 -159q0 -93 156 -93h34v-66h-479v66h23q39 0 80 24q44 26 76 90q19 40 48 124l371 1089h70l417 -1167q38 -107 79 -136q37 -24 90 -24h17v-66zM779 537l-188 527l-179 -527
h367zM456 1701q48 0 82 -34q35 -34 35 -84q0 -48 -35 -82q-35 -33 -82 -33q-48 0 -82 34t-34 82q0 49 34 83q35 34 82 34zM838 1701q48 0 82 -34q35 -34 35 -84q0 -48 -36 -82q-34 -33 -81 -33q-48 0 -82 34t-34 82q0 49 34 83q35 34 82 34z" />
    <glyph glyph-name="Aring" unicode="&#xc5;" vert-adv-y="2458" 
 />
    <glyph glyph-name="Ccedilla" unicode="&#xc7;" vert-adv-y="2458" 
 />
    <glyph glyph-name="Eacute" unicode="&#xc9;" vert-adv-y="2458" 
 />
    <glyph glyph-name="Ntilde" unicode="&#xd1;" vert-adv-y="2458" 
 />
    <glyph glyph-name="Odieresis" unicode="&#xd6;" horiz-adv-x="1250" vert-adv-y="2458" 
d="M624 1396q227 0 384 -202q169 -217 169 -521q0 -191 -85 -367q-85 -175 -219 -264q-114 -75 -248 -75q-229 0 -383 202q-169 221 -169 512q0 200 85 377q82 172 219 263q114 75 247 75zM628 1320q-176 0 -256 -172q-80 -171 -80 -465q0 -323 93 -492q81 -146 243 -146
q173 0 256 162q75 149 75 467q0 358 -87 506q-83 140 -244 140zM434 1701q48 0 82 -34q35 -34 35 -84q0 -48 -35 -82q-35 -33 -82 -33q-48 0 -82 34t-34 82q0 49 34 83q35 34 82 34zM815 1701q48 0 82 -34q35 -34 35 -84q0 -48 -36 -82q-34 -33 -81 -33q-48 0 -82 34t-34 82
q0 49 34 83t82 34z" />
    <glyph glyph-name="Udieresis" unicode="&#xdc;" horiz-adv-x="1293" vert-adv-y="2458" 
d="M1268 1365v-65h-35q-35 0 -67 -18.5t-47 -46.5q-22 -43 -22 -160v-585q0 -154 -25 -236q-41 -141 -160 -221q-99 -66 -242 -66q-156 0 -271 67q-130 77 -172 224q-25 89 -25 232v608q0 105 -12 138q-21 64 -128 64h-35v65h536v-65h-33q-77 0 -109 -32q-20 -20 -25 -57
q-5 -43 -5 -113v-665q0 -194 72 -291t224 -97q115 0 195 61q97 74 123 212q12 66 12 172v585q0 131 -36 179q-33 46 -114 46h-33v65h434zM503 1701q48 0 82 -34q35 -34 35 -84q0 -48 -36 -82q-34 -33 -81 -33q-48 0 -82 34t-34 82q0 49 34 83t82 34zM885 1701q48 0 82 -34
q35 -34 35 -84q0 -48 -36 -82q-34 -33 -81 -33q-49 0 -82 34q-34 34 -34 82q0 49 34 83t82 34z" />
    <glyph glyph-name="aacute" unicode="&#xe1;" vert-adv-y="2458" 
 />
    <glyph glyph-name="agrave" unicode="&#xe0;" vert-adv-y="2458" 
 />
    <glyph glyph-name="acircumflex" unicode="&#xe2;" vert-adv-y="2458" 
 />
    <glyph glyph-name="adieresis" unicode="&#xe4;" horiz-adv-x="933" vert-adv-y="2458" 
d="M929 248q-3 -95 -20 -144q-42 -118 -149 -118q-77 0 -125 60q-27 34 -41 110q-107 -185 -289 -185q-98 0 -166 61q-82 74 -82 196q0 118 82 195q135 128 445 130v112q0 115 -33 165q-47 69 -160 69q-88 0 -135 -48q82 -25 82 -111q0 -52 -33 -84q-33 -31 -84 -31
q-49 0 -79 30q-33 32 -33 84q0 100 104 173q85 59 215 59q201 0 283 -121q46 -67 46 -230v-398q0 -79 17 -101q12 -15 30 -15q31 0 46 46q7 24 13 96h66zM584 484q-149 -1 -220 -41q-64 -36 -96 -101q-24 -51 -24 -109q0 -76 36 -119t95 -43q109 0 168 117q29 58 36 119
q5 50 5 119v58zM253 1310q45 0 78 -33q34 -33 34 -81q0 -46 -34 -79q-33 -32 -79 -32t-79 33q-33 32 -33 79t33 80t80 33zM615 1310q45 0 78 -33q34 -33 34 -81q0 -46 -34 -79q-33 -32 -79 -32t-79 33q-33 32 -33 79t33 80t80 33z" />
    <glyph glyph-name="atilde" unicode="&#xe3;" vert-adv-y="2458" 
 />
    <glyph glyph-name="aring" unicode="&#xe5;" vert-adv-y="2458" 
 />
    <glyph glyph-name="ccedilla" unicode="&#xe7;" vert-adv-y="2458" 
 />
    <glyph glyph-name="eacute" unicode="&#xe9;" vert-adv-y="2458" 
 />
    <glyph glyph-name="egrave" unicode="&#xe8;" vert-adv-y="2458" 
 />
    <glyph glyph-name="ecircumflex" unicode="&#xea;" vert-adv-y="2458" 
 />
    <glyph glyph-name="edieresis" unicode="&#xeb;" vert-adv-y="2458" 
 />
    <glyph glyph-name="iacute" unicode="&#xed;" vert-adv-y="2458" 
 />
    <glyph glyph-name="igrave" unicode="&#xec;" vert-adv-y="2458" 
 />
    <glyph glyph-name="icircumflex" unicode="&#xee;" vert-adv-y="2458" 
 />
    <glyph glyph-name="idieresis" unicode="&#xef;" vert-adv-y="2458" 
 />
    <glyph glyph-name="ntilde" unicode="&#xf1;" vert-adv-y="2458" 
 />
    <glyph glyph-name="oacute" unicode="&#xf3;" vert-adv-y="2458" 
 />
    <glyph glyph-name="ograve" unicode="&#xf2;" vert-adv-y="2458" 
 />
    <glyph glyph-name="ocircumflex" unicode="&#xf4;" vert-adv-y="2458" 
 />
    <glyph glyph-name="odieresis" unicode="&#xf6;" horiz-adv-x="958" vert-adv-y="2458" 
d="M480 971q191 0 310 -151q104 -132 104 -347q0 -218 -104 -351q-118 -151 -316 -151q-187 0 -305 151q-104 133 -104 349q0 217 104 349q119 151 311 151zM480 905q-70 0 -125 -57q-91 -94 -91 -367q0 -226 56 -342q50 -102 160 -102q215 0 215 438q0 202 -47 307
q-29 65 -85 100q-38 23 -83 23zM299 1310q45 0 78 -33q34 -33 34 -81q0 -46 -34 -79q-33 -32 -79 -32t-79 33q-33 32 -33 79t33 80t80 33zM661 1310q46 0 78 -33q34 -33 34 -81q0 -46 -34 -79q-33 -32 -79 -32q-47 0 -79 33q-33 32 -33 79t33 80t80 33z" />
    <glyph glyph-name="otilde" unicode="&#xf5;" vert-adv-y="2458" 
 />
    <glyph glyph-name="uacute" unicode="&#xfa;" vert-adv-y="2458" 
 />
    <glyph glyph-name="ugrave" unicode="&#xf9;" vert-adv-y="2458" 
 />
    <glyph glyph-name="ucircumflex" unicode="&#xfb;" vert-adv-y="2458" 
 />
    <glyph glyph-name="udieresis" unicode="&#xfc;" horiz-adv-x="1038" vert-adv-y="2458" 
d="M709 -14v226q-99 -232 -296 -232q-138 0 -199 101q-38 62 -45 136q-6 63 -6 146v352q0 111 -25 139q-21 24 -79 24h-23v64l300 14v-646q0 -116 24 -170q29 -66 103 -66q108 0 177 127q53 97 53 259v255q0 111 -25 139q-21 24 -79 24h-31v64l308 14v-727q0 -112 25 -141
q21 -25 79 -25h23v-63zM338 1310q45 0 78 -33q34 -33 34 -81q0 -46 -34 -79q-33 -32 -79 -32t-79 33q-33 32 -33 79t33 80t80 33zM700 1310q46 0 78 -33q34 -33 34 -81q0 -46 -34 -79q-33 -32 -79 -32q-47 0 -79 33q-33 32 -33 79t33 80t80 33z" />
    <glyph glyph-name="dagger" unicode="&#x2020;" vert-adv-y="2458" 
 />
    <glyph glyph-name="degree" unicode="&#xb0;" vert-adv-y="2458" 
 />
    <glyph glyph-name="cent" unicode="&#xa2;" vert-adv-y="2458" 
 />
    <glyph glyph-name="sterling" unicode="&#xa3;" vert-adv-y="2458" 
 />
    <glyph glyph-name="section" unicode="&#xa7;" horiz-adv-x="573" vert-adv-y="2458" 
d="M0 478v287h287v-287h-287z" />
    <glyph glyph-name="bullet" unicode="&#x2022;" vert-adv-y="2458" 
 />
    <glyph glyph-name="paragraph" unicode="&#xb6;" vert-adv-y="2458" 
 />
    <glyph glyph-name="germandbls" unicode="&#xdf;" horiz-adv-x="1064" vert-adv-y="2458" 
d="M348 0h-310v63h33q58 0 79 25q25 29 25 141v643h-120v70h120q1 103 16 162q35 147 145 227q92 66 231 66q124 0 216 -54q130 -75 130 -225q0 -81 -47 -149q-15 -21 -91 -100q-62 -63 -62 -115q0 -40 26 -71t71 -65q112 -87 158 -155q56 -85 56 -180q0 -130 -90 -220
q-83 -83 -206 -83q-81 0 -159 45q-13 7 -21 7q-15 0 -24 -32h-68v284h62q8 -96 43 -152q53 -87 143 -87q59 0 101 46q51 56 51 146q0 79 -42 139q-28 40 -109 110q-70 60 -94 95q-34 50 -34 107q0 56 37 120q8 12 57 84q73 107 73 226q0 102 -58 159q-54 53 -133 53
q-116 0 -165 -98q-40 -79 -40 -240v-992z" />
    <glyph glyph-name="registered" unicode="&#xae;" vert-adv-y="2458" 
 />
    <glyph glyph-name="copyright" unicode="&#xa9;" vert-adv-y="2458" 
 />
    <glyph glyph-name="trademark" unicode="&#x2122;" vert-adv-y="2458" 
 />
    <glyph glyph-name="acute" unicode="&#xb4;" vert-adv-y="2458" 
 />
    <glyph glyph-name="dieresis" unicode="&#xa8;" vert-adv-y="2458" 
 />
    <glyph glyph-name="notequal" unicode="&#x2260;" vert-adv-y="2458" 
 />
    <glyph glyph-name="AE" unicode="&#xc6;" vert-adv-y="2458" 
 />
    <glyph glyph-name="Oslash" unicode="&#xd8;" vert-adv-y="2458" 
 />
    <glyph glyph-name="infinity" unicode="&#x221e;" vert-adv-y="2458" 
 />
    <glyph glyph-name="plusminus" unicode="&#xb1;" vert-adv-y="2458" 
 />
    <glyph glyph-name="lessequal" unicode="&#x2264;" vert-adv-y="2458" 
 />
    <glyph glyph-name="greaterequal" unicode="&#x2265;" vert-adv-y="2458" 
 />
    <glyph glyph-name="yen" unicode="&#xa5;" vert-adv-y="2458" 
 />
    <glyph glyph-name="mu" unicode="&#xb5;" vert-adv-y="2458" 
 />
    <glyph glyph-name="partialdiff" unicode="&#x2202;" vert-adv-y="2458" 
 />
    <glyph glyph-name="summation" unicode="&#x2211;" vert-adv-y="2458" 
 />
    <glyph glyph-name="product" unicode="&#x220f;" vert-adv-y="2458" 
 />
    <glyph glyph-name="pi" unicode="&#x3c0;" vert-adv-y="2458" 
 />
    <glyph glyph-name="integral" unicode="&#x222b;" vert-adv-y="2458" 
 />
    <glyph glyph-name="ordfeminine" unicode="&#xaa;" vert-adv-y="2458" 
 />
    <glyph glyph-name="ordmasculine" unicode="&#xba;" vert-adv-y="2458" 
 />
    <glyph glyph-name="Omega" unicode="&#x2126;" vert-adv-y="2458" 
 />
    <glyph glyph-name="ae" unicode="&#xe6;" vert-adv-y="2458" 
 />
    <glyph glyph-name="oslash" unicode="&#xf8;" vert-adv-y="2458" 
 />
    <glyph glyph-name="questiondown" unicode="&#xbf;" vert-adv-y="2458" 
 />
    <glyph glyph-name="exclamdown" unicode="&#xa1;" vert-adv-y="2458" 
 />
    <glyph glyph-name="logicalnot" unicode="&#xac;" vert-adv-y="2458" 
 />
    <glyph glyph-name="radical" unicode="&#x221a;" vert-adv-y="2458" 
 />
    <glyph glyph-name="florin" unicode="&#x192;" vert-adv-y="2458" 
 />
    <glyph glyph-name="approxequal" unicode="&#x2248;" vert-adv-y="2458" 
 />
    <glyph glyph-name="Delta" unicode="&#x2206;" vert-adv-y="2458" 
 />
    <glyph glyph-name="guillemotleft" unicode="&#xab;" vert-adv-y="2458" 
 />
    <glyph glyph-name="guillemotright" unicode="&#xbb;" vert-adv-y="2458" 
 />
    <glyph glyph-name="ellipsis" unicode="&#x2026;" vert-adv-y="2458" 
 />
    <glyph glyph-name="glyph172" horiz-adv-x="980" vert-adv-y="980" 
 />
    <glyph glyph-name="Agrave" unicode="&#xc0;" vert-adv-y="2458" 
 />
    <glyph glyph-name="Atilde" unicode="&#xc3;" vert-adv-y="2458" 
 />
    <glyph glyph-name="Otilde" unicode="&#xd5;" vert-adv-y="2458" 
 />
    <glyph glyph-name="OE" unicode="&#x152;" vert-adv-y="2458" 
 />
    <glyph glyph-name="oe" unicode="&#x153;" vert-adv-y="2458" 
 />
    <glyph glyph-name="endash" unicode="&#x2013;" vert-adv-y="2458" 
 />
    <glyph glyph-name="emdash" unicode="&#x2014;" vert-adv-y="2458" 
 />
    <glyph glyph-name="quotedblleft" unicode="&#x201c;" vert-adv-y="2458" 
 />
    <glyph glyph-name="quotedblright" unicode="&#x201d;" vert-adv-y="2458" 
 />
    <glyph glyph-name="quoteleft" unicode="&#x2018;" vert-adv-y="2458" 
 />
    <glyph glyph-name="quoteright" unicode="&#x2019;" vert-adv-y="2458" 
 />
    <glyph glyph-name="divide" unicode="&#xf7;" vert-adv-y="2458" 
 />
    <glyph glyph-name="lozenge" unicode="&#x25ca;" vert-adv-y="2458" 
 />
    <glyph glyph-name="ydieresis" unicode="&#xff;" vert-adv-y="2458" 
 />
    <glyph glyph-name="Ydieresis" unicode="&#x178;" vert-adv-y="2458" 
 />
    <glyph glyph-name="fraction" unicode="&#x2215;" vert-adv-y="2458" 
 />
    <glyph glyph-name="Euro" unicode="&#x20ac;" vert-adv-y="2458" 
 />
    <glyph glyph-name="guilsinglleft" unicode="&#x2039;" vert-adv-y="2458" 
 />
    <glyph glyph-name="guilsinglright" unicode="&#x203a;" vert-adv-y="2458" 
 />
    <glyph glyph-name="fi" unicode="&#xf001;" vert-adv-y="2458" 
 />
    <glyph glyph-name="fl" unicode="&#xf002;" vert-adv-y="2458" 
 />
    <glyph glyph-name="daggerdbl" unicode="&#x2021;" vert-adv-y="2458" 
 />
    <glyph glyph-name="periodcentered" unicode="&#x2219;" vert-adv-y="2458" 
 />
    <glyph glyph-name="quotesinglbase" unicode="&#x201a;" vert-adv-y="2458" 
 />
    <glyph glyph-name="quotedblbase" unicode="&#x201e;" vert-adv-y="2458" 
 />
    <glyph glyph-name="perthousand" unicode="&#x2030;" vert-adv-y="2458" 
 />
    <glyph glyph-name="Acircumflex" unicode="&#xc2;" vert-adv-y="2458" 
 />
    <glyph glyph-name="Ecircumflex" unicode="&#xca;" vert-adv-y="2458" 
 />
    <glyph glyph-name="Aacute" unicode="&#xc1;" vert-adv-y="2458" 
 />
    <glyph glyph-name="Edieresis" unicode="&#xcb;" vert-adv-y="2458" 
 />
    <glyph glyph-name="Egrave" unicode="&#xc8;" vert-adv-y="2458" 
 />
    <glyph glyph-name="Iacute" unicode="&#xcd;" vert-adv-y="2458" 
 />
    <glyph glyph-name="Icircumflex" unicode="&#xce;" vert-adv-y="2458" 
 />
    <glyph glyph-name="Idieresis" unicode="&#xcf;" vert-adv-y="2458" 
 />
    <glyph glyph-name="Igrave" unicode="&#xcc;" vert-adv-y="2458" 
 />
    <glyph glyph-name="Oacute" unicode="&#xd3;" vert-adv-y="2458" 
 />
    <glyph glyph-name="Ocircumflex" unicode="&#xd4;" vert-adv-y="2458" 
 />
    <glyph glyph-name="glyph210" vert-adv-y="2458" 
 />
    <glyph glyph-name="Ograve" unicode="&#xd2;" vert-adv-y="2458" 
 />
    <glyph glyph-name="Uacute" unicode="&#xda;" vert-adv-y="2458" 
 />
    <glyph glyph-name="Ucircumflex" unicode="&#xdb;" vert-adv-y="2458" 
 />
    <glyph glyph-name="Ugrave" unicode="&#xd9;" vert-adv-y="2458" 
 />
    <glyph glyph-name="dotlessi" unicode="&#x131;" vert-adv-y="2458" 
 />
    <glyph glyph-name="circumflex" unicode="&#x2c6;" vert-adv-y="2458" 
 />
    <glyph glyph-name="tilde" unicode="&#x2dc;" vert-adv-y="2458" 
 />
    <glyph glyph-name="macron" unicode="&#x2c9;" vert-adv-y="2458" 
 />
    <glyph glyph-name="breve" unicode="&#x2d8;" vert-adv-y="2458" 
 />
    <glyph glyph-name="dotaccent" unicode="&#x2d9;" vert-adv-y="2458" 
 />
    <glyph glyph-name="ring" unicode="&#x2da;" vert-adv-y="2458" 
 />
    <glyph glyph-name="cedilla" unicode="&#xb8;" vert-adv-y="2458" 
 />
    <glyph glyph-name="hungarumlaut" unicode="&#x2dd;" vert-adv-y="2458" 
 />
    <glyph glyph-name="ogonek" unicode="&#x2db;" vert-adv-y="2458" 
 />
    <glyph glyph-name="caron" unicode="&#x2c7;" vert-adv-y="2458" 
 />
    <glyph glyph-name="nonbreakingspace" unicode="&#xa0;" vert-adv-y="2458" 
 />
    <glyph glyph-name="currency" unicode="&#xa4;" vert-adv-y="2458" 
 />
    <glyph glyph-name="brokenbar" unicode="&#xa6;" vert-adv-y="2458" 
 />
    <glyph glyph-name="sfthyphen" unicode="&#xad;" vert-adv-y="2458" 
 />
    <glyph glyph-name="macron" unicode="&#xaf;" vert-adv-y="2458" 
 />
    <glyph glyph-name="twosuperior" unicode="&#xb2;" vert-adv-y="2458" 
 />
    <glyph glyph-name="threesuperior" unicode="&#xb3;" vert-adv-y="2458" 
 />
    <glyph glyph-name="middot" unicode="&#xb7;" vert-adv-y="2458" 
 />
    <glyph glyph-name="onesuperior" unicode="&#xb9;" vert-adv-y="2458" 
 />
    <glyph glyph-name="onequarter" unicode="&#xbc;" vert-adv-y="2458" 
 />
    <glyph glyph-name="onehalf" unicode="&#xbd;" vert-adv-y="2458" 
 />
    <glyph glyph-name="threequarters" unicode="&#xbe;" vert-adv-y="2458" 
 />
    <glyph glyph-name="Eth" unicode="&#xd0;" vert-adv-y="2458" 
 />
    <glyph glyph-name="multiply" unicode="&#xd7;" vert-adv-y="2458" 
 />
    <glyph glyph-name="Yacute" unicode="&#xdd;" vert-adv-y="2458" 
 />
    <glyph glyph-name="Thorn" unicode="&#xde;" vert-adv-y="2458" 
 />
    <glyph glyph-name="eth" unicode="&#xf0;" vert-adv-y="2458" 
 />
    <glyph glyph-name="yacute" unicode="&#xfd;" vert-adv-y="2458" 
 />
    <glyph glyph-name="thorn" unicode="&#xfe;" vert-adv-y="2458" 
 />
    <glyph glyph-name="Cacute" unicode="&#x106;" vert-adv-y="2458" 
 />
    <glyph glyph-name="cacute" unicode="&#x107;" vert-adv-y="2458" 
 />
    <glyph glyph-name="Ccaron" unicode="&#x10c;" vert-adv-y="2458" 
 />
    <glyph glyph-name="ccaron" unicode="&#x10d;" vert-adv-y="2458" 
 />
    <glyph glyph-name="dmacron" unicode="&#x111;" vert-adv-y="2458" 
 />
    <glyph glyph-name="Gbreve" unicode="&#x11e;" vert-adv-y="2458" 
 />
    <glyph glyph-name="gbreve" unicode="&#x11f;" vert-adv-y="2458" 
 />
    <glyph glyph-name="Idotaccent" unicode="&#x130;" vert-adv-y="2458" 
 />
    <glyph glyph-name="Lslash" unicode="&#x141;" vert-adv-y="2458" 
 />
    <glyph glyph-name="lslash" unicode="&#x142;" vert-adv-y="2458" 
 />
    <glyph glyph-name="Scedilla" unicode="&#x15e;" vert-adv-y="2458" 
 />
    <glyph glyph-name="scedilla" unicode="&#x15f;" vert-adv-y="2458" 
 />
    <glyph glyph-name="Scaron" unicode="&#x160;" vert-adv-y="2458" 
 />
    <glyph glyph-name="scaron" unicode="&#x161;" vert-adv-y="2458" 
 />
    <glyph glyph-name="Zcaron" unicode="&#x17d;" vert-adv-y="2458" 
 />
    <glyph glyph-name="zcaron" unicode="&#x17e;" vert-adv-y="2458" 
 />
    <glyph glyph-name="franc" unicode="&#x20a3;" vert-adv-y="2458" 
 />
    <glyph glyph-name="minus" unicode="&#x2212;" vert-adv-y="2458" 
 />
    </font>
</defs>
</svg>
